<?xml version="1.0" encoding="iso-8859-1"?>
<!-- Uploaded to: SVG Repo, www.svgrepo.com, Generator: SVG Repo Mixer Tools -->
<svg height="800px" width="800px" version="1.1" id="Layer_1" xmlns="http://www.w3.org/2000/svg" xmlns:xlink="http://www.w3.org/1999/xlink" 
	 viewBox="0 0 512 512" xml:space="preserve">
<path style="fill:#AC2201;" d="M468.685,295.427V183.254h37.128c3.416,0,6.186,2.77,6.186,6.186v99.801
	c0,3.416-2.77,6.186-6.186,6.186H468.685z"/>
<polygon style="fill:#ECE5DD;" points="377.529,305.618 377.529,338.742 399.9,495.341 467.575,495.341 467.575,333.972 
	467.575,305.618 "/>
<polygon style="fill:#D9CBBD;" points="410.293,305.618 377.529,305.618 377.529,338.742 399.9,495.341 432.663,495.341 
	410.293,338.742 "/>
<path style="fill:#AC2201;" d="M46.193,305.658C19.427,300.873,0,277.653,0,250.447v-22.213c0-27.206,19.427-50.426,46.193-55.212
	l43.212-1.868v136.373L46.193,305.658z"/>
<path style="fill:#891D00;" d="M76.561,305.658c-26.766-4.786-46.193-28.006-46.193-55.212v-22.213
	c0-27.206,19.427-50.426,46.193-55.212l12.844-0.555v-1.313l-43.212,1.868C19.427,177.808,0,201.028,0,228.234v22.213
	c0,27.206,19.427,50.426,46.193,55.212l43.212,1.868v-1.313L76.561,305.658z"/>
<polygon style="fill:#ECE5DD;" points="356.512,150.124 166.594,68.731 122.169,49.692 92.907,49.692 92.907,428.989 
	122.169,428.989 166.594,409.951 356.512,328.557 401.533,330.967 401.533,150.124 "/>
<polygon style="fill:#D9CBBD;" points="154.788,63.671 122.169,49.692 92.907,49.692 92.907,428.989 122.169,428.989 
	154.788,415.01 "/>
<path style="fill:#CC7400;" d="M89.406,462.022c-18.679,0-33.874-15.196-33.874-33.874V50.534c0-18.679,15.196-33.874,33.874-33.874
	s33.874,15.196,33.874,33.874v377.614C123.28,446.826,108.084,462.022,89.406,462.022z"/>
<path style="fill:#AA6101;" d="M89.406,428.148V50.534c0-12.51,6.823-23.451,16.937-29.317c-4.987-2.892-10.77-4.557-16.937-4.557
	c-18.679,0-33.874,15.196-33.874,33.874v377.614c0,18.679,15.196,33.874,33.874,33.874c6.167,0,11.95-1.665,16.937-4.557
	C96.228,451.598,89.406,440.658,89.406,428.148z"/>
<path style="fill:#CC7400;" d="M372.508,339.853c-9.448,0-17.107-7.659-17.107-17.107v-166.81c0-9.448,7.659-17.107,17.107-17.107
	h89.066c9.448,0,17.107,7.659,17.107,17.107v166.81c0,9.448-7.659,17.107-17.107,17.107H372.508z"/>
<path style="fill:#AA6101;" d="M388.165,308.545V170.136c0-17.264,14.045-31.308,31.308-31.308h-46.964
	c-9.448,0-17.107,7.659-17.107,17.107v166.81c0,9.448,7.659,17.107,17.107,17.107h46.964
	C402.21,339.853,388.165,325.807,388.165,308.545z"/>
</svg>