<svg width="20" height="20" viewBox="0 0 20 20" fill="none" xmlns="http://www.w3.org/2000/svg">
    <g id="Filter">
        <path id="Stroke 1 (Stroke)" fill-rule="evenodd" clip-rule="evenodd"
            d="M0.25 2.5904C0.25 1.31015 1.27545 0.25 2.56517 0.25H17.4359C18.7263 0.25 19.75 1.31082 19.75 2.5904V3.52644C19.75 4.36617 19.4309 5.17502 18.8587 5.78491L14.0043 10.9466C13.2147 11.7606 12.7701 12.8618 12.7701 14.0114V16.2984C12.7701 17.0485 12.364 17.7451 11.703 18.1061L8.94195 19.6107C8.15834 20.0363 7.24905 19.4481 7.24905 18.5952V14.0233C7.24905 12.8918 6.8168 11.8073 6.04947 10.9959C6.02829 10.9779 6.00801 10.9586 5.98875 10.9381L1.14301 5.78558C0.569237 5.17545 0.25 4.36625 0.25 3.52644V2.5904ZM7.02929 9.85505C7.04461 9.86837 7.05944 9.88236 7.07375 9.89701C8.14696 10.9957 8.74905 12.4788 8.74905 14.0233V18.0075L10.9841 16.7896C10.984 16.7897 10.9842 16.7896 10.9841 16.7896C11.1561 16.6955 11.2701 16.5081 11.2701 16.2984V14.0114C11.2701 12.4784 11.8618 11.0031 12.9235 9.90643L17.7647 4.75863C17.7646 4.75881 17.7649 4.75844 17.7647 4.75863C18.0744 4.42821 18.25 3.98651 18.25 3.52644V2.5904C18.25 2.1149 17.8737 1.75 17.4359 1.75H2.56517C2.1267 1.75 1.75 2.11557 1.75 2.5904V3.52644C1.75 3.98668 1.92515 4.42771 2.2357 4.75795C2.2357 4.75795 2.23571 4.75796 2.2357 4.75795L7.02929 9.85505Z"
            fill="#131313" />
    </g>
</svg>
