<svg width="35" height="45" viewBox="0 0 35 45" fill="none" xmlns="http://www.w3.org/2000/svg">
    <g id="Group 1">
        <path id="Vector"
            d="M32.0533 18.5826C31.1148 20.2624 29.9144 21.7648 28.513 23.0352C30.776 4.0685 11.9255 0 11.9255 0C13.8656 1.6913 15.1056 7.7615 10.8187 11.9901C5.64667 17.0924 7.83884 22.2495 8.72934 24.9663C6.19756 23.4222 4.08534 21.2181 2.6131 18.5822C1.16561 21.1732 0.333374 24.1791 0.333374 27.3881C0.333374 37.115 7.94468 45 17.3332 45C26.7217 45 34.3334 37.1146 34.3334 27.3881C34.3334 24.1795 33.5008 21.1735 32.0533 18.5826Z"
            fill="#FB8C00" />
        <path id="Vector_2"
            d="M18.9807 18C18.9807 18 8.30511 23.6824 16.3099 37C16.3099 37 22.6768 36.3346 23.3146 30.0748C23.7332 25.9657 17.0056 24.7542 18.9807 18Z"
            fill="#FDD835" />
    </g>
</svg>
