<svg width="20" height="20" viewBox="0 0 20 20" fill="none" xmlns="http://www.w3.org/2000/svg">
    <g id="Like">
        <path id="Heart"
            d="M15.7098 0.791136C15.1108 0.590136 14.4808 0.501136 13.8498 0.501136C12.4598 0.491136 11.1108 0.951136 9.99977 1.80014C9.90977 1.73114 9.79977 1.67014 9.69977 1.61114C9.59977 1.55014 9.41977 1.40114 9.26977 1.32114L8.88977 1.15114C8.68977 1.04114 8.48077 0.961136 8.25977 0.890136C8.23977 0.871136 8.20977 0.850136 8.16977 0.831136H8.11077C7.51977 0.630136 6.90977 0.520136 6.27977 0.501136H6.16977C5.88977 0.501136 5.61077 0.520136 5.32977 0.561136H5.20977C4.90977 0.600136 4.61077 0.670136 4.32077 0.770136C0.589773 1.99114 -0.740228 6.04114 0.389772 9.58114C1.02977 11.3901 2.06077 13.0311 3.40077 14.3801C5.34977 16.2601 7.48077 17.9201 9.76977 19.3401L10.0298 19.5011L10.2798 19.3501C12.5608 17.9201 14.6798 16.2601 16.6108 14.3901C17.9598 13.0411 18.9898 11.3901 19.6198 9.58114C20.7308 6.04114 19.4008 1.99114 15.7098 0.791136Z"
            fill="#FB8C00" />
    </g>
</svg>
