<svg width="24" height="24" viewBox="0 0 24 24" fill="none" xmlns="http://www.w3.org/2000/svg">
    <mask id="mask0_845_184" style="mask-type:luminance" maskUnits="userSpaceOnUse" x="2" y="2"
        width="21" height="20">
        <path fill-rule="evenodd" clip-rule="evenodd" d="M2 2H22.4725V21.501H2V2Z" fill="white" />
    </mask>
    <g mask="url(#mask0_845_184)">
        <path fill-rule="evenodd" clip-rule="evenodd"
            d="M3.82371 11.1231C5.22571 15.4851 10.7647 19.0121 12.2367 19.8851C13.7137 19.0031 19.2927 15.4371 20.6497 11.1271C21.5407 8.34112 20.7137 4.81212 17.4277 3.75312C15.8357 3.24212 13.9787 3.55312 12.6967 4.54512C12.4287 4.75112 12.0567 4.75512 11.7867 4.55112C10.4287 3.53012 8.65471 3.23112 7.03771 3.75312C3.75671 4.81112 2.93271 8.34012 3.82371 11.1231ZM12.2377 21.5011C12.1137 21.5011 11.9907 21.4711 11.8787 21.4101C11.5657 21.2391 4.19271 17.1751 2.39571 11.5811C2.39471 11.5811 2.39471 11.5801 2.39471 11.5801C1.26671 8.05812 2.52271 3.63212 6.57771 2.32512C8.48171 1.70912 10.5567 1.98012 12.2347 3.03912C13.8607 2.01112 16.0207 1.72712 17.8867 2.32512C21.9457 3.63412 23.2057 8.05912 22.0787 11.5801C20.3397 17.1101 12.9127 21.2351 12.5977 21.4081C12.4857 21.4701 12.3617 21.5011 12.2377 21.5011Z"
            fill="#131313" />
    </g>
</svg>
