<svg width="47" height="38" viewBox="0 0 47 38" fill="none" xmlns="http://www.w3.org/2000/svg">
    <g id="Group 3">
        <path id="Vector" opacity="0.2"
            d="M14.933 2.38475C12.3246 3.99389 9.47116 6.88561 8.4212 9.99477C7.40927 12.9913 6.00397 19.1039 6.40282 21.4573C6.80167 23.8108 7.88842 28.4584 10.3955 30.9952C12.9025 33.532 27.3835 35.816 31.0789 34.717C34.7743 33.618 40.6857 29.069 41.4265 26.9318C42.1673 24.7947 44.6337 16.1093 42.4533 10.0205C41.4019 7.08456 37.3776 2.75413 34.1959 1.17981C31.0142 -0.394516 22.4109 -0.0993343 19.7538 0.392646C17.0968 0.884626 16.0103 1.72016 14.933 2.38475Z"
            fill="#FB8C00" />
        <g id="Group">
            <g id="Group_2">
                <g id="Group_3">
                    <path id="Vector_2"
                        d="M20.8412 27.5901C20.9672 27.2233 20.6376 23.7157 19.6737 20.7783C19.1662 19.2358 17.6951 15.8448 16.9163 14.442C16.3652 13.4261 15.7155 12.4485 14.907 11.5973C14.1074 10.7432 13.1601 9.99759 12.075 9.50338C10.9886 9.01554 9.78447 8.80057 8.6093 8.86242C7.87668 8.92086 8.22248 8.89127 7.73451 8.95827C7.58931 8.97665 7.44627 9.00658 7.30371 9.0382C7.16163 9.07172 7.01772 9.09534 6.87841 9.1385C6.27226 9.31035 6.56703 9.22094 6.04839 9.40079C5.78892 9.49283 5.88217 9.45343 5.24609 9.72661L5.26491 9.77748C5.82062 9.63154 6.37309 9.49002 6.93498 9.41017C7.49549 9.32938 8.05722 9.27864 8.61678 9.28967C10.9283 9.34685 12.8536 10.2909 14.5392 11.9547C15.2809 12.6851 16.1049 13.7477 16.6614 14.5945C17.2831 15.5487 17.8186 16.5665 18.235 17.6318C18.6581 18.6954 18.9496 19.8051 19.2409 20.9071C19.5422 22.0447 20.1879 24.4078 20.644 26.7332C20.8326 27.694 20.7807 27.5239 20.7946 27.5624L20.8412 27.5901Z"
                        fill="#F4A04D" />
                    <path id="Vector_3"
                        d="M18.5974 18.3021C18.3693 18.0857 18.0898 17.9242 17.7912 17.812C17.4921 17.6996 17.166 17.6457 16.8402 17.6673C16.6778 17.6816 16.5167 17.7129 16.3615 17.7625C16.2073 17.8154 16.0599 17.8857 15.9236 17.9718C15.6527 18.1473 15.426 18.3791 15.2585 18.6439C15.4947 18.4379 15.7411 18.2554 16.0073 18.119C16.2753 17.9869 16.5617 17.9033 16.856 17.8836C17.15 17.8602 17.4484 17.8991 17.7404 17.9729C18.0322 18.0497 18.3189 18.1602 18.5974 18.3021Z"
                        fill="#F4A04D" />
                    <path id="Vector_4"
                        d="M15.0593 12.1356C14.8945 12.0726 14.7122 12.0606 14.5353 12.0821C14.3578 12.1033 14.1813 12.1594 14.025 12.2521C13.8691 12.3439 13.7271 12.4636 13.6233 12.6099C13.5649 12.6778 13.5274 12.7605 13.485 12.8371C13.4483 12.9173 13.4217 13.0021 13.3997 13.086C13.4646 13.0241 13.5145 12.9564 13.5734 12.8965C13.6338 12.8381 13.6859 12.7749 13.7491 12.7233C13.8656 12.6102 13.9983 12.5214 14.1332 12.4401C14.2693 12.3596 14.4157 12.296 14.5703 12.2471C14.7254 12.198 14.8865 12.1623 15.0593 12.1356Z"
                        fill="#D68741" />
                    <path id="Vector_5"
                        d="M12.0933 9.83203C11.7071 9.88043 11.3326 10.018 10.9877 10.2074C10.6418 10.3972 10.33 10.6542 10.0742 10.9607C9.94963 11.1166 9.83968 11.2842 9.74652 11.4604C9.65556 11.6379 9.58419 11.8246 9.53065 12.0153C9.42866 12.3982 9.40145 12.7963 9.44924 13.1814C9.49193 12.7956 9.56607 12.4206 9.69206 12.0665C9.82294 11.7145 10.0054 11.3856 10.242 11.098C10.4776 10.8098 10.7624 10.562 11.0754 10.3515C11.3903 10.1434 11.7304 9.96741 12.0933 9.83203Z"
                        fill="#F4A04D" />
                </g>
                <g id="Group_4">
                    <path id="Vector_6"
                        d="M15.0795 19.6485C15.0795 19.6485 15.3942 21.1165 14.8348 22.6583C14.2754 24.2 13.5381 26.566 13.5381 26.566C13.5381 26.566 12.7825 24.9443 12.8811 23.081C12.9796 21.2178 13.9423 19.2417 15.0795 19.6485Z"
                        fill="#F4A04D" />
                    <path id="Vector_7"
                        d="M14.8342 19.1615C15.2857 19.3309 15.5353 20.3802 14.2971 22.1422C13.0588 23.9041 11.7135 26.243 11.7135 26.243C11.7135 26.243 11.0497 17.7413 14.8342 19.1615Z"
                        fill="#F4C77C" />
                    <path id="Vector_8"
                        d="M11.6925 25.8821C11.7842 25.6177 11.8863 25.3567 11.992 25.0985C12.2791 24.4224 12.6093 23.7662 12.9475 23.1161C13.2836 22.4634 13.6433 21.8297 13.9321 21.1612C14.1649 20.6342 14.3793 20.097 14.5783 19.5557C14.1366 19.9919 13.7205 20.4599 13.3479 20.9563C13.117 21.2659 12.9001 21.5864 12.7142 21.9235C12.5274 22.2598 12.3808 22.6155 12.2427 22.9777C12.0221 23.5814 11.8371 24.2001 11.6689 24.8236C11.6691 24.6602 11.671 24.4874 11.6753 24.3072C11.7961 23.8416 11.9281 23.3784 12.0819 22.9204C12.2093 22.5492 12.3583 22.1805 12.5483 21.8326C12.7365 21.4844 12.9552 21.1552 13.1878 20.8375C13.4211 20.5202 13.6712 20.2159 13.9336 19.9231C14.1843 19.6457 14.4405 19.3764 14.7193 19.1226C14.7574 19.1351 14.7953 19.1471 14.8343 19.1618C14.8674 19.1742 14.8991 19.1918 14.9294 19.2135C14.6813 19.9005 14.4109 20.576 14.1103 21.2412C13.9588 21.5759 13.7964 21.9079 13.622 22.2314C13.4497 22.5556 13.2671 22.8727 13.0905 23.193C12.7354 23.8322 12.3929 24.4776 12.086 25.1401C11.9474 25.438 11.817 25.7405 11.7011 26.0483C11.6984 26.0005 11.6955 25.9454 11.6925 25.8821Z"
                        fill="#F4A04D" />
                    <path id="Vector_9"
                        d="M12.0374 21.2721C12.1323 21.0876 12.2331 20.906 12.3443 20.7306C12.4856 20.5131 12.6353 20.3009 12.7983 20.0991C12.9638 19.8995 13.1363 19.7055 13.3244 19.5271C13.5105 19.3469 13.7088 19.1795 13.9189 19.0284C13.9302 19.0204 13.9419 19.0129 13.9533 19.005C14.0039 19.0024 14.0556 19.0023 14.1084 19.0044C14.0666 19.0393 14.0252 19.0745 13.985 19.1113C13.7945 19.2786 13.6164 19.4592 13.4451 19.6449C13.1043 20.0182 12.7959 20.42 12.5273 20.8469C12.2737 21.2409 12.0587 21.6586 11.8682 22.0881C11.9141 21.8096 11.9697 21.5352 12.0374 21.2721Z"
                        fill="#F4A04D" />
                    <path id="Vector_10"
                        d="M13.9189 19.0288C13.9189 19.0288 14.7318 18.4202 15.2324 18.3972C15.7331 18.3743 15.25 19.9732 15.2023 20.0367C15.1547 20.1001 14.102 19.4948 13.9189 19.0288Z"
                        fill="#F4A04D" />
                </g>
                <g id="Group_5">
                    <path id="Vector_11"
                        d="M13.6054 13.4943C13.6054 13.4943 13.8695 14.7262 13.4001 16.02C12.9307 17.3137 12.312 19.2992 12.312 19.2992C12.312 19.2992 11.6779 17.9383 11.7606 16.3747C11.8433 14.8112 12.6511 13.153 13.6054 13.4943Z"
                        fill="#D68741" />
                    <path id="Vector_12"
                        d="M13.3996 13.0859C13.7785 13.2281 13.988 14.1086 12.9489 15.5872C11.9098 17.0657 10.7808 19.0283 10.7808 19.0283C10.7808 19.0283 10.2239 11.8942 13.3996 13.0859Z"
                        fill="#F2B15B" />
                    <path id="Vector_13"
                        d="M12.6316 12.9745C12.6316 12.9745 13.3137 12.4638 13.7338 12.4445C14.1539 12.4253 13.7485 13.767 13.7085 13.8203C13.6686 13.8735 12.7853 13.3656 12.6316 12.9745Z"
                        fill="#D68741" />
                </g>
                <g id="Group_6">
                    <path id="Vector_14"
                        d="M9.59123 14.2755C9.59123 14.2755 9.59288 15.8717 6.99598 20.6957C6.99598 20.6957 6.74832 15.8658 7.41904 14.7696C8.08976 13.6734 9.04322 13.5377 9.59123 14.2755Z"
                        fill="#F4A04D" />
                    <path id="Vector_15"
                        d="M9.43634 13.8912C10.0919 14.9645 9.05183 16.4406 5.13049 19.8416C5.13049 19.8416 7.39131 10.5434 9.43634 13.8912Z"
                        fill="#F4C77C" />
                    <path id="Vector_16"
                        d="M6.38317 18.3705L6.72743 17.9504L7.06077 17.5218C7.50446 16.9501 7.93154 16.3655 8.33396 15.7638C8.5318 15.461 8.73011 15.1578 8.91381 14.8456C9.10377 14.5367 9.27808 14.2188 9.4363 13.8911C9.3231 14.2378 9.16619 14.5685 9.00658 14.8964C8.92709 15.0609 8.83682 15.2193 8.75118 15.3807C8.66355 15.5408 8.56778 15.6961 8.47639 15.8543C8.0997 16.48 7.67605 17.0757 7.23227 17.6547C6.8968 18.0905 6.54187 18.5105 6.17505 18.9193C5.85225 19.2102 5.50472 19.5169 5.13049 19.8414C5.13049 19.8414 5.13079 19.8402 5.13084 19.84C5.31613 19.6281 5.50277 19.4177 5.68542 19.204C5.91574 18.9239 6.1599 18.656 6.38317 18.3705Z"
                        fill="#F4A04D" />
                    <path id="Vector_17"
                        d="M5.63824 18.0389C5.88659 17.6099 6.14723 17.1877 6.41341 16.7693C6.83707 16.1263 7.28249 15.4972 7.7613 14.8939C8.16874 14.3796 8.59932 13.8822 9.0632 13.4185C9.07129 13.4259 9.07938 13.4345 9.08747 13.4423C8.91593 13.6509 8.74668 13.861 8.58388 14.076C8.46679 14.2277 8.34962 14.3791 8.23651 14.5337C8.12138 14.6867 8.0074 14.8404 7.89568 14.9959C7.44724 15.6164 7.01264 16.2463 6.59516 16.8877C6.38984 17.2105 6.17769 17.5291 5.98141 17.8577L5.67941 18.3461L5.41138 18.7989C5.47695 18.5701 5.5529 18.3135 5.63824 18.0389Z"
                        fill="#F4A04D" />
                    <path id="Vector_18"
                        d="M8.32954 13.1609C8.32954 13.1609 9.40359 12.2356 9.65281 12.6732C9.90203 13.1109 9.70367 14.3463 9.62093 14.4091C9.53814 14.4719 8.3118 13.5439 8.32954 13.1609Z"
                        fill="#F4A04D" />
                </g>
                <g id="Group_7">
                    <path id="Vector_19"
                        d="M0.333374 17.8444C0.358807 17.8188 0.385322 17.7933 0.409673 17.7677C0.445054 17.7336 0.479309 17.7006 0.512441 17.6665C0.918151 17.2648 1.29743 16.8821 1.65033 16.5174C2.56301 15.5758 3.29977 14.757 3.8522 14.0476C3.92888 13.9481 4.00233 13.8507 4.07136 13.7564C4.27724 13.478 4.45134 13.2175 4.59364 12.9738C4.63287 12.9072 4.66989 12.8417 4.70359 12.7772C5.11496 12.0066 5.18334 11.4164 4.88763 10.9725C4.80739 10.8505 4.6987 10.74 4.56276 10.6387C4.44494 10.5519 4.32906 10.4814 4.21712 10.4294C4.19991 10.4204 4.18377 10.4136 4.16759 10.4068C1.4124 9.21008 0.333374 17.8444 0.333374 17.8444Z"
                        fill="#F4C77C" />
                    <path id="Vector_20"
                        d="M0.409668 17.7676C0.445049 17.7335 0.479304 17.7005 0.512435 17.6664C0.526709 17.5982 0.543146 17.5313 0.562826 17.4643C0.665552 17.0701 0.752098 16.6734 0.885057 16.2884C1.11646 15.509 1.42978 14.7584 1.78069 14.029C1.87191 13.8483 1.96106 13.6655 2.0544 13.4859L2.35608 12.9575C2.56326 12.6086 2.78121 12.2664 3.01413 11.9343C3.38303 11.4093 3.77762 10.901 4.21716 10.4294C4.19994 10.4204 4.18381 10.4136 4.16764 10.4067C3.99761 10.5631 3.83398 10.7284 3.6714 10.8925C3.39346 11.1935 3.12399 11.5054 2.8781 11.8341C2.38199 12.4903 1.94371 13.1909 1.58601 13.9332C1.23264 14.6755 0.923339 15.4426 0.722041 16.2409C0.601928 16.6349 0.536918 17.0417 0.458977 17.444C0.436442 17.551 0.422514 17.6593 0.409668 17.7676Z"
                        fill="#F4A04D" />
                    <path id="Vector_21"
                        d="M1.65039 16.5171C1.74412 16.2584 1.82487 15.9983 1.91103 15.7394L2.05373 15.3567C2.10165 15.2296 2.142 15.1001 2.1975 14.9752C2.24282 14.8718 2.28599 14.7673 2.32807 14.6618C2.54671 14.5746 2.76112 14.4841 2.9744 14.3936C3.23029 14.2887 3.48297 14.1816 3.7408 14.0887C3.77795 14.0742 3.8151 14.0596 3.85226 14.0473C3.92894 13.9478 4.00239 13.8504 4.07142 13.7561C3.93292 13.7927 3.7975 13.8368 3.66424 13.8854C3.40083 13.9858 3.14469 14.1049 2.90014 14.2425C2.71264 14.3477 2.53032 14.4626 2.35757 14.5918C2.4087 14.469 2.46086 14.3474 2.52159 14.2302C2.58028 14.1075 2.63141 13.9826 2.69438 13.8622L2.88435 13.5043C2.93037 13.4204 2.97747 13.3377 3.0257 13.2551L3.54451 13.1355C3.76571 13.0885 3.98474 13.0404 4.20442 13.013C4.26 13.0032 4.31433 12.9987 4.36978 12.9922C4.42527 12.9856 4.47964 12.979 4.535 12.9778C4.55459 12.9771 4.57415 12.9753 4.5937 12.9735C4.63293 12.9069 4.66995 12.8414 4.70364 12.7769C4.527 12.7639 4.34871 12.778 4.17471 12.7986C3.94183 12.8323 3.71502 12.8922 3.49642 12.9739C3.35217 13.0278 3.21099 13.0913 3.07613 13.1659C3.28452 12.8127 3.51221 12.4696 3.76242 12.1431C3.84681 12.0383 3.927 11.9291 4.01778 11.8287L4.14979 11.6738C4.19413 11.6236 4.24279 11.5757 4.2882 11.5255C4.47419 11.3281 4.67082 11.1396 4.88769 10.9722C4.64439 11.1001 4.42423 11.2697 4.2158 11.4493C4.00628 11.6289 3.81381 11.8283 3.63197 12.0366C3.26835 12.4531 2.96242 12.9175 2.69421 13.3998L2.50403 13.7686C2.44205 13.8922 2.38979 14.0194 2.33322 14.1453C2.21899 14.3972 2.12954 14.6582 2.03902 14.9181C1.94745 15.1769 1.88391 15.4459 1.80961 15.7094C1.75039 15.9785 1.69771 16.2477 1.65039 16.5171Z"
                        fill="#F4A04D" />
                    <path id="Vector_22"
                        d="M3.69718 10.294C3.67088 10.2062 5.51535 9.3378 5.63862 9.62945C5.76189 9.92115 5.08775 11.2663 5.07383 11.3555C5.05994 11.4449 3.87914 10.9011 3.69718 10.294Z"
                        fill="#F4A04D" />
                </g>
            </g>
            <g id="Group_8">
                <path id="Vector_23"
                    d="M17.2451 12.1333C16.5703 12.8678 16.072 15.5628 16.7935 18.2068C17.0723 19.2285 16.9678 20.7845 17.0063 22.3838C17.0163 22.7991 17.1936 24.4901 17.1956 24.9026C17.2058 27.0127 17.0037 27.8511 17.073 28.5139C17.2079 29.8053 23.0483 31.5924 29.9312 31.211C36.8141 30.8295 39.1084 29.6555 39.2434 28.599C39.3783 27.5424 39.2434 24.6477 39.2434 23.6297C39.2434 22.6117 39.6482 21.0741 39.2434 19.5537C38.8385 18.0333 39.7382 15.7864 39.4233 14.4445C39.1084 13.1026 38.8464 12.1333 38.8464 12.1333L17.2451 12.1333Z"
                    fill="#A06648" />
                <path id="Vector_24"
                    d="M39.2434 19.5536C38.8697 18.1503 39.6054 16.1296 39.4735 14.7713C39.4735 14.7712 39.4735 14.7711 39.4735 14.771C39.4695 14.7297 39.4645 14.6891 39.4588 14.649C39.4495 14.5789 39.4387 14.5099 39.4233 14.4445C39.1084 13.1025 38.8465 12.1333 38.8465 12.1333H36.2842H17.2451C16.8128 12.6039 16.4535 13.8798 16.4404 15.431C16.7458 15.4461 17.0538 15.4853 17.3429 15.5949C18.5021 16.0343 18.364 16.6558 20.2403 16.9273C23.993 17.4701 26.8272 14.8711 30.2011 14.9379C31.9214 14.972 33.1938 15.1428 34.3099 15.3241C35.4526 15.5098 36.2631 16.3814 36.2615 17.3926C36.261 17.7259 36.2907 18.044 36.3683 18.3355C36.7732 19.8559 36.3683 21.3936 36.3683 22.4116C36.3683 23.4296 36.5033 26.3243 36.3683 27.3808C36.2334 28.4374 33.9391 29.6114 27.0562 29.9928C23.3136 30.2003 19.8817 29.766 17.5052 29.1194C18.9853 30.2926 24.0805 31.5353 29.9312 31.211C36.8141 30.8296 39.1084 29.6556 39.2434 28.599C39.3784 27.5424 39.2434 24.6477 39.2434 23.6297C39.2434 22.6117 39.6482 21.0741 39.2434 19.5536Z"
                    fill="#844A30" />
                <path id="Vector_25"
                    d="M17.3429 10.2609C15.4658 10.908 14.0173 13.1997 14.3436 14.1979C14.7212 15.3533 16.1838 14.6616 17.3429 15.101C18.5021 15.5404 18.364 16.162 20.2404 16.4334C23.9931 16.9763 26.8272 14.3772 30.2012 14.4441C33.5752 14.5109 35.2259 15.1037 37.354 15.2706C39.482 15.4376 39.3783 13.4978 40.3231 13.9457C41.2678 14.3936 40.1447 11.4753 39.4916 10.88C38.8385 10.2846 39.1084 9.98191 36.2743 9.7224C33.4402 9.46288 21.1259 8.95691 17.3429 10.2609Z"
                    fill="#BC7F64" />
                <path id="Vector_26"
                    d="M18.7108 9.51088C17.4881 10.2766 16.7802 10.9109 17.9125 11.4588C19.0447 12.0066 20.1577 12.11 21.1757 12.3714C22.1937 12.6328 22.9968 12.3448 23.9899 12.3714C24.9829 12.398 27.0414 12.5658 28.0365 12.4819C29.0316 12.398 31.6408 12.5013 33.6202 12.3714C35.5996 12.2415 36.8592 12.0067 37.309 11.8502C37.7589 11.6936 38.5546 11.1204 38.1188 10.507C37.683 9.89357 37.5789 9.60936 36.7692 9.04708C35.9595 8.48479 33.6202 7.1722 32.9004 6.57627C32.1806 5.98033 29.5961 5.97233 29.2689 6.01545C28.9416 6.05857 28.0533 6.38954 27.0129 6.57627C25.9726 6.76294 23.4533 6.76295 22.6436 7.31083C21.8338 7.85867 22.227 7.92882 21.1757 8.32419C20.1244 8.71952 19.2931 9.14621 18.7108 9.51088Z"
                    fill="#F4D4B3" />
                <path id="Vector_27"
                    d="M38.1187 10.5068C37.6829 9.89335 37.5789 9.60914 36.7691 9.04685C35.9594 8.48457 33.6201 7.17198 32.9003 6.57604C32.5614 6.29546 31.8092 6.14529 31.0738 6.06934C31.9644 6.67864 33.6077 7.61359 34.2398 8.05252C34.9857 8.57051 35.0815 8.83232 35.4831 9.39746C35.8845 9.9626 35.1515 10.4906 34.7371 10.6349C34.3226 10.7791 33.1702 10.7578 31.4314 11.4196C29.756 12.0571 27.339 11.6162 26.4223 11.6935C25.5055 11.7707 23.0634 10.7824 22.1486 10.7579C21.2338 10.7334 20.8123 11.3559 19.8744 11.1151C19.1139 10.9198 18.2959 10.8202 17.4577 10.5205C17.2318 10.8612 17.3195 11.1718 17.9124 11.4587C19.0446 12.0065 20.1575 12.1099 21.1756 12.3713C22.1937 12.6327 22.9967 12.3447 23.9898 12.3713C24.9828 12.3979 27.0413 12.5657 28.0364 12.4818C29.0316 12.3979 31.6408 12.5012 33.6201 12.3713C35.5995 12.2414 36.8591 12.0066 37.309 11.85C37.7588 11.6934 38.5545 11.1202 38.1187 10.5068Z"
                    fill="#DDB38E" />
                <path id="Vector_28"
                    d="M30.831 6.64552C30.5449 6.562 30.0213 6.64552 29.3015 6.64552C28.5817 6.64552 28.2668 6.99772 27.1421 6.95858C26.0175 6.91944 23.9931 6.99772 23.4533 7.34989C22.9135 7.70209 22.7335 8.01512 22.3736 8.28908C22.0137 8.56304 19.3635 9.41624 19.2715 9.83099C19.1796 10.2457 19.8994 10.1675 21.159 10.1283C22.4186 10.0892 23.2284 9.22827 23.8132 8.87606C24.398 8.52385 24.8929 8.32822 25.9276 8.28908C26.9623 8.24994 27.772 8.01516 28.2668 7.85863C28.7617 7.7021 31.011 7.81948 31.3259 7.54557C31.6408 7.27165 31.1845 6.74868 30.831 6.64552Z"
                    fill="#FFE8D4" />
                <path id="Vector_29"
                    d="M24.7017 9.24811C24.2181 9.64989 23.1385 10.05 23.6783 10.3631C24.2181 10.6761 25.1766 10.8476 26.2875 10.6761C27.4919 10.4903 28.9908 10.8788 29.4407 10.644C29.8905 10.4092 30.5049 9.09911 30.1001 8.82519C29.6952 8.55127 28.6991 9.34634 27.9656 9.2873C27.2321 9.22826 27.0522 9.18912 26.4224 8.99344C25.7927 8.79777 25.0043 8.99677 24.7017 9.24811Z"
                    fill="#FFE8D4" />
                <path id="Vector_30"
                    d="M31.1909 8.17176C30.6506 8.20532 30.6511 8.57872 31.1909 8.82527C31.7307 9.07181 32.5405 9.5372 32.0006 9.87189C31.4608 10.2066 30.4261 10.2849 30.5611 10.5197C30.6961 10.7545 31.3708 10.911 32.5405 10.5197C33.7101 10.1284 34.115 9.88937 34.5199 9.87189C34.9247 9.85442 35.0147 9.12656 34.5199 8.82527C34.025 8.52397 33.8001 8.71514 33.3952 8.38474C32.9903 8.05433 32.8104 7.70217 32.3605 7.74127C31.9106 7.78041 32.0006 8.17172 31.8207 8.17172C31.6408 8.17176 31.8207 8.13262 31.1909 8.17176Z"
                    fill="#FFE8D4" />
                <path id="Vector_31"
                    d="M17.9459 16.8591C16.655 17.5763 17.5899 18.0331 17.9124 19.8332C18.2349 21.6333 17.7698 22.0246 17.9124 22.8072C18.055 23.5899 17.7698 24.8496 17.9124 25.7068C18.055 26.564 17.5529 27.6596 18.0288 28.051C18.5048 28.4423 20.1765 28.9215 20.2404 27.3906C20.3042 25.8596 19.7621 25.228 19.9432 23.6263C20.1243 22.0246 20.7163 20.8506 20.2404 19.7549C19.7644 18.6592 20.2128 18.3461 19.7637 17.7983C19.3145 17.2505 18.7003 16.4401 17.9459 16.8591Z"
                    fill="#BC7F64" />
            </g>
            <g id="Group_9">
                <g id="Group_10">
                    <path id="Vector_32"
                        d="M2.56589 28.2978C2.18725 28.8703 2.66187 29.2279 3.48393 29.2644C4.30599 29.3009 6.67524 29.3127 7.76707 29.4801C8.8589 29.6474 11.3344 29.0036 11.6157 28.8442C11.8969 28.6849 12.5935 28.561 12.6635 28.3153C12.7335 28.0696 11.9802 27.4972 11.2497 27.3658C10.5193 27.2344 10.1388 26.7569 9.54194 26.7007C8.94501 26.6444 7.88787 26.637 7.62481 26.7264C7.36175 26.8157 5.96425 26.6918 5.46127 26.8381C4.95824 26.9846 4.77489 27.1708 3.96619 27.3928C3.15745 27.6147 2.79353 27.9536 2.56589 28.2978Z"
                        fill="#EDB36E" />
                    <path id="Vector_33"
                        d="M11.5337 27.4375C11.6783 27.5862 11.7608 27.7297 11.7386 27.8239C11.6808 28.069 11.0886 28.1875 10.8503 28.3446C10.612 28.5018 8.50897 29.1263 7.57792 28.9507C6.64686 28.775 4.62921 28.745 3.9289 28.7022C3.23435 28.6598 2.82881 28.3042 3.13244 27.7429C2.86441 27.913 2.69369 28.1044 2.56601 28.2975C2.18737 28.87 2.66199 29.2276 3.48405 29.2641C4.30611 29.3006 6.67536 29.3124 7.76719 29.4798C8.85902 29.6471 11.3345 29.0033 11.6157 28.8439C11.897 28.6846 12.5935 28.5607 12.6636 28.315C12.7244 28.1012 12.162 27.6403 11.5337 27.4375Z"
                        fill="#CC9456" />
                    <path id="Vector_34"
                        d="M4.26891 27.8688C3.78409 27.9276 4.71294 28.3248 4.85451 28.3862C5.10948 28.4967 4.91125 27.7909 4.26891 27.8688Z"
                        fill="#592007" />
                    <path id="Vector_35"
                        d="M7.8491 26.9942C7.24923 26.7062 7.01986 27.4034 7.13617 27.5671C7.25247 27.7307 8.22475 27.1746 7.8491 26.9942Z"
                        fill="#592007" />
                    <path id="Vector_36"
                        d="M10.6279 27.82C10.4064 27.872 10.1841 27.9645 10.1693 28.1113C10.1545 28.2582 10.9802 28.2142 11.0173 28.0675C11.0545 27.9207 10.8295 27.7727 10.6279 27.82Z"
                        fill="#592007" />
                    <path id="Vector_37"
                        d="M8.31801 28.829C8.37043 28.5613 8.90677 28.5301 8.87597 28.8002C8.84513 29.0703 8.28259 29.0099 8.31801 28.829Z"
                        fill="#592007" />
                    <path id="Vector_38"
                        d="M5.72867 27.0548C5.58702 27.0751 5.76323 27.2906 5.90138 27.3661C6.03953 27.4415 5.97301 27.0198 5.72867 27.0548Z"
                        fill="#592007" />
                    <path id="Vector_39"
                        d="M6.22915 28.32C6.06829 28.4184 6.60108 28.5891 6.75385 28.5141C6.90662 28.4391 6.42435 28.2006 6.22915 28.32Z"
                        fill="#592007" />
                    <path id="Vector_40"
                        d="M9.60701 27.2906C9.62427 27.2256 9.59638 27.1574 9.53937 27.1218C9.44508 27.0629 9.36606 27.022 9.27194 27.203C9.14984 27.4378 9.11766 27.6816 9.35978 27.604C9.51061 27.5556 9.57778 27.4006 9.60701 27.2906Z"
                        fill="#592007" />
                    <path id="Vector_41"
                        d="M3.08337 28.6927C2.97731 28.8001 3.29833 28.8468 3.43618 28.9165C3.57402 28.9863 3.77009 28.8825 3.74794 28.7794C3.72584 28.6763 3.20564 28.569 3.08337 28.6927Z"
                        fill="#592007" />
                    <path id="Vector_42"
                        d="M5.36354 27.1114C5.26687 26.8885 4.72556 27.2845 4.51086 27.3957C4.29615 27.5068 3.71358 27.5657 3.4718 27.6916C3.34425 27.758 3.2949 27.8285 3.47444 27.8844C3.65398 27.9402 4.25415 27.7005 4.61034 27.5991C4.96657 27.4976 5.43936 27.2861 5.36354 27.1114Z"
                        fill="#FCC78D" />
                    <path id="Vector_43"
                        d="M6.11963 26.8235C5.9817 26.8764 6.25847 26.914 6.53209 27.0126C6.8057 27.1112 7.13572 27.002 7.14965 26.9467C7.16358 26.8913 6.28425 26.7603 6.11963 26.8235Z"
                        fill="#FCC78D" />
                    <path id="Vector_44"
                        d="M7.91899 26.7946C7.834 26.906 8.40177 26.8189 8.6561 26.8687C8.91043 26.9184 9.60584 27.1266 9.75109 26.9478C9.91908 26.741 9.55866 26.811 9.36454 26.7825C9.17046 26.7539 8.00242 26.6853 7.91899 26.7946Z"
                        fill="#FCC78D" />
                </g>
                <g id="Group_11">
                    <path id="Vector_45"
                        d="M10.6923 29.2096C11.0972 28.7491 11.4968 28.6822 11.8096 28.3694C12.1225 28.0565 13.1951 27.833 13.7315 27.6989C14.2678 27.5649 15.5192 27.9462 16.1003 27.9566C16.6814 27.9671 17.3517 28.1817 17.9328 28.4543C18.5138 28.7269 19.2371 28.7091 19.5235 29.2097C19.81 29.7102 20.212 29.6208 20.4356 30.0678C20.6591 30.5147 18.1429 30.7556 17.0089 30.7704C15.8214 30.7859 13.0611 30.8723 13.0611 30.8723C11.4968 30.8723 9.44085 30.6041 9.39617 30.1125C9.35144 29.6208 10.3966 29.546 10.6923 29.2096Z"
                        fill="#EDB36E" />
                    <path id="Vector_46"
                        d="M20.4353 30.0676C20.2898 29.7767 20.0687 29.7124 19.8531 29.5654C19.6219 29.9305 17.6754 30.1271 16.7468 30.1404C15.6666 30.1559 13.1556 30.2423 13.1556 30.2423C11.8686 30.2423 10.2161 30.023 9.88174 29.6173C9.60428 29.7363 9.37435 29.8762 9.3958 30.1123C9.44048 30.6039 11.4965 30.8721 13.0608 30.8721C13.0608 30.8721 15.8211 30.7857 17.0086 30.7702C18.1426 30.7554 20.6588 30.5145 20.4353 30.0676Z"
                        fill="#CC9456" />
                    <path id="Vector_47"
                        d="M11.5966 28.4778C11.1526 28.7511 11.8989 28.9748 12.2117 28.796C12.5245 28.6172 11.8942 28.2947 11.5966 28.4778Z"
                        fill="#592007" />
                    <path id="Vector_48"
                        d="M15.0282 28.0779C14.7712 27.9486 14.5349 28.2969 14.7538 28.4836C14.7556 28.4851 14.7574 28.4866 14.7592 28.4881C14.9379 28.6373 15.5637 28.7411 15.519 28.4881C15.4928 28.3397 15.2361 28.1826 15.0282 28.0779Z"
                        fill="#592007" />
                    <path id="Vector_49"
                        d="M12.9937 29.8222C12.9671 29.5829 13.396 29.4646 13.4854 29.5093C13.5748 29.554 13.7536 29.6658 13.6418 29.8222C13.5301 29.9786 13.3513 29.9562 13.1949 30.0233C13.0385 30.0903 13.0161 30.0233 12.9937 29.8222Z"
                        fill="#592007" />
                    <path id="Vector_50"
                        d="M17.9284 29.1961C17.8979 29.1201 17.9326 29.0336 18.0075 29.0001C18.1563 28.9336 18.3625 28.9332 18.3794 29.0845C18.4018 29.2856 18.2677 29.5575 18.1336 29.4998C18.0487 29.4632 17.9727 29.3062 17.9284 29.1961Z"
                        fill="#592007" />
                    <path id="Vector_51"
                        d="M16.5694 30.0484C16.3298 30.0659 16.3012 30.2914 16.5247 30.3361C16.7482 30.3808 17.2621 30.4255 17.2621 30.3361C17.2621 30.2467 16.9438 30.0512 16.8236 30.0484C16.7035 30.0456 16.8375 30.0288 16.5694 30.0484Z"
                        fill="#592007" />
                    <path id="Vector_52"
                        d="M10.9379 29.8892C10.7604 30.0193 10.5252 30.2025 10.8321 30.2134C11.1391 30.2244 11.5413 30.3365 11.5637 30.2134C11.586 30.0903 11.1634 29.724 10.9379 29.8892Z"
                        fill="#592007" />
                    <path id="Vector_53"
                        d="M15.7426 29.1878C15.5742 29.3026 15.3448 29.4839 15.5214 29.5076C15.6979 29.5314 15.9213 29.3875 16.0778 29.3477C16.2342 29.308 15.9118 29.0723 15.7426 29.1878Z"
                        fill="#592007" />
                    <path id="Vector_54"
                        d="M14.4568 27.9433C14.5664 27.8159 13.9262 27.8153 13.7923 27.8087C13.6583 27.802 12.5998 28.1941 12.4573 28.233C12.3147 28.2718 12.4174 28.456 12.7321 28.4269C13.0468 28.3979 14.2678 28.1628 14.4568 27.9433Z"
                        fill="#FCC78D" />
                    <path id="Vector_55"
                        d="M15.6363 27.9995C15.45 28.0389 15.6028 28.1907 16.0218 28.2745C16.4409 28.3583 17.1448 28.4894 17.3962 28.6417C17.6476 28.7941 17.8152 28.8042 18.0666 28.8387C18.318 28.8733 18.8041 29.0309 18.9885 29.0708C19.1728 29.1108 18.9885 28.8788 18.7035 28.796C18.4186 28.7131 17.874 28.5694 17.7147 28.4303C17.5552 28.2912 15.871 27.9499 15.6363 27.9995Z"
                        fill="#FCC78D" />
                    <path id="Vector_56"
                        d="M11.459 28.9574C11.3806 28.8456 11.0775 28.971 10.9937 29.0751C10.9099 29.1792 10.5187 29.4387 10.4042 29.5101C10.2897 29.5815 10.0886 29.615 10.2227 29.6821C10.3568 29.7491 10.7422 29.7026 10.9434 29.4996C11.1445 29.2966 11.6207 29.188 11.459 28.9574Z"
                        fill="#FCC78D" />
                </g>
            </g>
            <g id="Group_12">
                <g id="Group_13">
                    <path id="Vector_57"
                        d="M40.9913 16.5256C44.2946 16.2024 46.5833 19.6272 46.1177 23.0341C45.6521 26.4411 42.6307 28.8418 39.3692 28.3961C36.1076 27.9504 33.841 24.8272 34.3066 21.4202C34.7722 18.0132 37.959 16.8223 40.9913 16.5256ZM39.7631 25.5131C41.4559 25.7444 43.0241 24.4985 43.2657 22.7302C43.5073 20.9619 42.3195 19.1844 40.6051 19.3521C39.0313 19.5061 37.3772 20.1242 37.1356 21.8925C36.894 23.6608 38.0704 25.2818 39.7631 25.5131Z"
                        fill="#EDB36E" />
                    <g id="Group_14">
                        <path id="Vector_58"
                            d="M39.2245 26.9042C42.3062 27.3253 45.161 25.057 45.6009 21.8379C45.7438 20.7919 45.6118 19.7443 45.2616 18.8169C45.988 20.0068 46.3244 21.5222 46.1177 23.0344C45.6521 26.4414 42.6307 28.842 39.3692 28.3963C36.1076 27.9507 33.841 24.8274 34.3066 21.4204C34.3275 21.2672 34.3559 21.1199 34.3876 20.9755C34.3029 23.9276 36.3558 26.5121 39.2245 26.9042Z"
                            fill="#CC9456" />
                    </g>
                </g>
                <path id="Vector_59"
                    d="M43.9311 17.8617C43.7054 17.5385 42.637 16.9767 41.7018 16.8466C40.4048 16.6663 38.7074 17.0731 37.7367 17.4943C37.2214 17.7178 35.6514 18.8043 35.2044 19.7122C34.802 20.5294 34.7393 21.1817 35.1025 21.2313C35.4658 21.281 36.5561 19.2361 37.5807 18.636C38.6053 18.0359 40.7616 17.5376 41.9257 17.7231C43.0898 17.9086 43.8122 18.6185 44.0415 18.488C44.2707 18.3575 44.0605 18.0471 43.9311 17.8617Z"
                    fill="#FCC78D" />
                <path id="Vector_60"
                    d="M35.4672 22.4298C35.4449 22.5935 35.3856 22.6594 35.3247 22.6511C35.2638 22.6428 35.2243 22.5634 35.2467 22.3997C35.269 22.236 35.4133 22.0024 35.4133 22.0024C35.4133 22.0024 35.4896 22.2661 35.4672 22.4298Z"
                    fill="#FFE8D4" />
                <path id="Vector_61"
                    d="M36.6069 24.4049C36.4899 24.5215 36.4028 24.538 36.3594 24.4945C36.316 24.4509 36.3327 24.3639 36.4497 24.2472C36.5667 24.1306 36.8231 24.0322 36.8231 24.0322C36.8231 24.0322 36.7239 24.2883 36.6069 24.4049Z"
                    fill="#FFE8D4" />
                <path id="Vector_62"
                    d="M42.1403 18.7187C42.1504 18.8836 42.1051 18.9598 42.0438 18.9636C41.9825 18.9673 41.9282 18.8972 41.9181 18.7323C41.908 18.5674 42.0037 18.3101 42.0037 18.3101C42.0037 18.3101 42.1302 18.5537 42.1403 18.7187Z"
                    fill="#FFE8D4" />
                <path id="Vector_63"
                    d="M39.5539 18.685C39.6863 18.7837 39.7153 18.8675 39.6786 18.9167C39.6418 18.966 39.5533 18.9622 39.4208 18.8634C39.2884 18.7647 39.1537 18.5254 39.1537 18.5254C39.1537 18.5254 39.4214 18.5862 39.5539 18.685Z"
                    fill="#FFE8D4" />
                <path id="Vector_64"
                    d="M44.0714 21.0116C43.9214 21.081 43.834 21.0666 43.8082 21.0108C43.7824 20.955 43.828 20.879 43.978 20.8096C44.1279 20.7402 44.4025 20.7358 44.4025 20.7358C44.4025 20.7358 44.2214 20.9422 44.0714 21.0116Z"
                    fill="#FFE8D4" />
                <path id="Vector_65"
                    d="M43.7738 19.2547C43.63 19.1734 43.5907 19.0939 43.621 19.0404C43.6512 18.9869 43.7396 18.9796 43.8834 19.0609C44.0272 19.1422 44.1909 19.3627 44.1909 19.3627C44.1909 19.3627 43.9176 19.336 43.7738 19.2547Z"
                    fill="#FFE8D4" />
                <path id="Vector_66"
                    d="M43.4883 20.1859C43.3644 20.2952 43.2764 20.3063 43.2358 20.2602C43.1951 20.2141 43.2171 20.1282 43.341 20.0189C43.465 19.9097 43.7268 19.8271 43.7268 19.8271C43.7268 19.8271 43.6122 20.0766 43.4883 20.1859Z"
                    fill="#FFE8D4" />
                <path id="Vector_67"
                    d="M44.1961 23.7378C44.0396 23.685 43.9861 23.6144 44.0057 23.5561C44.0254 23.4979 44.1107 23.4741 44.2673 23.5269C44.4238 23.5797 44.6261 23.7654 44.6261 23.7654C44.6261 23.7654 44.3527 23.7907 44.1961 23.7378Z"
                    fill="#FFE8D4" />
                <path id="Vector_68"
                    d="M44.4585 21.9655C44.3906 21.8149 44.4059 21.7276 44.4619 21.7023C44.518 21.6771 44.5935 21.7234 44.6614 21.874C44.7293 22.0246 44.7311 22.2992 44.7311 22.2992C44.7311 22.2992 44.5264 22.1161 44.4585 21.9655Z"
                    fill="#FFE8D4" />
                <path id="Vector_69"
                    d="M36.3286 22.9C36.1721 22.8471 36.1185 22.7765 36.1382 22.7182C36.1578 22.66 36.2432 22.6362 36.3998 22.689C36.5563 22.7418 36.7585 22.9275 36.7585 22.9275C36.7585 22.9275 36.4851 22.9528 36.3286 22.9Z"
                    fill="#FFE8D4" />
                <path id="Vector_70"
                    d="M36.5036 21.2905C36.3457 21.3389 36.261 21.3128 36.243 21.254C36.225 21.1952 36.2805 21.1261 36.4385 21.0777C36.5964 21.0293 36.869 21.0622 36.869 21.0622C36.869 21.0622 36.6616 21.2421 36.5036 21.2905Z"
                    fill="#FFE8D4" />
                <path id="Vector_71"
                    d="M37.2393 20.0102C37.1454 20.1461 37.0627 20.1781 37.0121 20.1432C36.9616 20.1083 36.9622 20.0196 37.0561 19.8837C37.15 19.7477 37.3842 19.6045 37.3842 19.6045C37.3842 19.6045 37.3332 19.8743 37.2393 20.0102Z"
                    fill="#FFE8D4" />
                <path id="Vector_72"
                    d="M38.1115 18.8372C37.9469 18.8235 37.878 18.7677 37.8831 18.7065C37.8882 18.6452 37.9653 18.6016 38.13 18.6153C38.2946 18.629 38.5356 18.7607 38.5356 18.7607C38.5356 18.7607 38.2762 18.8509 38.1115 18.8372Z"
                    fill="#FFE8D4" />
                <path id="Vector_73"
                    d="M38.6119 19.7139C38.4842 19.8187 38.3959 19.8267 38.3569 19.7791C38.3179 19.7316 38.343 19.6466 38.4707 19.5418C38.5984 19.437 38.863 19.3638 38.863 19.3638C38.863 19.3638 38.7396 19.6091 38.6119 19.7139Z"
                    fill="#FFE8D4" />
                <path id="Vector_74"
                    d="M40.9027 18.5444C40.775 18.6492 40.6867 18.6572 40.6477 18.6097C40.6087 18.5622 40.6338 18.4771 40.7615 18.3723C40.8892 18.2675 41.1538 18.1943 41.1538 18.1943C41.1538 18.1943 41.0304 18.4396 40.9027 18.5444Z"
                    fill="#FFE8D4" />
                <path id="Vector_75"
                    d="M43.5575 25.0845C43.4298 25.1893 43.3415 25.1973 43.3025 25.1497C43.2635 25.1022 43.2886 25.0172 43.4163 24.9124C43.544 24.8076 43.8086 24.7344 43.8086 24.7344C43.8086 24.7344 43.6852 24.9797 43.5575 25.0845Z"
                    fill="#FFE8D4" />
                <path id="Vector_76"
                    d="M42.5679 25.2864C42.5107 25.4414 42.4386 25.4929 42.3809 25.4716C42.3232 25.4503 42.3019 25.3643 42.3591 25.2093C42.4163 25.0543 42.6077 24.8574 42.6077 24.8574C42.6077 24.8574 42.6252 25.1314 42.5679 25.2864Z"
                    fill="#FFE8D4" />
                <path id="Vector_77"
                    d="M35.565 23.9803C35.4721 24.1169 35.3896 24.1494 35.3388 24.1148C35.288 24.0802 35.2881 23.9915 35.3811 23.855C35.4741 23.7185 35.7074 23.5737 35.7074 23.5737C35.7074 23.5737 35.6581 23.8438 35.565 23.9803Z"
                    fill="#FFE8D4" />
                <path id="Vector_78"
                    d="M36.8447 25.382C36.6801 25.3957 36.6029 25.3521 36.5978 25.2908C36.5927 25.2295 36.6616 25.1738 36.8263 25.1601C36.9909 25.1464 37.2503 25.2365 37.2503 25.2365C37.2503 25.2365 37.0093 25.3682 36.8447 25.382Z"
                    fill="#FFE8D4" />
                <path id="Vector_79"
                    d="M41.3451 26.3496C41.3141 26.5119 41.2514 26.5745 41.191 26.563C41.1306 26.5515 41.0955 26.4701 41.1265 26.3078C41.1576 26.1455 41.3141 25.9199 41.3141 25.9199C41.3141 25.9199 41.3762 26.1874 41.3451 26.3496Z"
                    fill="#FFE8D4" />
                <path id="Vector_80"
                    d="M42.1705 26.4384C42.0405 26.3364 42.0136 26.252 42.0516 26.2036C42.0895 26.1552 42.1779 26.1613 42.3079 26.2633C42.4379 26.3653 42.5667 26.6078 42.5667 26.6078C42.5667 26.6078 42.3005 26.5404 42.1705 26.4384Z"
                    fill="#FFE8D4" />
                <path id="Vector_81"
                    d="M39.576 27.1279C39.4483 27.2327 39.36 27.2407 39.321 27.1932C39.2821 27.1457 39.3071 27.0607 39.4348 26.9558C39.5625 26.851 39.8271 26.7778 39.8271 26.7778C39.8271 26.7778 39.7037 27.0231 39.576 27.1279Z"
                    fill="#FFE8D4" />
                <path id="Vector_82"
                    d="M38.1622 26.846C38.1878 27.0092 38.15 27.0894 38.0892 27.0989C38.0284 27.1085 37.9679 27.0438 37.9422 26.8806C37.9166 26.7174 37.9876 26.4521 37.9876 26.4521C37.9876 26.4521 38.1365 26.6828 38.1622 26.846Z"
                    fill="#FFE8D4" />
                <path id="Vector_83"
                    d="M39.0029 26.3702C38.9378 26.5221 38.8632 26.5699 38.8066 26.5457C38.7501 26.5214 38.7332 26.4345 38.7982 26.2826C38.8633 26.1307 39.0644 25.9438 39.0644 25.9438C39.0644 25.9438 39.0679 26.2183 39.0029 26.3702Z"
                    fill="#FFE8D4" />
                <path id="Vector_84"
                    d="M37.9833 25.3326C38.0587 25.1857 38.1365 25.1431 38.1912 25.1712C38.2459 25.1993 38.2568 25.2873 38.1813 25.4342C38.106 25.5812 37.8923 25.7537 37.8923 25.7537C37.8923 25.7537 37.9079 25.4796 37.9833 25.3326Z"
                    fill="#FFE8D4" />
                <path id="Vector_85"
                    d="M40.3852 26.2056C40.311 26.3532 40.2336 26.3963 40.1786 26.3687C40.1237 26.341 40.1121 26.2532 40.1863 26.1056C40.2606 25.958 40.4727 25.7837 40.4727 25.7837C40.4727 25.7837 40.4594 26.058 40.3852 26.2056Z"
                    fill="#FFE8D4" />
                <path id="Vector_86"
                    d="M40.7309 27.5952C40.6031 27.7 40.5148 27.708 40.4758 27.6605C40.4368 27.6129 40.4619 27.5279 40.5896 27.4231C40.7173 27.3183 40.9819 27.2451 40.9819 27.2451C40.9819 27.2451 40.8585 27.4904 40.7309 27.5952Z"
                    fill="#FFE8D4" />
                <path id="Vector_87"
                    d="M36.7155 26.3945C36.5878 26.4993 36.4995 26.5073 36.4606 26.4598C36.4216 26.4123 36.4466 26.3273 36.5743 26.2224C36.702 26.1176 36.9667 26.0444 36.9667 26.0444C36.9667 26.0444 36.8433 26.2897 36.7155 26.3945Z"
                    fill="#FFE8D4" />
                <path id="Vector_88"
                    d="M43.759 22.769C43.6313 22.8738 43.543 22.8818 43.504 22.8343C43.465 22.7867 43.4901 22.7017 43.6178 22.5969C43.7455 22.4921 44.0101 22.4189 44.0101 22.4189C44.0101 22.4189 43.8868 22.6642 43.759 22.769Z"
                    fill="#FFE8D4" />
                <path id="Vector_89"
                    d="M43.0182 17.5673C42.8905 17.6721 42.8022 17.6801 42.7632 17.6326C42.7242 17.5851 42.7493 17.5001 42.877 17.3953C43.0047 17.2905 43.2693 17.2173 43.2693 17.2173C43.2693 17.2173 43.1459 17.4625 43.0182 17.5673Z"
                    fill="#FFE8D4" />
                <path id="Vector_90"
                    d="M42.6851 19.3542C42.5201 19.3623 42.4444 19.3162 42.4414 19.2547C42.4383 19.1934 42.5091 19.14 42.6741 19.1318C42.8391 19.1237 43.0953 19.2225 43.0953 19.2225C43.0953 19.2225 42.8501 19.346 42.6851 19.3542Z"
                    fill="#FFE8D4" />
                <path id="Vector_91"
                    d="M41.875 17.3303C41.9016 17.4934 41.8643 17.5737 41.8036 17.5837C41.7429 17.5936 41.6819 17.5292 41.6553 17.3662C41.6286 17.2031 41.698 16.9375 41.698 16.9375C41.698 16.9375 41.8483 17.1673 41.875 17.3303Z"
                    fill="#FFE8D4" />
                <path id="Vector_92"
                    d="M35.427 20.4155C35.2993 20.5203 35.211 20.5283 35.172 20.4808C35.133 20.4332 35.1581 20.3483 35.2858 20.2434C35.4135 20.1386 35.6781 20.0654 35.6781 20.0654C35.6781 20.0654 35.5547 20.3107 35.427 20.4155Z"
                    fill="#FFE8D4" />
                <path id="Vector_93"
                    d="M36.5443 18.9132C36.5389 19.0784 36.4868 19.15 36.4254 19.148C36.3639 19.146 36.3165 19.0712 36.3218 18.906C36.3272 18.7409 36.4465 18.4937 36.4465 18.4937C36.4465 18.4937 36.5496 18.7481 36.5443 18.9132Z"
                    fill="#FFE8D4" />
                <path id="Vector_94"
                    d="M38.1035 17.9707C37.9758 18.0755 37.8875 18.0835 37.8485 18.036C37.8095 17.9884 37.8346 17.9034 37.9623 17.7986C38.0899 17.6938 38.3546 17.6206 38.3546 17.6206C38.3546 17.6206 38.2312 17.8659 38.1035 17.9707Z"
                    fill="#FFE8D4" />
                <path id="Vector_95"
                    d="M40.0029 17.6778C39.8859 17.7945 39.7988 17.8109 39.7554 17.7674C39.712 17.7239 39.7287 17.6368 39.8457 17.5202C39.9627 17.4035 40.2191 17.3052 40.2191 17.3052C40.2191 17.3052 40.1199 17.5612 40.0029 17.6778Z"
                    fill="#FFE8D4" />
                <path id="Vector_96"
                    d="M43.5228 26.3536C43.4058 26.4703 43.3187 26.4867 43.2753 26.4432C43.2319 26.3997 43.2486 26.3126 43.3656 26.196C43.4826 26.0793 43.739 25.981 43.739 25.981C43.739 25.981 43.6398 26.237 43.5228 26.3536Z"
                    fill="#FFE8D4" />
                <path id="Vector_97"
                    d="M35.8866 25.4141C35.8483 25.5748 35.7829 25.6346 35.7231 25.6203C35.6633 25.6061 35.6318 25.5232 35.6701 25.3625C35.7083 25.2018 35.8747 24.9834 35.8747 24.9834C35.8747 24.9834 35.9249 25.2533 35.8866 25.4141Z"
                    fill="#FFE8D4" />
                <path id="Vector_98"
                    d="M45.2228 23.2244C45.0722 23.2922 44.9848 23.2768 44.9596 23.2208C44.9344 23.1647 44.9808 23.0892 45.1315 23.0214C45.2821 22.9536 45.5567 22.9521 45.5567 22.9521C45.5567 22.9521 45.3735 23.1566 45.2228 23.2244Z"
                    fill="#FFE8D4" />
                <path id="Vector_99"
                    d="M44.8734 24.905C44.9234 25.0624 44.8981 25.1474 44.8395 25.166C44.7809 25.1846 44.7112 25.1298 44.6612 24.9724C44.6112 24.8149 44.6413 24.542 44.6413 24.542C44.6413 24.542 44.8233 24.7475 44.8734 24.905Z"
                    fill="#FFE8D4" />
                <path id="Vector_100"
                    d="M44.861 19.6212C44.9573 19.487 45.0405 19.4565 45.0904 19.4924C45.1404 19.5282 45.1381 19.6169 45.0417 19.751C44.9454 19.8852 44.7086 20.0242 44.7086 20.0242C44.7086 20.0242 44.7646 19.7554 44.861 19.6212Z"
                    fill="#FFE8D4" />
                <path id="Vector_101"
                    d="M45.3244 21.1197C45.2074 21.2364 45.1203 21.2528 45.0769 21.2093C45.0335 21.1658 45.0503 21.0787 45.1673 20.9621C45.2843 20.8454 45.5406 20.7471 45.5406 20.7471C45.5406 20.7471 45.4414 21.0031 45.3244 21.1197Z"
                    fill="#FFE8D4" />
            </g>
            <g id="Group_15">
                <g id="Group_16">
                    <path id="Vector_102"
                        d="M6.75302 32.1617C7.16721 32.0346 7.55086 32.0877 7.67054 32.4778C7.79022 32.868 7.50238 33.1271 7.08819 33.2542C6.674 33.3813 6.29995 33.3594 6.17067 32.938C6.04614 32.5322 6.33883 32.2887 6.75302 32.1617Z"
                        fill="#EED28D" />
                    <path id="Vector_103"
                        d="M6.17859 32.5767C6.28058 32.4846 6.42318 32.4148 6.58655 32.3647C6.97301 32.2461 7.33101 32.2957 7.44269 32.6597C7.50761 32.8714 7.44347 33.0414 7.3029 33.1702C7.59473 33.0268 7.76813 32.796 7.67055 32.4778C7.55082 32.0877 7.16722 32.0346 6.75303 32.1617C6.48071 32.2452 6.26185 32.3795 6.17859 32.5767Z"
                        fill="#D8A861" />
                    <path id="Vector_104"
                        d="M6.17096 32.939C6.24466 32.9063 6.31862 32.8744 6.39358 32.8449C6.43592 32.8285 6.4781 32.8117 6.52001 32.7943L6.64782 32.7476C6.73234 32.7147 6.8191 32.6881 6.905 32.6593C7.07758 32.6037 7.25284 32.5573 7.42949 32.5158C7.5079 32.4967 7.58718 32.4816 7.66673 32.4676C7.66305 32.4563 7.65885 32.4458 7.65475 32.4351C7.57611 32.4431 7.49765 32.4537 7.41971 32.4667C7.23865 32.4969 7.06032 32.5424 6.88515 32.5971C6.71131 32.6557 6.53818 32.7179 6.37347 32.7988C6.3015 32.831 6.23212 32.8685 6.16235 32.905C6.16516 32.916 6.16716 32.9267 6.17062 32.938C6.17075 32.9383 6.17087 32.9386 6.17096 32.939Z"
                        fill="#AA6A35" />
                    <path id="Vector_105"
                        d="M6.76687 32.3063C6.967 32.2433 7.14974 32.2578 7.17496 32.3386C7.20018 32.4195 7.01272 32.3897 6.81254 32.4526C6.61237 32.5156 6.47539 32.6475 6.45017 32.5667C6.42495 32.4859 6.56674 32.3692 6.76687 32.3063Z"
                        fill="#FBF0C1" />
                    <path id="Vector_106"
                        d="M6.92009 32.78C7.1207 32.7184 7.30738 32.7471 7.33709 32.844C7.36681 32.9408 7.22264 33.0507 7.02204 33.1123C6.82147 33.1738 6.64042 33.1637 6.6107 33.0668C6.58099 32.9699 6.71949 32.8415 6.92009 32.78Z"
                        fill="#FBF0C1" />
                </g>
                <g id="Group_17">
                    <path id="Vector_107"
                        d="M6.81535 30.321C7.18572 30.3935 7.4586 30.5919 7.39026 30.9408C7.32192 31.2897 6.99432 31.3705 6.62395 31.2979C6.25358 31.2254 5.9752 31.0549 6.04904 30.6781C6.12014 30.3152 6.44502 30.2484 6.81535 30.321Z"
                        fill="#EED28D" />
                    <path id="Vector_108"
                        d="M6.20361 30.4036C6.31983 30.3748 6.45803 30.3797 6.60409 30.4083C6.94968 30.476 7.20431 30.6611 7.14055 30.9867C7.10349 31.176 6.98433 31.2802 6.82343 31.3214C7.10647 31.3312 7.33459 31.2251 7.3903 30.9406C7.45864 30.5917 7.18575 30.3933 6.81538 30.3207C6.57191 30.2731 6.3486 30.2863 6.20361 30.4036Z"
                        fill="#D8A861" />
                    <path id="Vector_109"
                        d="M6.04907 30.679C6.11914 30.6842 6.18904 30.6901 6.25876 30.6982C6.29804 30.703 6.33731 30.7075 6.37662 30.7113L6.49401 30.728C6.57243 30.7374 6.65002 30.7527 6.72784 30.7658C6.88324 30.794 7.03696 30.8303 7.18969 30.871C7.25777 30.8886 7.3249 30.9096 7.39176 30.9315C7.39358 30.9213 7.39471 30.9115 7.39596 30.9016C7.33225 30.8754 7.26763 30.8514 7.20241 30.8293C7.05094 30.7782 6.89527 30.7398 6.73822 30.7099C6.5806 30.6835 6.42208 30.6601 6.26226 30.6546C6.19375 30.6498 6.12502 30.6501 6.05647 30.6494C6.05409 30.6591 6.05119 30.6681 6.04925 30.6782C6.04912 30.6785 6.04912 30.6787 6.04907 30.679Z"
                        fill="#AA6A35" />
                    <path id="Vector_110"
                        d="M6.76663 30.4375C6.94626 30.4713 7.08064 30.5575 7.0668 30.63C7.05296 30.7024 6.92121 30.6025 6.74159 30.5687C6.56196 30.5348 6.40253 30.5799 6.41637 30.5074C6.43021 30.4349 6.58704 30.4036 6.76663 30.4375Z"
                        fill="#FBF0C1" />
                    <path id="Vector_111"
                        d="M6.68958 30.8645C6.86895 30.8996 7.00061 30.9984 6.98361 31.085C6.96666 31.1717 6.81073 31.1968 6.63137 31.1617C6.452 31.1266 6.31709 31.0444 6.33409 30.9578C6.35104 30.8711 6.51021 30.8294 6.68958 30.8645Z"
                        fill="#FBF0C1" />
                </g>
                <g id="Group_18">
                    <path id="Vector_112"
                        d="M3.01903 32.7586C3.48958 32.7719 3.86601 32.96 3.85346 33.4033C3.84092 33.8465 3.4545 34.013 2.98395 33.9997C2.51341 33.9864 2.13598 33.8338 2.14952 33.3551C2.16259 32.8941 2.54853 32.7453 3.01903 32.7586Z"
                        fill="#EED28D" />
                    <path id="Vector_113"
                        d="M2.28345 32.986C2.42052 32.9267 2.59158 32.9044 2.77709 32.9097C3.21615 32.9221 3.5674 33.0976 3.55568 33.5112C3.54889 33.7516 3.42367 33.9043 3.23418 33.988C3.58444 33.942 3.84327 33.7646 3.85347 33.4033C3.86602 32.96 3.48959 32.7719 3.01904 32.7586C2.70974 32.7498 2.43773 32.812 2.28345 32.986Z"
                        fill="#D8A861" />
                    <path id="Vector_114"
                        d="M2.14946 33.3564C2.2367 33.3484 2.3239 33.3412 2.41135 33.3369C2.46066 33.3348 2.50989 33.3322 2.55906 33.3289L2.70686 33.3253C2.8053 33.3208 2.90387 33.3237 3.00227 33.3239C3.19924 33.3266 3.39578 33.3399 3.59202 33.3586C3.67939 33.3662 3.76625 33.3783 3.85301 33.3916C3.85318 33.3787 3.85249 33.3663 3.85201 33.3539C3.76828 33.3348 3.68381 33.3185 3.59912 33.3047C3.40223 33.2728 3.20288 33.2575 3.00353 33.2529C2.80422 33.2528 2.60439 33.2566 2.40664 33.2826C2.32139 33.2906 2.23692 33.3052 2.1524 33.3184C2.15145 33.3307 2.14976 33.3425 2.14941 33.3553C2.14941 33.3556 2.14946 33.356 2.14946 33.3564Z"
                        fill="#AA6A35" />
                    <path id="Vector_115"
                        d="M2.98299 32.9119C3.21093 32.9167 3.39394 32.9951 3.39177 33.0871C3.38961 33.1791 3.207 33.0832 2.9791 33.0784C2.75116 33.0736 2.56426 33.1617 2.56642 33.0697C2.56854 32.9777 2.75505 32.9071 2.98299 32.9119Z"
                        fill="#FBF0C1" />
                    <path id="Vector_116"
                        d="M2.97603 33.4535C3.20389 33.4599 3.38611 33.5544 3.383 33.6644C3.37988 33.7745 3.19325 33.8374 2.96535 33.831C2.73745 33.8245 2.55466 33.7511 2.55778 33.6411C2.56089 33.531 2.74818 33.447 2.97603 33.4535Z"
                        fill="#FBF0C1" />
                </g>
                <g id="Group_19">
                    <path id="Vector_117"
                        d="M4.89353 31.0614C5.39521 31.1802 5.75715 31.4656 5.64522 31.9382C5.53328 32.4108 5.08181 32.5035 4.58012 32.3847C4.07843 32.2659 3.70754 32.0184 3.82843 31.5079C3.94486 31.0164 4.39184 30.9426 4.89353 31.0614Z"
                        fill="#EED28D" />
                    <path id="Vector_118"
                        d="M4.05408 31.142C4.21424 31.1087 4.40265 31.1229 4.60049 31.1698C5.06861 31.2806 5.40633 31.5469 5.30192 31.9879C5.24119 32.2443 5.07303 32.3802 4.85118 32.4279C5.23704 32.4563 5.55404 32.3236 5.6453 31.9383C5.75724 31.4657 5.3953 31.1804 4.89361 31.0616C4.56373 30.9834 4.25823 30.9896 4.05408 31.142Z"
                        fill="#D8A861" />
                    <path id="Vector_119"
                        d="M3.82825 31.5094C3.92362 31.5202 4.01873 31.5319 4.11346 31.5467C4.16683 31.5554 4.2202 31.5635 4.27366 31.5709L4.433 31.5998C4.53958 31.6169 4.64464 31.6419 4.75018 31.664C4.96082 31.7107 5.16869 31.7685 5.37501 31.8323C5.467 31.8598 5.55749 31.8921 5.64758 31.9256C5.65061 31.9118 5.65264 31.8984 5.65489 31.8849C5.56934 31.8458 5.48236 31.8095 5.39456 31.7759C5.19049 31.698 4.98006 31.6373 4.76726 31.5881C4.55351 31.5436 4.33837 31.5033 4.12055 31.4873C4.02729 31.477 3.93348 31.4738 3.83993 31.4692C3.83616 31.4823 3.83175 31.4945 3.82851 31.5082C3.82838 31.5086 3.82838 31.509 3.82825 31.5094Z"
                        fill="#AA6A35" />
                    <path id="Vector_120"
                        d="M4.82086 31.2181C5.06424 31.2739 5.24309 31.3988 5.22034 31.497C5.19759 31.5951 5.02307 31.4517 4.77968 31.396C4.5363 31.3402 4.31627 31.3931 4.33902 31.2949C4.36173 31.1967 4.57748 31.1624 4.82086 31.2181Z"
                        fill="#FBF0C1" />
                    <path id="Vector_121"
                        d="M4.69293 31.7967C4.93588 31.8542 5.11032 31.996 5.08255 32.1134C5.05478 32.2307 4.84059 32.2568 4.5976 32.1992C4.35465 32.1417 4.17489 32.0224 4.20266 31.905C4.23043 31.7876 4.44998 31.7391 4.69293 31.7967Z"
                        fill="#FBF0C1" />
                </g>
                <g id="Group_20">
                    <path id="Vector_122"
                        d="M5.48327 34.7951C5.85014 34.3908 5.90881 33.8464 5.61432 33.5792C5.31983 33.312 4.7837 33.4232 4.41683 33.8275C4.04997 34.2318 3.99129 34.7762 4.28578 35.0434C4.58027 35.3106 5.11641 35.1995 5.48327 34.7951Z"
                        fill="#EED28D" />
                    <path id="Vector_123"
                        d="M4.05862 34.6444C4.10979 34.4789 4.2193 34.3115 4.36398 34.152C4.70629 33.7748 5.12592 33.5979 5.48133 33.9203C5.68794 34.1078 5.72791 34.3333 5.65858 34.5633C5.88241 34.2202 5.9216 33.8584 5.61104 33.5766C5.23016 33.231 4.78042 33.4206 4.41359 33.8249C4.17242 34.0908 4.02181 34.3771 4.05862 34.6444Z"
                        fill="#D8A861" />
                    <path id="Vector_124"
                        d="M4.28371 35.0417C4.34249 34.9589 4.40205 34.8767 4.46425 34.7965C4.49959 34.7514 4.53445 34.7061 4.56866 34.6603L4.67701 34.5274C4.74738 34.4373 4.82429 34.3527 4.89877 34.2661C5.04989 34.0948 5.20988 33.9317 5.37446 33.773C5.44708 33.7018 5.52329 33.6344 5.60046 33.5681C5.58921 33.5582 5.57788 33.5495 5.5665 33.5405C5.48648 33.5998 5.40837 33.6619 5.33229 33.7261C5.1556 33.8754 4.99172 34.0394 4.83718 34.2116C4.68661 34.3869 4.53912 34.5658 4.41278 34.7595C4.35556 34.8407 4.3046 34.926 4.25244 35.0104C4.26261 35.0206 4.27164 35.0309 4.28267 35.0409C4.28306 35.0412 4.28341 35.0414 4.28371 35.0417Z"
                        fill="#AA6A35" />
                    <path id="Vector_125"
                        d="M4.52165 33.9726C4.69791 33.7755 4.90513 33.6736 4.9845 33.7449C5.06387 33.8162 4.84164 33.9047 4.66538 34.1017C4.48913 34.2988 4.42563 34.5299 4.34627 34.4586C4.2669 34.3873 4.3454 34.1697 4.52165 33.9726Z"
                        fill="#FBF0C1" />
                    <path id="Vector_126"
                        d="M4.99279 34.3871C5.17043 34.1913 5.39115 34.1021 5.4857 34.1879C5.58029 34.2737 5.49483 34.4856 5.31719 34.6814C5.13955 34.8772 4.93691 34.9828 4.84236 34.897C4.74781 34.8112 4.81515 34.5829 4.99279 34.3871Z"
                        fill="#FBF0C1" />
                </g>
            </g>
            <g id="Group_21">
                <path id="Vector_127"
                    d="M44.3334 30.5802C44.3334 32.6482 41.3105 34.3987 36.326 35.6923C33.9803 36.3011 30.9224 37.0435 28.0498 37.2379C17.3429 37.9576 11.7648 36.3208 11.7648 33.2782C11.7648 31.6764 14.0392 30.5073 17.305 29.2213C17.5236 29.1333 17.7468 29.0467 17.973 28.9602C18.4998 28.7583 19.016 28.4728 19.5474 28.1767C20.4341 27.6833 21.3618 27.158 22.4534 26.9333C23.4707 26.7238 24.4788 26.7192 25.531 26.7313C26.2825 26.7389 27.0584 26.7571 27.8767 26.7146C28.2487 26.6949 28.6343 26.6281 29.0215 26.5446C29.8353 26.373 30.6567 26.1361 31.3779 26.1392C32.2934 26.1437 33.212 26.3639 34.0759 26.5385C34.4797 26.6189 34.873 26.6888 35.2464 26.7222C35.6548 26.7587 36.0436 26.7587 36.417 26.748C37.2324 26.7268 37.9779 26.6584 38.7021 26.8103C42.2397 27.5528 44.3334 28.8737 44.3334 30.5802Z"
                    fill="#AF6A48" />
                <path id="Vector_128"
                    d="M20.6709 32.1106C19.6081 30.8945 17.3747 29.2714 17.3048 29.2214C17.5235 29.1333 17.7466 29.0467 17.9729 28.9602C18.4997 28.7583 19.0159 28.4728 19.5473 28.1768C21.6608 30.6318 21.7504 33.3465 20.6709 32.1106Z"
                    fill="#DB8F65" />
                <path id="Vector_129"
                    d="M29.489 30.4889C27.6899 28.7793 25.5309 26.7312 25.5309 26.7312C26.2824 26.7388 27.0583 26.757 27.8766 26.7145C28.2486 26.6948 28.6342 26.628 29.0214 26.5444L29.0229 26.5459C30.7158 28.4499 31.2882 32.1986 29.489 30.4889Z"
                    fill="#DB8F65" />
                <path id="Vector_130"
                    d="M36.9559 29.6829C36.3258 28.608 34.0757 26.5386 34.0757 26.5386C34.4795 26.619 34.8728 26.6889 35.2463 26.7223C35.6547 26.7587 36.0434 26.7587 36.4169 26.7481C37.6786 28.3149 37.5859 30.7593 36.9559 29.6829Z"
                    fill="#DB8F65" />
                <path id="Vector_131"
                    d="M28.0498 37.2378C30.9224 37.0435 33.9802 36.3011 36.3259 35.6922C41.3104 34.3987 44.3333 32.6481 44.3333 30.5802C44.3333 30.3632 44.2991 30.1524 44.2327 29.9482C36.349 34.7857 24.6853 35.653 19.3276 34.9881C12.2589 34.1109 15.1038 30.1529 15.1038 30.1529C13.0622 31.1056 11.7646 32.0685 11.7646 33.2781C11.7646 36.3208 17.3428 37.9575 28.0498 37.2378Z"
                    fill="#93563B" />
            </g>
            <g id="Group_22">
                <g id="Group_23">
                    <g id="Group_24">
                        <path id="Vector_132"
                            d="M9.94312 32.5791C10.4659 34.2193 12.5445 33.8687 12.5234 32.1616C12.8995 32.1008 13.2757 32.0399 13.6518 31.979C13.9042 35.1637 9.58191 35.8726 8.8147 32.7618C9.19082 32.7009 9.56695 32.64 9.94312 32.5791Z"
                            fill="#FDCB81" />
                    </g>
                    <path id="Vector_133"
                        d="M13.5132 32.0015C13.492 34.8144 9.86171 35.4096 8.95323 32.7393C8.90704 32.7468 8.86089 32.7543 8.8147 32.7618C9.58191 35.8726 13.9042 35.1637 13.6518 31.979C13.6056 31.9865 13.5594 31.994 13.5132 32.0015Z"
                        fill="#DDAB68" />
                    <path id="Vector_134"
                        d="M13.6518 31.979C13.679 32.1472 13.4485 32.3243 13.1369 32.3747C12.8253 32.4251 12.5506 32.3297 12.5234 32.1616C12.4962 31.9935 12.7268 31.8164 13.0384 31.7659C13.35 31.7155 13.6247 31.8109 13.6518 31.979Z"
                        fill="#C69355" />
                    <path id="Vector_135"
                        d="M13.0739 31.9852C13.3137 31.9463 13.5312 31.9942 13.6312 32.0948C13.6501 32.0569 13.6581 32.0177 13.6518 31.979C13.6246 31.8109 13.35 31.7155 13.0384 31.7659C12.7268 31.8163 12.4962 31.9935 12.5234 32.1616C12.5297 32.2003 12.5495 32.2349 12.5795 32.265C12.6427 32.138 12.834 32.024 13.0739 31.9852Z"
                        fill="#DDAB68" />
                    <path id="Vector_136"
                        d="M9.94322 32.5791C9.97043 32.7472 9.73985 32.9244 9.42825 32.9748C9.11666 33.0252 8.84201 32.9298 8.8148 32.7617C8.7876 32.5936 9.01813 32.4165 9.32977 32.366C9.64141 32.3156 9.91602 32.411 9.94322 32.5791Z"
                        fill="#C69355" />
                    <path id="Vector_137"
                        d="M9.36511 32.5853C9.60499 32.5465 9.82246 32.5943 9.92251 32.6949C9.94141 32.6569 9.94937 32.6178 9.9431 32.5791C9.91589 32.411 9.64123 32.3156 9.32964 32.366C9.01805 32.4164 8.78747 32.5936 8.81468 32.7617C8.82095 32.8004 8.8408 32.835 8.87073 32.8651C8.93397 32.7381 9.12523 32.6241 9.36511 32.5853Z"
                        fill="#DDAB68" />
                    <path id="Vector_138"
                        d="M11.2877 33.7292C11.252 33.828 11.6379 33.9091 12.1092 33.6259C12.533 33.3713 12.6856 32.7162 12.6274 32.6118C12.5691 32.5075 12.3551 33.3126 11.9181 33.5222C11.5228 33.7118 11.2877 33.7292 11.2877 33.7292Z"
                        fill="#FFD69F" />
                </g>
                <g id="Group_25">
                    <g id="Group_26">
                        <path id="Vector_139"
                            d="M9.96127 35.0831C9.54341 36.7531 11.4957 37.5479 12.3756 36.0848C12.7275 36.2308 13.0794 36.3769 13.4314 36.5229C11.9713 39.3645 7.92212 37.6945 8.90543 34.645C9.25738 34.791 9.60933 34.9371 9.96127 35.0831Z"
                            fill="#FDCB81" />
                    </g>
                    <path id="Vector_140"
                        d="M13.3017 36.4691C11.8044 38.8506 8.40362 37.4477 9.03507 34.6988C8.99186 34.6809 8.94865 34.6629 8.90544 34.645C7.92209 37.6945 11.9713 39.3645 13.4314 36.5229C13.3882 36.505 13.3449 36.4871 13.3017 36.4691Z"
                        fill="#DDAB68" />
                    <path id="Vector_141"
                        d="M13.4314 36.5227C13.3661 36.68 13.0769 36.7094 12.7853 36.5885C12.4938 36.4675 12.3103 36.2419 12.3756 36.0846C12.4409 35.9273 12.7302 35.8979 13.0217 36.0189C13.3132 36.1398 13.4967 36.3654 13.4314 36.5227Z"
                        fill="#C69355" />
                    <path id="Vector_142"
                        d="M12.9364 36.224C13.1609 36.3171 13.3207 36.4721 13.3529 36.6104C13.3889 36.588 13.4163 36.5589 13.4313 36.5227C13.4966 36.3654 13.3131 36.1398 13.0216 36.0188C12.73 35.8979 12.4408 35.9273 12.3755 36.0846C12.3605 36.1208 12.3592 36.1607 12.3688 36.202C12.4894 36.1272 12.712 36.1308 12.9364 36.224Z"
                        fill="#DDAB68" />
                    <path id="Vector_143"
                        d="M9.96131 35.0828C9.89605 35.2401 9.60677 35.2695 9.31525 35.1485C9.02373 35.0275 8.84025 34.802 8.90552 34.6447C8.97078 34.4874 9.26006 34.4579 9.55158 34.5789C9.84315 34.6999 10.0266 34.9255 9.96131 35.0828Z"
                        fill="#C69355" />
                    <path id="Vector_144"
                        d="M9.46647 34.784C9.69091 34.8771 9.85073 35.0322 9.88291 35.1704C9.91894 35.148 9.94628 35.119 9.96133 35.0828C10.0266 34.9254 9.84316 34.6999 9.55159 34.5789C9.26003 34.4579 8.9708 34.4874 8.90553 34.6446C8.89052 34.6809 8.88922 34.7208 8.89882 34.7621C9.01941 34.6873 9.24203 34.6909 9.46647 34.784Z"
                        fill="#DDAB68" />
                    <path id="Vector_145"
                        d="M10.5002 36.7682C10.4178 36.8335 10.7035 37.1053 11.2533 37.1124C11.7476 37.1187 12.2219 36.6417 12.2272 36.5223C12.2325 36.4029 11.6271 36.9752 11.1452 36.9237C10.7093 36.877 10.5002 36.7682 10.5002 36.7682Z"
                        fill="#FFD69F" />
                </g>
                <g id="Group_27">
                    <g id="Group_28">
                        <path id="Vector_146"
                            d="M14.9018 33.8939C14.0955 35.4149 15.8002 36.6548 17.0053 35.4455C17.3119 35.6717 17.6185 35.8979 17.9252 36.1241C15.8261 38.5324 12.2958 35.9398 13.9819 33.2153C14.2886 33.4415 14.5952 33.6677 14.9018 33.8939Z"
                            fill="#FDCB81" />
                    </g>
                    <path id="Vector_147"
                        d="M17.8121 36.0408C15.7872 37.9936 12.8222 35.8159 14.0947 33.2986C14.0571 33.2709 14.0195 33.2431 13.9818 33.2153C12.2956 35.9398 15.826 38.5324 17.925 36.1241C17.8874 36.0964 17.8497 36.0686 17.8121 36.0408Z"
                        fill="#DDAB68" />
                    <path id="Vector_148"
                        d="M17.9251 36.1244C17.824 36.2614 17.5361 36.2206 17.2821 36.0332C17.0281 35.8459 16.9041 35.5829 17.0052 35.4458C17.1063 35.3088 17.3942 35.3496 17.6482 35.537C17.9022 35.7243 18.0262 35.9873 17.9251 36.1244Z"
                        fill="#C69355" />
                    <path id="Vector_149"
                        d="M17.5163 35.7157C17.7119 35.8599 17.8298 36.0488 17.8279 36.1907C17.8683 36.1776 17.9018 36.1559 17.925 36.1244C18.0261 35.9874 17.9022 35.7243 17.6481 35.537C17.3941 35.3496 17.1062 35.3088 17.0051 35.4458C16.9819 35.4774 16.9711 35.5158 16.9705 35.5583C17.1055 35.5145 17.3208 35.5715 17.5163 35.7157Z"
                        fill="#DDAB68" />
                    <path id="Vector_150"
                        d="M14.9018 33.8939C14.8007 34.0309 14.5128 33.9901 14.2588 33.8028C14.0047 33.6154 13.8808 33.3524 13.9819 33.2154C14.0829 33.0783 14.3708 33.1191 14.6249 33.3065C14.8789 33.4939 15.0029 33.7568 14.9018 33.8939Z"
                        fill="#C69355" />
                    <path id="Vector_151"
                        d="M14.493 33.4852C14.6885 33.6294 14.8065 33.8183 14.8046 33.9602C14.8449 33.9472 14.8785 33.9255 14.9017 33.8939C15.0028 33.7569 14.8788 33.4939 14.6248 33.3065C14.3708 33.1191 14.0829 33.0783 13.9818 33.2154C13.9586 33.2469 13.9477 33.2854 13.9471 33.3278C14.0822 33.284 14.2974 33.3409 14.493 33.4852Z"
                        fill="#DDAB68" />
                    <path id="Vector_152"
                        d="M15.0205 35.6592C14.9249 35.7028 15.137 36.0353 15.6691 36.174C16.1474 36.2987 16.7224 35.9494 16.7561 35.8347C16.7899 35.7201 16.0649 36.1305 15.6095 35.9648C15.1974 35.815 15.0205 35.6592 15.0205 35.6592Z"
                        fill="#FFD69F" />
                </g>
            </g>
        </g>
    </g>
</svg>
