<svg width="47" height="48" viewBox="0 0 47 48" fill="none" xmlns="http://www.w3.org/2000/svg">
    <g id="Group 2">
        <path id="Vector" opacity="0.2"
            d="M12.8253 7.53147C10.0473 9.23961 7.00838 12.3092 5.89017 15.6097C4.81246 18.7906 3.31581 25.2793 3.74059 27.7775C4.16536 30.2757 5.32275 35.2093 7.99273 37.9022C10.6627 40.5951 26.085 43.0196 30.0206 41.853C33.9563 40.6864 40.252 35.8574 41.0409 33.5888C41.8298 31.3202 44.4565 22.1005 42.1344 15.637C41.0147 12.5204 36.7289 7.92358 33.3403 6.25239C29.9518 4.58121 20.7892 4.89455 17.9594 5.4168C15.1297 5.93905 13.9727 6.82599 12.8253 7.53147Z"
            fill="#FB8C00" />
        <g id="Group">
            <g id="Group_2">
                <path id="Vector_2"
                    d="M22.5951 25.6275C22.5951 25.6275 23.5464 24.4553 25.7417 23.6504C25.7417 23.6504 38.9136 23.0961 44.2311 24.0162L41.548 25.7725L22.5951 25.6275Z"
                    fill="#F2CD70" />
                <path id="Vector_3"
                    d="M41.5481 33.0901C41.5481 33.0901 43.245 32.0688 44.2694 31.0443C44.2694 31.0443 44.6703 24.6015 44.2312 24.0161C44.2312 24.0161 41.8408 25.3333 41.5481 25.7724C41.2553 26.2114 41.5481 33.0901 41.5481 33.0901Z"
                    fill="#EAC55E" />
                <path id="Vector_4"
                    d="M22.5951 25.6276C21.8431 25.9499 22.156 31.6268 22.3024 32.5049C22.4487 33.383 40.8894 33.3098 41.548 33.0903C41.548 33.0903 41.9871 26.1385 41.548 25.7726C41.1089 25.4067 24.1318 24.969 22.5951 25.6276Z"
                    fill="#FFE285" />
                <path id="Vector_5"
                    d="M23.1073 25.9124C22.17 26.0909 23.1072 26.7905 23.9854 26.8637C24.8635 26.9369 38.1086 27.3091 38.4745 26.7237C38.5522 26.5994 38.9105 26.1502 37.9357 26.0291C34.3197 25.5799 24.3177 25.6819 23.1073 25.9124Z"
                    fill="#FFE7A4" />
            </g>
            <g id="Group_3">
                <path id="Vector_6"
                    d="M39.3328 41.9026C40.323 41.0383 40.6184 39.7565 39.9926 39.0395C39.3668 38.3225 38.0568 38.4419 37.0666 39.3062C36.0764 40.1705 35.781 41.4523 36.4068 42.1693C37.0326 42.8863 38.3427 42.7669 39.3328 41.9026Z"
                    fill="#472F2C" />
                <path id="Vector_7"
                    d="M40.3108 39.8599C40.1687 40.332 39.8631 40.8099 39.414 41.2019C38.4238 42.0662 37.1139 42.1856 36.4881 41.4686C36.2896 41.2413 36.1842 40.9572 36.1637 40.6476C35.9925 41.2164 36.0588 41.7768 36.4008 42.1686C37.0266 42.8856 38.3366 42.7661 39.3267 41.9019C40.0029 41.3116 40.3548 40.5267 40.3108 39.8599Z"
                    fill="#2D1C1B" />
                <path id="Vector_8"
                    d="M39.9813 39.6671C39.8609 39.7722 39.625 39.6988 39.4543 39.5033C39.2836 39.3078 39.2429 39.0641 39.3632 38.9591C39.4836 38.854 39.7195 38.9274 39.8902 39.1229C40.0609 39.3184 40.1017 39.562 39.9813 39.6671Z"
                    fill="#2D1C1B" />
                <path id="Vector_9"
                    d="M38.1873 40.0419C37.8608 40.2678 37.4653 40.2617 37.3038 40.0283C37.1424 39.7949 37.2762 39.4226 37.6027 39.1967C37.9292 38.9709 38.3247 38.977 38.4862 39.2104C38.6476 39.4438 38.5138 39.8161 38.1873 40.0419Z"
                    fill="#60403E" />
            </g>
            <g id="Group_4">
                <path id="Vector_10"
                    d="M44.1154 40.6941C45.1695 39.909 45.5632 38.6539 44.9948 37.8907C44.4263 37.1275 43.111 37.1451 42.057 37.9301C41.0029 38.7152 40.6092 39.9703 41.1777 40.7335C41.7461 41.4968 43.0614 41.4791 44.1154 40.6941Z"
                    fill="#92A544" />
                <path id="Vector_11"
                    d="M45.2584 38.7354C45.0802 39.1951 44.7386 39.6479 44.2604 40.0039C43.2064 40.7889 41.8911 40.8066 41.3226 40.0434C41.1424 39.8014 41.0592 39.5099 41.0628 39.1996C40.8481 39.7535 40.8708 40.3174 41.1814 40.7345C41.7498 41.4977 43.0652 41.4801 44.1192 40.695C44.8392 40.1589 45.2507 39.4036 45.2584 38.7354Z"
                    fill="#7D8937" />
                <path id="Vector_12"
                    d="M44.9447 38.5172C44.8166 38.6127 44.587 38.5213 44.432 38.3131C44.277 38.1049 44.2551 37.8588 44.3833 37.7634C44.5114 37.668 44.741 37.7594 44.896 37.9675C45.051 38.1757 45.0728 38.4218 44.9447 38.5172Z"
                    fill="#6B722B" />
                <path id="Vector_13"
                    d="M43.1272 38.7526C42.7841 38.9525 42.3902 38.9158 42.2473 38.6706C42.1045 38.4254 42.2667 38.0646 42.6097 37.8647C42.9527 37.6648 43.3466 37.7015 43.4895 37.9467C43.6324 38.1919 43.4702 38.5527 43.1272 38.7526Z"
                    fill="#B6C659" />
            </g>
            <g id="Group_5">
                <path id="Vector_14"
                    d="M40.7192 37.4467C42.028 37.3268 43.0186 36.4614 42.9318 35.5138C42.845 34.5661 41.7137 33.895 40.4049 34.0149C39.0961 34.1348 38.1055 35.0002 38.1923 35.9478C38.2791 36.8955 39.4104 37.5666 40.7192 37.4467Z"
                    fill="#472F2C" />
                <path id="Vector_15"
                    d="M42.7198 36.3727C42.3279 36.672 41.8002 36.8801 41.2066 36.9344C39.8978 37.0542 38.7664 36.3831 38.6796 35.4354C38.6521 35.135 38.7332 34.8429 38.8981 34.5801C38.426 34.9406 38.1512 35.4335 38.1986 35.9514C38.2854 36.8991 39.4168 37.5702 40.7256 37.4504C41.6194 37.3685 42.3646 36.9388 42.7198 36.3727Z"
                    fill="#2D1C1B" />
                <path id="Vector_16"
                    d="M42.566 36.0237C42.4069 36.0382 42.2587 35.8405 42.235 35.582C42.2114 35.3236 42.3211 35.1023 42.4802 35.0877C42.6394 35.0731 42.7875 35.2708 42.8112 35.5293C42.8348 35.7877 42.725 36.0091 42.566 36.0237Z"
                    fill="#2D1C1B" />
                <path id="Vector_17"
                    d="M40.8926 35.2757C40.4957 35.2674 40.1788 35.0306 40.1848 34.7468C40.1907 34.4631 40.5174 34.2399 40.9143 34.2483C41.3112 34.2567 41.6281 34.4935 41.6222 34.7772C41.6161 35.0609 41.2895 35.2841 40.8926 35.2757Z"
                    fill="#60403E" />
            </g>
            <g id="Group_6">
                <path id="Vector_18"
                    d="M7.29829 9.87257V5.98291H3.76751V9.87257C3.76751 11.1558 3.40335 12.4128 2.71743 13.4974L1.64521 15.1928C1.00596 16.2035 0.666626 17.3748 0.666626 18.5707V39.2039C0.666626 39.6572 0.919846 40.0728 1.32265 40.2807C3.96223 41.6437 7.1036 41.6437 9.74319 40.2807C10.146 40.0728 10.3992 39.6572 10.3992 39.2039V18.5707C10.3992 17.3748 10.0599 16.2034 9.42062 15.1927L8.34841 13.4974C7.66239 12.4128 7.29829 11.1559 7.29829 9.87257Z"
                    fill="#F4E9E6" />
                <path id="Vector_19"
                    d="M1.41663 21.3042V38.4776C1.41663 38.8611 1.63081 39.2126 1.97151 39.3886C4.20425 40.5414 6.8614 40.5414 9.09419 39.3886C9.4349 39.2126 9.64908 38.8611 9.64908 38.4776V21.3042H1.41663Z"
                    fill="#F2CD70" />
                <path id="Vector_20"
                    d="M1.8132 20.7852C1.81154 21.1136 1.80991 21.4602 1.80908 21.8216C1.55717 21.6644 1.41638 21.489 1.41638 21.3046C1.41638 21.1186 1.5588 20.9424 1.8132 20.7852Z"
                    fill="#FFE285" />
                <path id="Vector_21"
                    d="M9.64877 21.3046C9.64877 21.9738 7.80635 22.5164 5.53255 22.5164C4.83445 22.5164 4.17667 22.4653 3.6012 22.3748V20.2344C4.17663 20.1438 4.83441 20.0928 5.53255 20.0928C7.80635 20.0927 9.64877 20.6353 9.64877 21.3046Z"
                    fill="#FFE285" />
                <path id="Vector_22"
                    d="M3.35729 14.4717C2.73596 14.5371 2.08891 16.5206 1.89374 17.4476C1.71175 18.312 1.86919 35.7662 1.89128 38.1155C1.89334 38.3344 1.97533 38.5464 2.12908 38.7022C2.13326 38.7064 2.13748 38.7106 2.14174 38.7148C2.68248 39.2478 3.6012 38.8483 3.6012 38.0891V18.033C3.6012 17.2524 4.28419 14.3741 3.35729 14.4717Z"
                    fill="#FFE7A4" />
                <path id="Vector_23"
                    d="M3.60121 27.3813V29.4181C3.35422 29.2838 3.20522 29.2048 2.96074 29.0805C2.92205 29.0599 2.90888 29.0106 2.93356 28.9743C3.07185 28.7685 3.16077 28.6401 3.32625 28.3997C3.16077 28.1593 3.07189 28.03 2.93356 27.825C2.90888 27.7888 2.92205 27.7386 2.96074 27.7188C3.20522 27.5938 3.35422 27.5147 3.60121 27.3813Z"
                    fill="#FFE7A4" />
                <path id="Vector_24"
                    d="M3.60128 24.8409V31.7923C3.00691 31.7009 2.41826 31.5668 1.8387 31.3897C1.82386 29.1505 1.81152 26.6709 1.80823 24.4292C2.39772 24.6104 2.99699 24.7478 3.60128 24.8409Z"
                    fill="#FFE7A4" />
                <path id="Vector_25"
                    d="M3.60121 18.0326V20.2339C2.82244 20.3557 2.19263 20.5492 1.81311 20.7847C1.82383 18.9505 1.84768 17.6662 1.89379 17.4472C2.08891 16.5202 2.73597 14.5362 3.35751 14.4712C4.2845 14.3733 3.60121 17.2521 3.60121 18.0326Z"
                    fill="#FFF9F8" />
                <path id="Vector_26"
                    d="M3.60131 20.2344V22.3748C2.82004 22.253 2.18861 22.0579 1.80908 21.8216C1.80992 21.4602 1.81154 21.1136 1.81321 20.7851C2.19273 20.5496 2.8225 20.3562 3.60131 20.2344Z"
                    fill="#FFEDC0" />
                <path id="Vector_27"
                    d="M7.31475 7.37328H3.75077C3.66667 7.37328 3.59851 7.30513 3.59851 7.22103V5.81808C3.59851 5.3029 4.01615 4.88525 4.53133 4.88525H6.53419C7.04937 4.88525 7.46701 5.3029 7.46701 5.81808V7.22103C7.46705 7.30513 7.39885 7.37328 7.31475 7.37328Z"
                    fill="#E8AC42" />
                <path id="Vector_28"
                    d="M6.61559 4.88916C6.6675 5.00527 6.69701 5.1336 6.69701 5.26904V5.94108C6.69701 6.42886 6.30159 6.82424 5.81386 6.82424H3.59863V7.2208C3.59863 7.3049 3.66679 7.37306 3.75089 7.37306H7.31487C7.39897 7.37306 7.46713 7.3049 7.46713 7.2208V5.81786C7.46713 5.33017 7.09265 4.93044 6.61559 4.88916Z"
                    fill="#DB9421" />
                <path id="Vector_29"
                    d="M4.35224 6.02943H4.94226C5.19482 6.02943 5.39961 5.82465 5.39961 5.57209C5.39961 5.31948 5.19482 5.11475 4.94226 5.11475H4.35224C4.09964 5.11475 3.8949 5.31953 3.8949 5.57209C3.8949 5.82465 4.09964 6.02943 4.35224 6.02943Z"
                    fill="#F2CD70" />
                <path id="Vector_30"
                    d="M10.3992 30.9689C7.28436 32.2648 3.78138 32.2648 0.666626 30.9689V24.0171C3.78138 25.313 7.2844 25.313 10.3992 24.0171V30.9689Z"
                    fill="#E8AC42" />
                <path id="Vector_31"
                    d="M3.60128 24.8409V31.7923C3.00691 31.7009 2.41826 31.5668 1.8387 31.3897C1.82386 29.1505 1.81152 26.6709 1.80823 24.4292C2.39772 24.6104 2.99699 24.7478 3.60128 24.8409Z"
                    fill="#FFC166" />
                <g id="Group_7">
                    <g id="Group_8">
                        <g id="Group_9">
                            <path id="Vector_32"
                                d="M5.53304 26.193C5.77348 26.0276 5.90238 25.939 6.10756 25.8006C6.14388 25.776 6.19389 25.789 6.21383 25.828C6.34681 26.0884 6.42841 26.2412 6.58022 26.5212C6.87864 26.5253 7.03788 26.531 7.31578 26.5487C7.35249 26.551 7.38187 26.5805 7.38424 26.6172C7.40198 26.8951 7.40761 27.0543 7.41178 27.3527C7.69179 27.5045 7.84453 27.5861 8.10495 27.7191C8.14399 27.7391 8.1569 27.789 8.1324 27.8254C7.99398 28.0306 7.90535 28.1595 7.73996 28.3999C7.90535 28.6404 7.99402 28.7692 8.13244 28.9744C8.15695 29.0107 8.14404 29.0608 8.10499 29.0807C7.84457 29.2137 7.69183 29.2953 7.41182 29.4471C7.4077 29.7455 7.40202 29.9047 7.38428 30.1826C7.38195 30.2194 7.35254 30.2487 7.31582 30.2511C7.03792 30.2689 6.87863 30.2745 6.58027 30.2786C6.42845 30.5587 6.3469 30.7114 6.21387 30.9718C6.19394 31.0109 6.14392 31.0238 6.1076 30.9993C5.90242 30.8608 5.77357 30.7722 5.53309 30.6068C5.29265 30.7722 5.16375 30.8609 4.95857 30.9993C4.92225 31.0238 4.87224 31.0109 4.8523 30.9719C4.71928 30.7114 4.63772 30.5587 4.48591 30.2787C4.18749 30.2746 4.02825 30.2689 3.75035 30.2512C3.71364 30.2488 3.68425 30.2194 3.68188 30.1827C3.66414 29.9048 3.65852 29.7455 3.65435 29.4471C3.37434 29.2953 3.2216 29.2138 2.96118 29.0807C2.92214 29.0608 2.90923 29.0108 2.93373 28.9745C3.07215 28.7693 3.16082 28.6404 3.32621 28.4C3.16082 28.1595 3.07215 28.0306 2.93373 27.8254C2.90923 27.7891 2.92214 27.7391 2.96118 27.7192C3.2216 27.5861 3.37434 27.5046 3.65435 27.3528C3.65848 27.0544 3.66414 26.8951 3.68188 26.6172C3.68421 26.5805 3.71364 26.5511 3.75035 26.5488C4.02825 26.531 4.18749 26.5254 4.48591 26.5212C4.63772 26.2413 4.71928 26.0885 4.8523 25.828C4.87224 25.789 4.92225 25.7761 4.95857 25.8006C5.16366 25.939 5.29256 26.0276 5.53304 26.193Z"
                                fill="#F2CD70" />
                        </g>
                        <path id="Vector_33"
                            d="M6.04858 29.6329C6.73052 29.3504 7.05434 28.5686 6.77187 27.8866C6.48939 27.2047 5.70759 26.8809 5.02565 27.1633C4.34372 27.4458 4.01988 28.2276 4.30236 28.9096C4.58483 29.5915 5.36664 29.9153 6.04858 29.6329Z"
                            fill="#472F2C" />
                    </g>
                    <g id="Group_10">
                        <path id="Vector_34"
                            d="M3.60121 27.3818V29.4185C3.35422 29.2843 3.20522 29.2053 2.96074 29.081C2.92205 29.0604 2.90888 29.011 2.93356 28.9748C3.07185 28.769 3.16077 28.6406 3.32625 28.4002C3.16077 28.1598 3.07189 28.0305 2.93356 27.8255C2.90888 27.7893 2.92205 27.7391 2.96074 27.7193C3.20522 27.5943 3.35422 27.5152 3.60121 27.3818Z"
                            fill="#FFE285" />
                    </g>
                </g>
            </g>
            <g id="Group_11">
                <path id="Vector_35"
                    d="M19.7375 4.98732V1.09766H16.2067V4.98732C16.2067 6.27059 15.8426 7.52756 15.1566 8.61216L14.0844 10.3075C13.4452 11.3182 13.1058 12.4895 13.1058 13.6855V34.3186C13.1058 34.7719 13.3591 35.1875 13.7619 35.3955C16.4014 36.7584 19.5428 36.7584 22.1824 35.3955C22.5852 35.1875 22.8384 34.7719 22.8384 34.3186V13.6855C22.8384 12.4896 22.4991 11.3182 21.8598 10.3075L20.7876 8.61216C20.1016 7.52756 19.7375 6.27064 19.7375 4.98732Z"
                    fill="#F4E9E6" />
                <path id="Vector_36"
                    d="M13.8558 16.4194V33.5929C13.8558 33.9763 14.07 34.3279 14.4107 34.5038C16.6435 35.6566 19.3006 35.6566 21.5334 34.5038C21.8741 34.3279 22.0883 33.9763 22.0883 33.5929V16.4194H13.8558Z"
                    fill="#D7EF70" />
                <path id="Vector_37"
                    d="M14.2523 15.8999C14.2506 16.2284 14.249 16.5749 14.2482 16.9364C13.9963 16.7791 13.8555 16.6038 13.8555 16.4194C13.8555 16.2333 13.9979 16.0572 14.2523 15.8999Z"
                    fill="#EFFF92" />
                <path id="Vector_38"
                    d="M22.0879 16.4193C22.0879 17.0886 20.2454 17.6311 17.9716 17.6311C17.2735 17.6311 16.6158 17.5801 16.0403 17.4895V15.3491C16.6158 15.2586 17.2735 15.2075 17.9716 15.2075C20.2455 15.2075 22.0879 15.75 22.0879 16.4193Z"
                    fill="#EFFF92" />
                <path id="Vector_39"
                    d="M15.7966 9.58641C15.1753 9.6518 14.5282 11.6354 14.3331 12.5623C14.1511 13.4267 14.3085 30.8809 14.3306 33.2303C14.3326 33.4492 14.4147 33.6611 14.5684 33.8169C14.5726 33.8211 14.5768 33.8254 14.5811 33.8296C15.1218 34.3625 16.0405 33.963 16.0405 33.2038V13.1477C16.0405 12.3671 16.7235 9.48883 15.7966 9.58641Z"
                    fill="#EFFF92" />
                <path id="Vector_40"
                    d="M16.0407 19.9556V26.9071C15.4463 26.8157 14.8577 26.6815 14.2781 26.5045C14.2633 24.2652 14.251 21.7856 14.2477 19.5439C14.8371 19.7251 15.4365 19.8626 16.0407 19.9556Z"
                    fill="#EFFF92" />
                <path id="Vector_41"
                    d="M16.0405 13.1478V15.3492C15.2618 15.471 14.632 15.6645 14.2524 15.8999C14.2632 14.0657 14.287 12.7815 14.3331 12.5625C14.5282 11.6355 15.1753 9.65146 15.7968 9.58642C16.7238 9.48849 16.0405 12.3674 16.0405 13.1478Z"
                    fill="#FFF9F8" />
                <path id="Vector_42"
                    d="M16.0405 15.3491V17.4896C15.2592 17.3677 14.6279 17.1726 14.2483 16.9363C14.2491 16.575 14.2508 16.2284 14.2524 15.8999C14.632 15.6644 15.2617 15.471 16.0405 15.3491Z"
                    fill="#F8FFB6" />
                <path id="Vector_43"
                    d="M19.7541 2.48803H16.1901C16.106 2.48803 16.0378 2.41987 16.0378 2.33577V0.932824C16.0378 0.417643 16.4555 0 16.9707 0H18.9735C19.4887 0 19.9064 0.417643 19.9064 0.932824V2.33577C19.9064 2.41987 19.8381 2.48803 19.7541 2.48803Z"
                    fill="#4F6B43" />
                <path id="Vector_44"
                    d="M19.0548 0.00390625C19.1067 0.120021 19.1362 0.248344 19.1362 0.383781V1.05583C19.1362 1.54361 18.7409 1.93899 18.2531 1.93899H16.0378V2.33555C16.0378 2.41965 16.1061 2.48781 16.1901 2.48781H19.7541C19.8382 2.48781 19.9064 2.41965 19.9064 2.33555V0.932603C19.9064 0.444913 19.5319 0.0451875 19.0548 0.00390625Z"
                    fill="#384D2F" />
                <path id="Vector_45"
                    d="M16.7916 1.14418H17.3816C17.6342 1.14418 17.839 0.939398 17.839 0.686836C17.839 0.43423 17.6342 0.229492 17.3816 0.229492H16.7916C16.539 0.229492 16.3342 0.434274 16.3342 0.686836C16.3343 0.939398 16.539 1.14418 16.7916 1.14418Z"
                    fill="#6F9160" />
                <path id="Vector_46"
                    d="M22.8384 26.0842C19.7236 27.3801 16.2206 27.3801 13.1058 26.0842V19.1323C16.2206 20.4282 19.7236 20.4282 22.8384 19.1323L22.8384 26.0842Z"
                    fill="#4F6B43" />
                <path id="Vector_47"
                    d="M16.0407 19.9556V26.9071C15.4463 26.8157 14.8577 26.6815 14.2781 26.5045C14.2633 24.2652 14.251 21.7856 14.2477 19.5439C14.8371 19.7251 15.4365 19.8626 16.0407 19.9556Z"
                    fill="#6F9160" />
                <g id="Group_12">
                    <path id="Vector_48"
                        d="M18.5984 24.2996C18.5691 24.2996 18.5407 24.2839 18.5258 24.2563C18.5043 24.2162 18.5193 24.1663 18.5594 24.1448C19.4054 23.6892 19.8082 22.5989 19.9761 21.9703C19.5035 22.3839 18.6317 22.255 18.5856 22.248C18.5408 22.241 18.5101 22.1989 18.517 22.154C18.5241 22.1091 18.5661 22.0786 18.611 22.0853C18.6236 22.0872 19.8819 22.2724 20.0808 21.4935C20.0915 21.451 20.134 21.4249 20.1767 21.4331C20.2196 21.4417 20.2483 21.4824 20.242 21.5257C20.2298 21.6099 19.9275 23.5951 18.6374 24.2897C18.625 24.2964 18.6116 24.2996 18.5984 24.2996Z"
                        fill="#F2CD70" />
                    <g id="Group_13">
                        <path id="Vector_49"
                            d="M18.5125 25.5905C19.0601 25.1122 19.2233 24.4031 18.877 24.0065C18.5307 23.61 17.806 23.6763 17.2584 24.1545C16.7108 24.6328 16.5476 25.342 16.8939 25.7385C17.2402 26.135 17.9649 26.0688 18.5125 25.5905Z"
                            fill="#92A544" />
                        <path id="Vector_50"
                            d="M19.057 24.4634C18.9784 24.7246 18.8094 24.989 18.5611 25.2059C18.0135 25.6842 17.2887 25.7504 16.9425 25.3539C16.8327 25.2281 16.7743 25.071 16.7629 24.8997C16.6683 25.2144 16.7051 25.5244 16.8943 25.7411C17.2406 26.1376 17.9653 26.0714 18.5129 25.5932C18.8869 25.2666 19.0814 24.8323 19.057 24.4634Z"
                            fill="#7D8937" />
                        <path id="Vector_51"
                            d="M17.8824 24.5645C17.7018 24.6894 17.4829 24.6861 17.3936 24.557C17.3043 24.4279 17.3783 24.222 17.5588 24.097C17.7394 23.972 17.9582 23.9753 18.0476 24.1044C18.1369 24.2335 18.0629 24.4395 17.8824 24.5645Z"
                            fill="#B6C659" />
                    </g>
                    <g id="Group_14">
                        <path id="Vector_52"
                            d="M17.7427 23.3706C18.4502 23.2029 18.9252 22.6517 18.8037 22.1394C18.6823 21.6272 18.0103 21.3479 17.3029 21.5156C16.5954 21.6834 16.1204 22.2346 16.2419 22.7468C16.3633 23.2591 17.0353 23.5384 17.7427 23.3706Z"
                            fill="#92A544" />
                        <path id="Vector_53"
                            d="M18.7552 22.6211C18.564 22.8156 18.2912 22.9707 17.9703 23.0468C17.2628 23.2145 16.5909 22.9352 16.4694 22.423C16.4309 22.2606 16.4525 22.0943 16.5223 21.9375C16.2919 22.1717 16.1799 22.4632 16.2462 22.7431C16.3677 23.2554 17.0397 23.5346 17.7471 23.3669C18.2303 23.2523 18.6049 22.9588 18.7552 22.6211Z"
                            fill="#7D8937" />
                        <path id="Vector_54"
                            d="M17.6691 22.1632C17.451 22.1895 17.259 22.0846 17.2401 21.9287C17.2213 21.7729 17.3828 21.6251 17.6008 21.5988C17.8188 21.5724 18.0109 21.6774 18.0297 21.8332C18.0486 21.9891 17.8871 22.1368 17.6691 22.1632Z"
                            fill="#B6C659" />
                    </g>
                </g>
            </g>
            <g id="Group_15">
                <g id="Group_16">
                    <path id="Vector_55"
                        d="M5.10719 42.7882C4.5387 42.9465 4.73479 43.8381 5.16016 44.1504C6.16887 44.8911 7.4676 44.9246 8.21739 44.1974C9.4051 43.0454 8.49419 42.4926 8.06403 42.6784C7.69452 42.8379 7.36396 43.5215 6.75577 43.4826C6.14757 43.4438 5.82004 42.5897 5.10719 42.7882Z"
                        fill="#FDCB81" />
                    <path id="Vector_56"
                        d="M8.15239 42.6517C8.34927 42.8368 8.38638 43.2219 7.80791 43.783C7.20121 44.3715 6.15039 44.3443 5.33425 43.745C5.06394 43.5466 4.90957 43.06 5.07799 42.7978C4.54638 42.9787 4.74243 43.8436 5.16016 44.1503C6.16887 44.891 7.4676 44.9245 8.21743 44.1973C9.32864 43.1194 8.6028 42.5663 8.15239 42.6517Z"
                        fill="#EAB46C" />
                    <path id="Vector_57"
                        d="M5.82496 43.2926C5.75826 43.4028 5.57338 43.4129 5.41207 43.3152C5.25072 43.2175 5.17404 43.049 5.24075 42.9389C5.30746 42.8287 5.49235 42.8186 5.65365 42.9162C5.815 43.014 5.89167 43.1824 5.82496 43.2926Z"
                        fill="#FFDAAE" />
                </g>
                <g id="Group_17">
                    <path id="Vector_58"
                        d="M3.31007 46.7255C2.9471 47.1042 3.4531 47.8294 3.89802 47.9358C4.95311 48.1879 5.94135 47.6804 6.21139 46.712C6.63914 45.1781 5.73306 45.0554 5.48498 45.4016C5.27189 45.699 5.2989 46.4542 4.8268 46.6709C4.35466 46.8876 3.76513 46.2507 3.31007 46.7255Z"
                        fill="#FDCB81" />
                    <path id="Vector_59"
                        d="M5.54054 45.3409C5.7628 45.4268 5.94562 45.7597 5.73728 46.5068C5.5188 47.2904 4.71921 47.701 3.86553 47.497C3.58279 47.4294 3.27112 47.0532 3.29198 46.7463C2.96577 47.1301 3.46102 47.8312 3.89798 47.9357C4.95307 48.1878 5.94132 47.6803 6.21136 46.7119C6.61152 45.2768 5.84418 45.0771 5.54054 45.3409Z"
                        fill="#EAB46C" />
                    <path id="Vector_60"
                        d="M4.11437 46.9217C4.09228 47.0486 3.92373 47.1252 3.73792 47.0929C3.55211 47.0606 3.4194 46.9314 3.44149 46.8046C3.46358 46.6777 3.63213 46.601 3.81794 46.6334C4.00375 46.6658 4.13646 46.7948 4.11437 46.9217Z"
                        fill="#FFDAAE" />
                </g>
                <g id="Group_18">
                    <path id="Vector_61"
                        d="M7.43006 45.2944C6.87706 45.5972 7.34042 46.4053 7.87827 46.5943C9.15373 47.0425 10.5309 46.7321 11.1108 45.8327C12.0295 44.4081 10.9112 44.1154 10.5117 44.4081C10.1687 44.6595 10.0175 45.4061 9.36597 45.5291C8.71443 45.6521 8.12345 44.9148 7.43006 45.2944Z"
                        fill="#FDCB81" />
                    <path id="Vector_62"
                        d="M10.597 44.359C10.8577 44.4856 11.0077 44.8472 10.5602 45.5412C10.091 46.2688 8.97669 46.52 7.9447 46.1574C7.6029 46.0373 7.30019 45.6087 7.40199 45.3114C6.89432 45.6261 7.34999 46.4086 7.87817 46.5942C9.15363 47.0424 10.5308 46.732 11.1107 45.8326C11.9703 44.4997 11.0467 44.1578 10.597 44.359Z"
                        fill="#EAB46C" />
                    <path id="Vector_63"
                        d="M8.2344 45.5914C8.19913 45.7153 8.02351 45.7739 7.84209 45.7222C7.66072 45.6706 7.54224 45.5283 7.5775 45.4044C7.61276 45.2806 7.78838 45.222 7.9698 45.2737C8.15122 45.3253 8.26966 45.4676 8.2344 45.5914Z"
                        fill="#FFDAAE" />
                </g>
            </g>
            <g id="Group_19">
                <path id="Vector_64"
                    d="M22.5959 41.9309C19.3564 45.2922 14.0061 45.391 10.6448 42.1515C9.18357 40.743 8.4838 39.2998 8.46325 37.7875C8.43611 35.8208 9.55734 33.7355 11.6484 31.4535C13.5188 29.4118 15.0986 28.2527 16.5451 27.823C18.6081 27.2089 20.4003 28.0765 22.3761 29.9807C25.7366 33.2193 25.8353 38.5704 22.5959 41.9309Z"
                    fill="#A06648" />
                <path id="Vector_65"
                    d="M24.3298 32.8536C24.1643 35.4268 22.8278 37.892 20.4995 39.4049C16.8527 41.7745 12.0599 40.9712 9.36523 37.6848C10.2476 36.0049 15.0988 27.1861 18.6179 29.3591C18.6179 29.3591 18.2818 27.5372 16.5449 27.8229C15.0984 28.2526 13.5187 29.4117 11.6483 31.4534C9.98274 33.271 8.93327 34.9638 8.58853 36.5713C8.5884 36.5711 8.58827 36.5709 8.58809 36.5706C8.58555 36.5825 8.58352 36.5942 8.58106 36.606C8.57298 36.6448 8.56525 36.6836 8.55801 36.7222C8.55362 36.7458 8.5494 36.7692 8.54527 36.7927C8.53864 36.8306 8.53231 36.8685 8.52652 36.9063C8.52278 36.9305 8.51932 36.9547 8.51594 36.9789C8.51075 37.0158 8.50579 37.0528 8.50135 37.0896C8.49832 37.1147 8.49565 37.1397 8.49301 37.1647C8.48919 37.2007 8.48559 37.2365 8.48247 37.2723C8.48023 37.2982 8.47843 37.324 8.47659 37.3499C8.47408 37.3848 8.47171 37.4197 8.46995 37.4545C8.46859 37.4813 8.46767 37.508 8.4667 37.5347C8.46547 37.5684 8.46433 37.6022 8.46381 37.6358C8.46337 37.6637 8.46341 37.6915 8.46341 37.7193C8.46341 37.7419 8.46279 37.7647 8.4631 37.7873C8.46336 37.7874 8.46359 37.7875 8.46385 37.7875C8.48458 39.3002 9.18381 40.7428 10.6449 42.1511C14.0058 45.3905 19.3564 45.2919 22.5958 41.931C24.9955 39.4414 25.5629 35.86 24.3298 32.8536Z"
                    fill="#844A30" />
                <path id="Vector_66"
                    d="M20.9485 36.312C22.4222 34.8383 22.4223 32.4489 20.9485 30.9751C19.4748 29.5014 17.0854 29.5014 15.6117 30.9751C14.1379 32.4489 14.1379 34.8383 15.6117 36.312C17.0854 37.7857 19.4748 37.7857 20.9485 36.312Z"
                    fill="#BC7F64" />
                <path id="Vector_67"
                    d="M16.4281 35.8259C14.0716 38.5167 11.0221 39.7004 9.61679 38.4697C8.21147 37.239 9.67029 34.6623 12.0268 31.9714C14.3833 29.2806 16.7451 27.4946 18.1504 28.7254C19.5557 29.956 18.7846 33.135 16.4281 35.8259Z"
                    fill="#FDFEFB" />
                <path id="Vector_68"
                    d="M15.5168 35.0202C14.03 36.718 12.106 37.4648 11.2193 36.6883C10.3327 35.9118 11.2531 34.2861 12.7399 32.5884C14.2266 30.8907 15.7168 29.7639 16.6034 30.5404C17.4901 31.3168 17.0036 33.3225 15.5168 35.0202Z"
                    fill="#E7C9B8" />
            </g>
            <g id="Group_20">
                <path id="Vector_69"
                    d="M36.1838 38.7722C36.8108 37.252 36.8658 35.7346 38.6267 32.9486C40.0716 30.6626 40.2541 28.9258 39.3229 28.2244C38.5163 27.6169 24.2542 39.6564 24.2542 39.6564C26.5127 43.3908 30.4484 43.4552 32.9457 42.279C33.9394 41.8111 35.4021 40.6675 36.1838 38.7722Z"
                    fill="#384D2F" />
                <path id="Vector_70"
                    d="M33.9464 40.0224C34.2269 40.5083 33.7139 41.3298 32.8004 41.8571C31.887 42.3845 30.9191 42.4181 30.6385 41.9322C30.358 41.4462 30.9609 41.5773 31.8743 41.0499C32.7878 40.5226 33.6658 39.5365 33.9464 40.0224Z"
                    fill="#4F6B43" />
                <g id="Group_21">
                    <g id="Group_22">
                        <path id="Vector_71"
                            d="M34.9761 36.6364C35.6767 35.1487 37.1359 33.1771 38.1784 31.7484C39.2105 30.334 40.037 28.714 39.1057 28.0126C38.2992 27.4051 36.5038 28.0965 34.8914 28.9557C33.1378 29.8901 30.7611 31.2123 28.9242 31.8715C27.9166 32.233 26.9259 32.7973 26.0592 33.5463C23.4941 35.7631 22.968 38.8076 24.8921 40.3146C26.8537 41.8509 30.5741 41.2423 33.1602 38.9742C33.986 38.2499 34.5953 37.4448 34.9761 36.6364Z"
                            fill="#CCD374" />
                        <path id="Vector_72"
                            d="M34.9761 36.6362C35.6767 35.1485 37.1359 33.1769 38.1784 31.7482C39.2105 30.3338 40.037 28.7139 39.1057 28.0124C38.8774 27.8404 38.5696 27.7727 38.2093 27.7833C38.6963 28.5805 38.011 29.8861 37.1693 31.0226C36.2163 32.3095 34.882 34.0836 34.2494 35.4537C33.9056 36.1982 33.3235 36.9021 32.5872 37.5507C29.8102 39.9975 26.6831 40.1363 24.8274 38.5115C24.347 38.0908 24.0788 37.2572 23.9078 36.6991C23.4982 38.1111 23.801 39.46 24.8921 40.3144C26.8537 41.8508 30.5741 41.2421 33.1602 38.974C33.986 38.2498 34.5953 37.4447 34.9761 36.6362Z"
                            fill="#B5B758" />
                    </g>
                    <path id="Vector_73"
                        d="M30.856 37.6888C32.5456 36.6064 33.3551 34.8543 32.6639 33.7755C31.9728 32.6966 30.0428 32.6994 28.3531 33.7818C26.6635 34.8642 25.8541 36.6163 26.5453 37.6952C27.2364 38.7741 29.1664 38.7712 30.856 37.6888Z"
                        fill="#B5B758" />
                    <g id="Group_23">
                        <path id="Vector_74"
                            d="M30.7701 37.4275C32.3456 36.379 33.0161 34.6174 32.2678 33.4929C31.5194 32.3683 29.6355 32.3066 28.06 33.355C26.4845 34.4035 25.8139 36.1651 26.5623 37.2896C27.3107 38.4142 29.1946 38.4759 30.7701 37.4275Z"
                            fill="#A06648" />
                        <path id="Vector_75"
                            d="M31.9151 33.1057C31.8307 33.0368 31.74 32.9761 31.6449 32.9219C32.4407 33.8227 32.2806 35.2255 31.211 36.2079C30.0404 37.2831 28.2245 37.4471 27.1549 36.5741C26.7479 36.2418 26.5081 35.8071 26.4312 35.3369C26.101 36.2411 26.2491 37.137 26.9252 37.6889C27.9947 38.5619 29.9788 38.2436 31.3567 36.9779C32.7346 35.7123 32.9846 33.9786 31.9151 33.1057Z"
                            fill="#844A30" />
                        <path id="Vector_76"
                            d="M29.6739 34.4107C30.3578 34.0952 30.7747 33.5413 30.6051 33.1736C30.4354 32.8059 29.7435 32.7636 29.0596 33.0791C28.3757 33.3946 27.9588 33.9485 28.1285 34.3162C28.2981 34.6839 28.99 34.7262 29.6739 34.4107Z"
                            fill="#BC7F64" />
                    </g>
                </g>
            </g>
        </g>
    </g>
</svg>
