<svg width="48" height="48" viewBox="0 0 48 48" fill="none" xmlns="http://www.w3.org/2000/svg">
    <g id="Illustration">
        <path id="Vector" opacity="0.2"
            d="M14.0645 2.45289C11.3151 4.108 8.30741 7.08234 7.20069 10.2803C6.13406 13.3625 4.65277 19.6497 5.07321 22.0704C5.49362 24.4911 6.63911 29.2715 9.28164 31.8808C11.9242 34.4901 27.1879 36.8393 31.0831 35.7089C34.9783 34.5785 41.2093 29.8995 41.9901 27.7013C42.7709 25.5031 45.3706 16.5696 43.0723 10.3068C41.9641 7.28697 37.7223 2.83282 34.3687 1.21352C31.015 -0.405788 21.9465 -0.102172 19.1459 0.403864C16.3452 0.909901 15.2001 1.76931 14.0645 2.45289Z"
            fill="#FB8C00" />
        <g id="Group">
            <g id="Group_2">
                <path id="Vector_2"
                    d="M11.4277 12.7261C11.4277 12.7261 13.1794 11.0013 16.457 10.676C20.6618 10.2586 29.4652 15.5878 32.7005 18.7153C36.3176 22.212 31.5282 30.7966 26.6798 32.0469C22.9916 32.9981 10.0614 27.2037 11.4277 12.7261Z"
                    fill="#C24244" />
                <path id="Vector_3"
                    d="M32.8393 18.8575C33.0365 23.1187 26.9602 28.2649 22.5693 28.0089C19.4851 27.8291 11.969 21.5651 12.2947 12.0723C11.7223 12.4364 11.4278 12.726 11.4278 12.726C10.0615 27.2035 22.9917 32.9979 26.6799 32.0468C31.464 30.813 36.1898 22.4388 32.8393 18.8575Z"
                    fill="#B53A3D" />
                <path id="Vector_4"
                    d="M6.1662 19.4965C8.90138 16.2337 10.7523 11.7758 14.0972 11.4814C17.4421 11.1871 20.1933 16.0992 22.818 19.1127C25.4427 22.1261 29.9333 25.4162 29.3723 29.3549C28.8114 33.2937 20.3482 33.1539 14.6228 33.0769C9.35095 33.006 3.00259 32.1639 1.4158 28.8058C-0.933966 23.833 3.28991 22.9275 6.1662 19.4965Z"
                    fill="#D14A4A" />
                <path id="Vector_5"
                    d="M22.8181 19.1127C20.1934 16.0992 17.4421 11.1871 14.0972 11.4814C12.9609 11.5814 11.9973 12.1626 11.1125 13.0135C11.9342 12.2797 12.8286 11.7865 13.8672 11.6951C17.2121 11.4008 19.9633 16.313 22.5881 19.3264C25.2128 22.3398 29.7033 25.6299 29.1424 29.5687C29.0565 30.1717 28.7846 30.6787 28.3665 31.1053C28.9151 30.6372 29.2716 30.0621 29.3724 29.3549C29.9333 25.4162 25.4427 22.1261 22.8181 19.1127Z"
                    fill="#EFD4C7" />
                <path id="Vector_6"
                    d="M13.3886 20.4203C12.7256 20.6644 12.6269 21.9193 12.2604 22.1963C11.5096 22.7637 11.3396 23.0748 11.3187 23.6453C11.2978 24.2159 12.9125 24.8359 14.3267 24.7076C15.8113 24.5729 16.5617 24.3451 16.4558 23.7699C16.3499 23.1947 15.0682 21.7927 14.8374 21.1605C14.6067 20.5284 14.016 20.1894 13.3886 20.4203Z"
                    fill="#EFD4C7" />
                <path id="Vector_7"
                    d="M13.5479 21.4841C13.1805 21.6194 13.1258 22.3146 12.9227 22.4681C12.5068 22.7825 12.4126 22.9549 12.401 23.2709C12.3894 23.587 13.284 23.9306 14.0676 23.8595C14.8902 23.7848 15.3059 23.6586 15.2472 23.3399C15.1885 23.0213 14.4784 22.2444 14.3505 21.8942C14.2227 21.544 13.8955 21.3561 13.5479 21.4841Z"
                    fill="#D3AE9F" />
                <path id="Vector_8"
                    d="M12.1144 12.8892C10.7888 13.3884 9.80098 15.9728 9.50099 17.2313C9.201 18.4899 10.1928 19.1422 11.8743 19.4459C13.5559 19.7496 14.8364 19.4516 15.732 20.4185C16.6276 21.3855 19.5694 19.6312 19.6159 18.3633C19.6623 17.0955 15.8904 11.4672 12.1144 12.8892Z"
                    fill="#F97C75" />
                <path id="Vector_9"
                    d="M12.2659 13.1212C11.0216 13.5898 10.0945 16.0155 9.8129 17.1968C9.53135 18.3781 10.4622 18.9904 12.0406 19.2754C13.6189 19.5605 14.8208 19.2808 15.6614 20.1884C16.502 21.0959 19.2633 19.4494 19.3068 18.2593C19.3504 17.0693 15.8101 11.7865 12.2659 13.1212Z"
                    fill="#E55655" />
                <path id="Vector_10"
                    d="M17.4543 21.9236C16.9711 22.5719 17.4708 23.7862 17.3615 24.4593C17.2522 25.1324 17.7326 25.883 18.9565 27.1271C20.1806 28.3711 23.6079 31.4203 26.1772 31.0251C28.7465 30.63 28.3443 27.3158 26.4054 24.7904C24.4666 22.265 21.5228 19.4489 20.7559 19.5901C19.989 19.7313 18.4825 20.5443 17.4543 21.9236Z"
                    fill="#F97C75" />
                <path id="Vector_11"
                    d="M17.9121 22.2221C17.4717 22.813 17.9271 23.9199 17.8275 24.5334C17.7279 25.147 18.1657 25.8312 19.2815 26.9652C20.3972 28.0991 23.5213 30.8785 25.8633 30.5183C28.2052 30.1581 27.8386 27.1372 26.0713 24.8352C24.304 22.5332 21.6207 19.9663 20.9216 20.095C20.2226 20.2237 18.8493 20.9648 17.9121 22.2221Z"
                    fill="#E55655" />
                <path id="Vector_12"
                    d="M7.2983 19.6054C8.22532 18.6755 10.8853 19.7238 10.808 21.3355C10.7307 22.9472 10.0997 23.3735 10.9543 24.6189C11.8088 25.8643 11.866 31.2377 9.8227 31.5665C7.7794 31.8952 2.82657 30.7829 2.41847 28.0596C2.01037 25.3363 1.76299 25.158 7.2983 19.6054Z"
                    fill="#F97C75" />
                <path id="Vector_13"
                    d="M7.3491 20.0812C8.20015 19.2275 10.6422 20.1898 10.5712 21.6695C10.5003 23.1492 9.92101 23.5405 10.7055 24.6839C11.4901 25.8273 11.5426 30.7605 9.66668 31.0623C7.79077 31.3641 3.24379 30.3429 2.86911 27.8428C2.49443 25.3426 2.26732 25.1789 7.3491 20.0812Z"
                    fill="#E55655" />
                <path id="Vector_14"
                    d="M12.3019 25.9789C12.1721 26.2823 12.032 31.3281 12.5274 31.6651C13.0229 32.0021 22.3469 32.8241 22.5393 31.4614C22.7317 30.0987 18.2997 28.3866 17.1093 26.2268C16.5857 25.2769 12.6836 25.0866 12.3019 25.9789Z"
                    fill="#F97C75" />
                <path id="Vector_15"
                    d="M12.5203 26.1878C12.4002 26.4686 12.2705 31.1373 12.729 31.4492C13.1875 31.761 21.8148 32.5216 21.9929 31.2607C22.1708 29.9998 18.0701 28.4156 16.9685 26.4172C16.484 25.5382 12.8735 25.3622 12.5203 26.1878Z"
                    fill="#E55655" />
                <path id="Vector_16"
                    d="M17.2163 11.3082C16.5635 11.354 17.8047 12.8437 20.1826 13.749C22.5606 14.6543 29.5027 17.795 29.2976 17.1205C29.0924 16.4461 21.3616 11.0169 17.2163 11.3082Z"
                    fill="#DD575E" />
            </g>
            <g id="Group_3">
                <path id="Vector_17"
                    d="M40.6946 28.8011C38.2713 29.752 35.5774 29.752 33.1539 28.8011C33.0015 28.7413 32.8937 28.6033 32.8751 28.4406L30.5741 8.2417H43.2744L40.9734 28.4406C40.9549 28.6033 40.847 28.7413 40.6946 28.8011Z"
                    fill="#C7DFEF" />
                <path id="Vector_18"
                    d="M40.4169 28.0702C38.172 28.9511 35.6765 28.9511 33.4317 28.0702C33.2905 28.0148 33.1906 27.887 33.1734 27.7363L31.0419 8.2417H42.8067L40.6752 27.7363C40.658 27.887 40.5581 28.0148 40.4169 28.0702Z"
                    fill="#DCF3FF" />
                <path id="Vector_19"
                    d="M31.5278 12.6865L33.1734 27.7366C33.1905 27.8873 33.2905 28.0151 33.4316 28.0705C35.6765 28.9514 38.172 28.9514 40.4169 28.0705C40.558 28.0151 40.658 27.8873 40.6752 27.7366L42.3207 12.6865H31.5278Z"
                    fill="#F4F5F7" />
                <path id="Vector_20"
                    d="M36.9243 13.7416C39.9047 13.7416 42.3208 13.2691 42.3208 12.6862C42.3208 12.1034 39.9047 11.6309 36.9243 11.6309C33.9439 11.6309 31.5278 12.1034 31.5278 12.6862C31.5278 13.2691 33.9439 13.7416 36.9243 13.7416Z"
                    fill="white" />
                <path id="Vector_21"
                    d="M36.9244 9.48369C40.4315 9.48369 43.2745 8.9277 43.2745 8.24184C43.2745 7.55599 40.4315 7 36.9244 7C33.4173 7 30.5742 7.55599 30.5742 8.24184C30.5742 8.9277 33.4173 9.48369 36.9244 9.48369Z"
                    fill="#C7DFEF" />
                <path id="Vector_22"
                    d="M36.9243 9.32052C39.9701 9.32052 42.4391 8.83767 42.4391 8.24204C42.4391 7.64642 39.9701 7.16357 36.9243 7.16357C33.8786 7.16357 31.4095 7.64642 31.4095 8.24204C31.4095 8.83767 33.8786 9.32052 36.9243 9.32052Z"
                    fill="#A9C4D3" />
                <path id="Vector_23"
                    d="M42.4391 8.2417C42.4391 8.83733 39.97 9.32017 36.9243 9.32017C33.8786 9.32017 31.4095 8.83733 31.4095 8.2417H30.5741C30.5741 8.92757 33.4172 9.48355 36.9242 9.48355C40.4313 9.48355 43.2744 8.92757 43.2744 8.2417H42.4391Z"
                    fill="#C7DFEF" />
            </g>
            <g id="Group_4">
                <path id="Vector_24"
                    d="M9.58806 35.9269C9.58806 39.4577 7.44172 41.2911 4.79404 41.2911C2.14636 41.2911 0 39.4577 0 35.9269C0 32.3961 2.69845 28.5049 4.79404 28.5049C6.7748 28.5049 9.58806 32.3961 9.58806 35.9269Z"
                    fill="#EAA27A" />
                <path id="Vector_25"
                    d="M5.56945 28.6792C6.97292 30.0759 8.12098 32.7667 7.82028 35.0954C7.40612 38.3025 5.06236 39.6929 2.43652 39.3538C1.77324 39.2681 1.15563 39.08 0.609253 38.7954C1.42962 40.4443 2.99571 41.291 4.794 41.291C7.44168 41.291 9.58803 39.4576 9.58803 35.9268C9.58803 32.8378 7.43472 29.4729 5.56945 28.6792Z"
                    fill="#CE8763" />
                <path id="Vector_26"
                    d="M3.88103 32.6876C4.47119 31.3801 4.45895 30.0986 3.85369 29.8255C3.24843 29.5523 2.27935 30.3908 1.68919 31.6984C1.09903 33.0059 1.11127 34.2874 1.71653 34.5606C2.32179 34.8337 3.29087 33.9952 3.88103 32.6876Z"
                    fill="#F4B595" />
            </g>
            <g id="Group_5">
                <path id="Vector_27"
                    d="M39.739 23.0577L40.3428 22.8003L47.2134 28.2707C47.2134 28.2707 49.0496 35.4487 47.1112 40.3424L46.6028 40.3728L45.7448 29.1238L39.739 23.0577Z"
                    fill="#DD855F" />
                <path id="Vector_28"
                    d="M45.754 29.246L46.6027 40.3725L47.1111 40.3421C49.0494 35.4485 47.2133 28.2705 47.2133 28.2705L46.6027 28.4145L45.754 29.246Z"
                    fill="#EF9575" />
                <path id="Vector_29"
                    d="M20.2548 38.0069C20.1704 37.2774 19.5303 36.7388 18.7671 36.7046L18.8065 37.0598C19.1638 37.2923 19.415 37.6605 19.4657 38.0982C19.5168 38.5406 19.3522 38.9604 19.0514 39.2693L19.0901 39.6182C19.8327 39.415 20.3397 38.7409 20.2548 38.0069Z"
                    fill="#F5A968" />
                <path id="Vector_30"
                    d="M26.8635 40.7431C27.1292 40.4643 27.6544 40.2904 28.0548 40.2886C28.4413 40.2868 28.8161 40.4447 29.0813 40.7042L29.4972 40.6964C29.3305 40.0026 28.7462 39.491 28.0512 39.4942C27.3426 39.4974 26.7548 40.0351 26.6082 40.751L26.8635 40.7431Z"
                    fill="#F5A968" />
                <path id="Vector_31"
                    d="M40.9773 40.4782C41.2037 40.3046 41.5157 40.1963 41.8151 40.1846C42.1346 40.172 42.4307 40.271 42.6798 40.4467L43.2367 40.4362C43.0161 39.805 42.4421 39.365 41.784 39.3907C41.1454 39.4158 40.6194 39.8716 40.4329 40.4892L40.9773 40.4782Z"
                    fill="#F5A968" />
                <path id="Vector_32"
                    d="M46.6027 28.4146L18.2898 32.3974L18.8064 37.0584C18.851 37.053 18.896 37.0495 18.942 37.0495C19.5655 37.0495 20.0709 37.5549 20.0709 38.1783C20.0709 38.7637 19.6254 39.2448 19.055 39.3015L19.2311 40.8903L26.8635 40.7459C27.0432 40.3047 27.4758 39.9934 27.9816 39.9934C28.4712 39.9934 28.8917 40.2852 29.0813 40.7039L40.9772 40.4789C41.1309 40.1586 41.4572 39.9369 41.8362 39.9369C42.2025 39.9369 42.5201 40.1437 42.6797 40.4466L46.6027 40.3725C46.6027 40.3726 48.3187 34.7598 46.6027 28.4146Z"
                    fill="#FDCB81" />
                <path id="Vector_33"
                    d="M39.7389 23.0576L32.4359 26.2376C32.4419 26.2828 32.4462 26.3284 32.4462 26.3752C32.4462 26.9412 31.9874 27.4001 31.4214 27.4001C31.1019 27.4001 30.8166 27.2537 30.6287 27.0246L22.7691 30.4469C22.7691 30.4508 22.7702 30.4544 22.7702 30.4583C22.7702 30.7391 22.5426 30.9668 22.2617 30.9668C22.1238 30.9668 21.999 30.9114 21.9074 30.8221L18.2897 32.3974L46.6026 28.4146L39.7389 23.0576Z"
                    fill="#F5A968" />
                <path id="Vector_34"
                    d="M45.0914 30.49C44.8691 30.1936 44.1381 30.0769 43.5026 30.49C43.1614 30.7118 42.5847 31.0252 42.516 31.3162C42.3586 31.9835 43.3437 32.3013 44.0745 32.1424C44.8054 31.9835 45.5681 31.1256 45.0914 30.49Z"
                    fill="#F5A968" />
                <path id="Vector_35"
                    d="M23.2152 33.3181C22.8455 33.6508 22.8021 34.6527 23.2788 34.9387C23.7554 35.2246 24.8994 35.1603 24.9629 34.6523C25.0265 34.1443 24.4863 33.8265 24.3592 33.5405C24.2321 33.2545 23.533 33.0321 23.2152 33.3181Z"
                    fill="#F5A968" />
                <path id="Vector_36"
                    d="M22.5479 38.6884C22.3368 39.0435 22.8974 39.4872 23.1834 39.3897C23.4694 39.2922 23.9802 38.9744 23.9802 38.5613C23.9802 38.4043 23.247 37.5127 22.5479 38.6884Z"
                    fill="#F5A968" />
                <path id="Vector_37"
                    d="M27.7592 36.7047C28.2547 36.0753 29.4752 36.4961 29.6976 36.9092C29.92 37.3223 30.1549 38.0792 29.4973 38.1615C28.8396 38.2438 28.5854 37.7354 28.2041 37.6083C27.8228 37.4812 27.4732 37.0681 27.7592 36.7047Z"
                    fill="#F5A968" />
                <path id="Vector_38"
                    d="M33.7649 32.3976C33.5662 32.4737 33.4472 32.6193 33.7649 33.096C34.0827 33.5726 35.3538 33.668 35.6715 33.5091C35.9893 33.3502 36.3388 32.4458 35.9575 32.183C35.5762 31.9202 35.1044 32.6193 34.8478 32.524C34.5911 32.4287 34.178 32.2394 33.7649 32.3976Z"
                    fill="#F5A968" />
                <path id="Vector_39"
                    d="M29.6339 32.8515C29.3483 33.1892 29.1573 33.5406 29.3479 33.763C29.5386 33.9854 30.3648 34.1443 30.5872 34.0172C30.8096 33.8901 30.8414 33.5509 30.7779 33.2121C30.7143 32.8732 29.845 32.6021 29.6339 32.8515Z"
                    fill="#F5A968" />
                <path id="Vector_40"
                    d="M35.4809 36.4558C34.4203 36.7031 34.1145 37.8566 34.337 38.1614C34.5594 38.4661 35.5917 38.5297 36.1242 38.3708C36.6566 38.2119 37.1333 38.3072 37.3875 37.9577C37.6417 37.6081 36.8791 36.1297 35.4809 36.4558Z"
                    fill="#F5A968" />
                <path id="Vector_41"
                    d="M39.8661 34.3215C39.4061 34.3364 39.4848 34.8751 39.739 35.2882C39.9932 35.7013 40.6923 35.8602 40.9148 35.5742C41.1372 35.2882 40.9783 34.8116 40.7241 34.462C40.4699 34.1125 40.2792 34.308 39.8661 34.3215Z"
                    fill="#F5A968" />
                <path id="Vector_42"
                    d="M44.1876 36.7044C43.677 36.9091 43.8381 37.449 43.6156 37.735C43.3932 38.021 43.2661 38.6458 43.6156 38.7465C43.9652 38.8472 45.1409 38.6052 45.3633 38.1701C45.5858 37.735 45.3316 36.2457 44.1876 36.7044Z"
                    fill="#F5A968" />
                <path id="Vector_43"
                    d="M38.738 24.4048C38.1351 24.4048 38.2613 24.9581 37.88 25.3487C37.4987 25.7394 36.879 25.784 36.9267 26.0238C36.9743 26.2637 37.594 27.1217 38.738 26.359C39.8819 25.5964 39.5006 24.4048 38.738 24.4048Z"
                    fill="#DD8F54" />
                <path id="Vector_44"
                    d="M27.6544 29.1236C26.8576 29.2666 26.7742 29.6479 26.8695 29.8862C26.9649 30.1246 29.0517 30.4582 29.2714 29.8862C29.4911 29.3143 28.0888 29.0456 27.6544 29.1236Z"
                    fill="#DD8F54" />
                <path id="Vector_45"
                    d="M34.8464 28.4149C34.5163 28.266 35.5599 27.6941 36.1241 27.9324C36.6883 28.1707 37.5411 28.5504 36.924 28.8849C36.307 29.2193 35.3877 28.659 34.8464 28.4149Z"
                    fill="#DD8F54" />
                <path id="Vector_46"
                    d="M43.2366 26.9788C42.7535 26.7275 42.0239 27.5229 41.8347 27.7275C41.6455 27.932 42.4921 28.5138 43.2366 28.2706C43.9811 28.0273 43.9697 27.3601 43.2366 26.9788Z"
                    fill="#DD8F54" />
                <path id="Vector_47"
                    d="M31.1593 28.2705C30.8988 28.3545 31.3977 28.8837 31.5406 28.8845C31.6836 28.8853 32.6846 28.4661 32.4463 28.2705C32.208 28.075 31.5883 28.1325 31.1593 28.2705Z"
                    fill="#DD8F54" />
                <path id="Vector_48"
                    d="M23.6759 30.8399C23.3899 30.6015 24.6768 30.6015 24.6768 30.8399C24.6768 31.0782 23.9618 31.0782 23.6759 30.8399Z"
                    fill="#DD8F54" />
            </g>
            <g id="Group_6">
                <path id="Vector_49"
                    d="M16.6332 41.8153C14.8554 44.8659 12.0779 45.3692 9.79032 44.0361C7.50277 42.7029 6.5715 40.0382 8.34927 36.9876C10.1271 33.937 14.4178 31.9338 16.2283 32.9889C17.9397 33.9863 18.4111 38.7648 16.6332 41.8153Z"
                    fill="#F4F5F7" />
                <path id="Vector_50"
                    d="M16.8105 33.5303C17.3198 35.4436 16.9569 38.3465 15.5246 40.2071C13.552 42.7694 10.8269 42.7906 8.72894 41.1754C8.19902 40.7674 7.76014 40.294 7.43141 39.773C7.30997 41.6106 8.2367 43.1308 9.7904 44.0362C12.078 45.3694 14.8555 44.8661 16.6333 41.8155C18.1886 39.1466 18.0225 35.1552 16.8105 33.5303Z"
                    fill="#D6D7D8" />
                <path id="Vector_51"
                    d="M13.3221 36.1342C14.4903 35.3016 15.1248 34.1883 14.7394 33.6476C14.354 33.1068 13.0946 33.3435 11.9265 34.176C10.7584 35.0086 10.1238 36.1219 10.5092 36.6627C10.8946 37.2034 12.154 36.9667 13.3221 36.1342Z"
                    fill="white" />
            </g>
        </g>
    </g>
</svg>
