<svg width="17" height="20" viewBox="0 0 17 20" fill="none" xmlns="http://www.w3.org/2000/svg">
    <g id="Profile">
        <path id="Stroke 1 (Stroke)" fill-rule="evenodd" clip-rule="evenodd"
            d="M3.2108 13.2202C4.64075 12.7408 6.53511 12.5962 8.48481 12.5962C10.4463 12.5962 12.3412 12.7464 13.7693 13.2321C14.4872 13.4763 15.1419 13.8231 15.6236 14.3279C16.1225 14.8509 16.4043 15.5122 16.4043 16.2938C16.4043 17.0771 16.12 17.738 15.6181 18.259C15.1341 18.7615 14.4771 19.105 13.7584 19.3461C12.3287 19.8256 10.4346 19.9705 8.48481 19.9705C6.52341 19.9705 4.62822 19.8205 3.19996 19.335C2.48189 19.0909 1.82708 18.7441 1.34528 18.2392C0.84619 17.7161 0.564331 17.0547 0.564331 16.2729C0.564331 15.4894 0.84873 14.8283 1.3507 14.3072C1.83487 13.8046 2.49202 13.4612 3.2108 13.2202ZM2.43097 15.3479C2.19279 15.5952 2.06433 15.8854 2.06433 16.2729C2.06433 16.662 2.19271 16.9545 2.43049 17.2037C2.68557 17.471 3.09428 17.7147 3.68275 17.9148C4.86758 18.3176 6.55764 18.4705 8.48481 18.4705C10.4026 18.4705 12.0933 18.3225 13.2814 17.9239C13.8717 17.7259 14.2819 17.4841 14.5378 17.2184C14.7759 16.9712 14.9043 16.681 14.9043 16.2938C14.9043 15.905 14.776 15.6126 14.5383 15.3634C14.2833 15.0961 13.8746 14.8523 13.2863 14.6522C12.1017 14.2493 10.4119 14.0962 8.48481 14.0962C6.56689 14.0962 4.876 14.244 3.68762 14.6424C3.09724 14.8403 2.68694 15.0822 2.43097 15.3479Z"
            fill="#131313" />
        <path id="Stroke 3 (Stroke)" fill-rule="evenodd" clip-rule="evenodd"
            d="M3.17434 5.40853C3.175 2.47631 5.55283 0.10022 8.48482 0.10022C11.4174 0.10022 13.7943 2.47716 13.7943 5.40974C13.7943 8.34214 11.4176 10.7202 8.48482 10.7202H8.45244L8.45002 10.7202C5.52719 10.7103 3.16509 8.33182 3.17434 5.40853ZM3.17434 5.40853C3.17434 5.40813 3.17435 5.40773 3.17435 5.40732L3.88863 5.40974H3.17434C3.17434 5.40934 3.17434 5.40894 3.17434 5.40853ZM8.48482 1.52879C6.34102 1.52879 4.60291 3.26633 4.60291 5.40974V5.41216H4.60291C4.59568 7.54702 6.32037 9.28383 8.45378 9.29165H8.48482C10.6282 9.29165 12.3658 7.55354 12.3658 5.40974C12.3658 3.26614 10.6284 1.52879 8.48482 1.52879Z"
            fill="#131313" />
    </g>
</svg>
