<svg width="24" height="24" viewBox="0 0 24 24" fill="none" xmlns="http://www.w3.org/2000/svg">
    <g id="Plus">
        <path id="Vector 1 (Stroke)" fill-rule="evenodd" clip-rule="evenodd"
            d="M12 1.75C12.4142 1.75 12.75 2.08579 12.75 2.5V11.25H21.5C21.9142 11.25 22.25 11.5858 22.25 12C22.25 12.4142 21.9142 12.75 21.5 12.75H12.75V21.5C12.75 21.9142 12.4142 22.25 12 22.25C11.5858 22.25 11.25 21.9142 11.25 21.5V12.75H2.5C2.08579 12.75 1.75 12.4142 1.75 12C1.75 11.5858 2.08579 11.25 2.5 11.25H11.25V2.5C11.25 2.08579 11.5858 1.75 12 1.75Z"
            fill="#131313" />
    </g>
</svg>
