<svg width="41" height="40" viewBox="0 0 41 40" fill="none" xmlns="http://www.w3.org/2000/svg">
    <g id="Group">
        <path id="Vector"
            d="M21.7162 38.9505C32.1822 38.3708 40.1967 29.4165 39.6171 18.9505C39.0374 8.48444 30.0831 0.469934 19.6171 1.04958C9.15103 1.62923 1.13652 10.5835 1.71617 21.0496C2.29581 31.5156 11.2501 39.5301 21.7162 38.9505Z"
            fill="#FDD835" />
        <path id="Vector_2" opacity="0.5"
            d="M29.8097 21.7247C33.7131 21.7247 36.8774 18.5604 36.8774 14.657C36.8774 10.7537 33.7131 7.58936 29.8097 7.58936C25.9064 7.58936 22.7421 10.7537 22.7421 14.657C22.7421 18.5604 25.9064 21.7247 29.8097 21.7247Z"
            fill="url(#paint0_radial_879_853)" />
        <path id="Vector_3" opacity="0.5"
            d="M9.29875 26.9635C13.2021 26.9635 16.3664 23.7992 16.3664 19.8958C16.3664 15.9924 13.2021 12.8281 9.29875 12.8281C5.39539 12.8281 2.23108 15.9924 2.23108 19.8958C2.23108 23.7992 5.39539 26.9635 9.29875 26.9635Z"
            fill="url(#paint1_radial_879_853)" />
        <path id="Vector_4"
            d="M21.1605 12.3833C20.7651 12.3833 20.4191 12.1362 20.2708 11.7408C19.9249 10.5052 20.0732 9.1707 20.6662 8.03394C21.2593 6.89718 22.3467 6.05696 23.5823 5.71099C26.1523 4.96963 28.8707 6.45236 29.612 9.02242C29.7603 9.51667 29.4638 10.0109 28.9695 10.1592C28.4753 10.3074 27.981 10.0109 27.8328 9.51667C27.5856 8.72588 27.0914 8.08336 26.3995 7.68796C25.7075 7.29257 24.8673 7.19372 24.0765 7.44084C23.2857 7.68796 22.6432 8.1822 22.2478 8.87414C21.8524 9.56608 21.7536 10.4063 22.0007 11.1971C22.149 11.6913 21.8524 12.1856 21.3582 12.3338C21.3582 12.3833 21.2593 12.3833 21.1605 12.3833Z"
            fill="#131313" />
        <path id="Vector_5"
            d="M7.17338 16.1891C6.77799 16.1891 6.43202 15.942 6.28375 15.5466C5.54238 12.9765 7.02511 10.2582 9.59517 9.51682C10.8308 9.17085 12.1652 9.31912 13.302 9.91221C14.4388 10.5547 15.279 11.5926 15.6249 12.8282C15.7732 13.3225 15.4767 13.8167 14.9824 13.965C14.4882 14.1133 13.9939 13.8167 13.8457 13.3225C13.5985 12.5317 13.1043 11.8892 12.4124 11.4938C11.7204 11.0984 10.8802 10.9995 10.0894 11.2467C8.45841 11.6915 7.51935 13.4213 8.0136 15.0029C8.16187 15.4972 7.86532 15.9914 7.37108 16.1397C7.32166 16.1891 7.27223 16.1891 7.17338 16.1891Z"
            fill="#131313" />
        <path id="Vector_6"
            d="M18.3433 23.6522C16.0698 23.6522 13.8952 22.8615 12.2147 21.4281C11.8193 21.1316 11.7699 20.5385 12.1159 20.1431C12.4619 19.7477 13.0055 19.6983 13.4009 20.0443C14.7848 21.181 16.5641 21.8235 18.3928 21.8235C21.8525 21.8235 24.8673 19.5994 25.757 16.3869C25.9053 15.8926 26.3995 15.5961 26.8443 15.7444C27.3386 15.8926 27.6351 16.3869 27.4868 16.8317C26.3501 20.835 22.6433 23.6522 18.3433 23.6522Z"
            fill="#131313" />
    </g>
    <defs>
        <radialGradient id="paint0_radial_879_853" cx="0" cy="0" r="1"
            gradientUnits="userSpaceOnUse"
            gradientTransform="translate(29.8221 14.6397) scale(7.07508 7.07508)">
            <stop stop-color="#FF4D43" />
            <stop offset="0.8413" stop-color="#FDD835" />
        </radialGradient>
        <radialGradient id="paint1_radial_879_853" cx="0" cy="0" r="1"
            gradientUnits="userSpaceOnUse"
            gradientTransform="translate(9.2775 19.9032) scale(7.07508 7.07509)">
            <stop stop-color="#FF4D43" />
            <stop offset="0.8413" stop-color="#FDD835" />
        </radialGradient>
    </defs>
</svg>
