<svg width="20" height="21" viewBox="0 0 20 21" fill="none" xmlns="http://www.w3.org/2000/svg">
    <g id="Setting">
        <g id="Group 3">
            <mask id="mask0_901_3450" style="mask-type:luminance" maskUnits="userSpaceOnUse" x="0"
                y="0" width="20" height="21">
                <path id="Clip 2" fill-rule="evenodd" clip-rule="evenodd"
                    d="M0 0.000976562H19.2849V20.722H0V0.000976562Z" fill="white" />
            </mask>
            <g mask="url(#mask0_901_3450)">
                <path id="Fill 1" fill-rule="evenodd" clip-rule="evenodd"
                    d="M5.2022 15.441C5.4312 15.441 5.6602 15.47 5.8842 15.53C6.5602 15.712 7.1472 16.164 7.4952 16.771C7.7212 17.152 7.8462 17.597 7.8502 18.051C7.8502 18.701 8.3722 19.222 9.0142 19.222H10.2672C10.9062 19.222 11.4282 18.704 11.4312 18.065C11.4272 17.359 11.7032 16.688 12.2082 16.183C12.7062 15.685 13.4022 15.386 14.0982 15.406C14.5542 15.417 14.9932 15.54 15.3802 15.76C15.9372 16.079 16.6482 15.889 16.9702 15.339L17.6342 14.232C17.7822 13.977 17.8252 13.657 17.7462 13.362C17.6682 13.067 17.4722 12.811 17.2082 12.66C16.5902 12.304 16.1492 11.73 15.9662 11.042C15.7852 10.367 15.8842 9.62998 16.2372 9.02298C16.4672 8.62298 16.8042 8.28598 17.2082 8.05398C17.7502 7.73698 17.9402 7.02798 17.6252 6.47598C17.6122 6.45398 17.6002 6.43098 17.5902 6.40698L17.0042 5.39098C16.6852 4.83598 15.9752 4.64498 15.4182 4.96198C14.8162 5.31798 14.1002 5.41998 13.4122 5.23898C12.7252 5.06098 12.1492 4.62598 11.7902 4.01198C11.5602 3.62798 11.4352 3.18098 11.4312 2.72598C11.4402 2.38398 11.3202 2.07698 11.1022 1.85198C10.8852 1.62798 10.5802 1.50098 10.2672 1.50098H9.0142C8.7042 1.50098 8.4142 1.62198 8.1952 1.83998C7.9772 2.05898 7.8582 2.34998 7.8602 2.65998C7.8392 4.12198 6.6442 5.29898 5.1972 5.29898C4.7332 5.29398 4.2862 5.16898 3.8982 4.93698C3.3532 4.62698 2.6412 4.81798 2.3222 5.37298L1.6452 6.48598C1.3352 7.02398 1.5252 7.73498 2.0772 8.05598C2.8962 8.52998 3.4072 9.41398 3.4072 10.362C3.4072 11.31 2.8962 12.193 2.0752 12.668C1.5262 12.986 1.3362 13.693 1.6542 14.243L2.2852 15.331C2.4412 15.612 2.6962 15.815 2.9912 15.898C3.2852 15.98 3.6092 15.945 3.8792 15.795C4.2762 15.562 4.7382 15.441 5.2022 15.441ZM10.2672 20.722H9.0142C7.5452 20.722 6.3502 19.528 6.3502 18.059C6.3482 17.878 6.2962 17.69 6.1992 17.527C6.0422 17.253 5.7882 17.057 5.4952 16.979C5.2042 16.901 4.8852 16.944 4.6232 17.096C3.9952 17.446 3.2562 17.531 2.5802 17.341C1.9052 17.15 1.3222 16.686 0.980198 16.071L0.355198 14.994C-0.375802 13.726 0.0591977 12.101 1.3252 11.369C1.6842 11.162 1.9072 10.776 1.9072 10.362C1.9072 9.94798 1.6842 9.56098 1.3252 9.35398C0.0581977 8.61798 -0.375802 6.98898 0.354198 5.72098L1.0322 4.60798C1.7532 3.35398 3.3832 2.91198 4.6542 3.64198C4.8272 3.74498 5.0152 3.79698 5.2062 3.79898C5.8292 3.79898 6.3502 3.28498 6.3602 2.65298C6.3562 1.95598 6.6312 1.28698 7.1322 0.781977C7.6352 0.277977 8.3032 0.000976562 9.0142 0.000976562H10.2672C10.9832 0.000976562 11.6792 0.294977 12.1782 0.805977C12.6762 1.31998 12.9512 2.02498 12.9302 2.73998C12.9322 2.90098 12.9852 3.08698 13.0812 3.24998C13.2402 3.51998 13.4912 3.70998 13.7892 3.78798C14.0872 3.86198 14.3992 3.82198 14.6642 3.66498C15.9442 2.93398 17.5732 3.37198 18.3042 4.64198L18.9272 5.72098C18.9432 5.74998 18.9572 5.77798 18.9692 5.80698C19.6312 7.05798 19.1892 8.63298 17.9592 9.35198C17.7802 9.45498 17.6352 9.59898 17.5352 9.77298C17.3802 10.042 17.3372 10.362 17.4152 10.656C17.4952 10.956 17.6862 11.205 17.9552 11.359C18.5622 11.708 19.0152 12.296 19.1962 12.975C19.3772 13.653 19.2782 14.389 18.9252 14.996L18.2612 16.102C17.5302 17.358 15.9012 17.793 14.6342 17.061C14.4652 16.964 14.2702 16.911 14.0762 16.906H14.0702C13.7812 16.906 13.4842 17.029 13.2682 17.244C13.0492 17.463 12.9292 17.755 12.9312 18.065C12.9242 19.534 11.7292 20.722 10.2672 20.722Z"
                    fill="#131313" />
            </g>
        </g>
        <path id="Fill 4" fill-rule="evenodd" clip-rule="evenodd"
            d="M9.64516 8.47461C8.60516 8.47461 7.75916 9.32161 7.75916 10.3616C7.75916 11.4016 8.60516 12.2466 9.64516 12.2466C10.6852 12.2466 11.5312 11.4016 11.5312 10.3616C11.5312 9.32161 10.6852 8.47461 9.64516 8.47461ZM9.64516 13.7466C7.77816 13.7466 6.25916 12.2286 6.25916 10.3616C6.25916 8.49461 7.77816 6.97461 9.64516 6.97461C11.5122 6.97461 13.0312 8.49461 13.0312 10.3616C13.0312 12.2286 11.5122 13.7466 9.64516 13.7466Z"
            fill="#131313" />
    </g>
</svg>
