<svg width="19" height="22" viewBox="0 0 19 22" fill="none" xmlns="http://www.w3.org/2000/svg">
    <g id="ShareNetwork">
        <path id="Vector (Stroke)" fill-rule="evenodd" clip-rule="evenodd"
            d="M4 8.75C2.75736 8.75 1.75 9.75736 1.75 11C1.75 12.2426 2.75736 13.25 4 13.25C5.24264 13.25 6.25 12.2426 6.25 11C6.25 9.75736 5.24264 8.75 4 8.75ZM0.25 11C0.25 8.92893 1.92893 7.25 4 7.25C6.07107 7.25 7.75 8.92893 7.75 11C7.75 13.0711 6.07107 14.75 4 14.75C1.92893 14.75 0.25 13.0711 0.25 11Z"
            fill="white" />
        <path id="Vector (Stroke)_2" fill-rule="evenodd" clip-rule="evenodd"
            d="M14.5 15.5C13.2574 15.5 12.25 16.5074 12.25 17.75C12.25 18.9926 13.2574 20 14.5 20C15.7426 20 16.75 18.9926 16.75 17.75C16.75 16.5074 15.7426 15.5 14.5 15.5ZM10.75 17.75C10.75 15.6789 12.4289 14 14.5 14C16.5711 14 18.25 15.6789 18.25 17.75C18.25 19.8211 16.5711 21.5 14.5 21.5C12.4289 21.5 10.75 19.8211 10.75 17.75Z"
            fill="white" />
        <path id="Vector (Stroke)_3" fill-rule="evenodd" clip-rule="evenodd"
            d="M14.5 2C13.2574 2 12.25 3.00736 12.25 4.25C12.25 5.49264 13.2574 6.5 14.5 6.5C15.7426 6.5 16.75 5.49264 16.75 4.25C16.75 3.00736 15.7426 2 14.5 2ZM10.75 4.25C10.75 2.17893 12.4289 0.5 14.5 0.5C16.5711 0.5 18.25 2.17893 18.25 4.25C18.25 6.32107 16.5711 8 14.5 8C12.4289 8 10.75 6.32107 10.75 4.25Z"
            fill="white" />
        <path id="Vector (Stroke)_4" fill-rule="evenodd" clip-rule="evenodd"
            d="M12.6076 5.46659C12.8316 5.81502 12.7307 6.27906 12.3823 6.50305L6.92873 10.0089C6.5803 10.2329 6.11627 10.132 5.89228 9.78358C5.66829 9.43515 5.76917 8.97112 6.11759 8.74713L11.5711 5.24128C11.9196 5.01729 12.3836 5.11817 12.6076 5.46659Z"
            fill="white" />
        <path id="Vector (Stroke)_5" fill-rule="evenodd" clip-rule="evenodd"
            d="M5.89228 12.2166C6.11627 11.8682 6.5803 11.7673 6.92873 11.9913L12.3823 15.4971C12.7307 15.7211 12.8316 16.1851 12.6076 16.5336C12.3836 16.882 11.9196 16.9829 11.5711 16.7589L6.11759 13.253C5.76917 13.0291 5.66829 12.565 5.89228 12.2166Z"
            fill="white" />
    </g>
</svg>
