<svg width="56" height="56" viewBox="0 0 56 56" fill="none" xmlns="http://www.w3.org/2000/svg">
    <path opacity="0.2"
        d="M18.0645 12.4529C15.3151 14.108 12.3074 17.0823 11.2007 20.2803C10.1341 23.3625 8.65277 29.6497 9.07321 32.0704C9.49362 34.4911 10.6391 39.2715 13.2816 41.8808C15.9242 44.4901 31.1879 46.8393 35.0831 45.7089C38.9783 44.5785 45.2093 39.8995 45.9901 37.7013C46.7709 35.5031 49.3706 26.5696 47.0723 20.3068C45.9641 17.287 41.7223 12.8328 38.3687 11.2135C35.015 9.59421 25.9465 9.89783 23.1459 10.4039C20.3452 10.9099 19.2001 11.7693 18.0645 12.4529Z"
        fill="#FB8C00" />
    <path
        d="M3.01245 35.2544C3.01245 35.2544 6.34618 41.6132 9.64905 42.8942C9.64905 42.8942 22.1968 46.2897 33.4482 40.3167C33.4482 40.3167 36.7974 37.1219 37.816 32.7695L3.01245 35.2544Z"
        fill="#C65245" />
    <path
        d="M37.8161 32.7852L37.0598 32.8315L34.7139 35.4861C34.7139 35.4861 31.1795 42.3542 12.1031 43.3728C16.3166 44.0365 25.222 44.6693 33.4483 40.3169C33.4483 40.3324 36.7975 37.1375 37.8161 32.7852Z"
        fill="#AF3E38" />
    <path
        d="M36.2726 30.1615C36.2726 30.1615 37.5845 26.5808 38.9118 25.9326C40.2391 25.2844 50.302 22.1821 50.302 22.1821C50.302 22.1821 52.8795 22.5371 53.6512 24.3892C53.6512 24.3892 41.1188 26.5808 40.1002 27.476C39.097 28.3866 37.2758 31.319 37.2758 31.319L36.2726 30.1615Z"
        fill="#C65245" />
    <path
        d="M40.1158 27.4755C39.1126 28.3861 37.2914 31.3186 37.2914 31.3186L37.6464 31.7507C37.6464 31.7507 40.2238 28.1855 40.7023 27.8768C41.2425 27.5064 53.5742 25.1296 53.5742 25.1296L53.6668 24.3888C53.6668 24.3733 41.1344 26.5649 40.1158 27.4755Z"
        fill="#D36058" />
    <path
        d="M20.8693 40.0652C30.5424 39.3456 38.1553 35.689 37.8733 31.898C37.5913 28.107 29.5211 25.6171 19.848 26.3367C10.175 27.0563 2.562 30.7129 2.84402 34.5039C3.12604 38.2949 11.1962 40.7848 20.8693 40.0652Z"
        fill="#D36058" />
    <path
        d="M20.7361 39.172C29.7632 38.5005 36.8848 35.3169 36.6426 32.0614C36.4004 28.8059 28.8862 26.7112 19.8591 27.3827C10.832 28.0542 3.71049 31.2378 3.95267 34.4933C4.19486 37.7488 11.7091 39.8435 20.7361 39.172Z"
        fill="#344D4B" />
    <path
        d="M5.74426 36.9215C8.52237 38.6964 14.2329 39.6533 20.7306 39.1749C27.2283 38.6964 32.7382 36.9061 35.2231 34.7299C33.0932 32.4766 27.1048 31.1647 20.175 31.6894C13.2606 32.1987 7.51917 34.3749 5.74426 36.9215Z"
        fill="#4F6C69" />
    <path
        d="M53.6666 24.3736C52.9103 22.5215 50.3174 22.1665 50.3174 22.1665C50.3174 22.1665 50.302 22.1665 50.2711 22.1819C50.1014 23.0154 49.4994 24.2347 47.7091 25.4848C50.8113 24.8674 53.6666 24.3736 53.6666 24.3736Z"
        fill="#AF3E38" />
    <path
        d="M50.5027 23.54C50.5336 23.7406 50.3175 23.9413 50.0088 23.9876C49.7002 24.0339 49.4224 23.9104 49.3915 23.7097C49.3606 23.5091 49.5767 23.3085 49.8854 23.2622C50.2095 23.2159 50.4719 23.3393 50.5027 23.54Z"
        fill="#FFF6EA" />
    <path
        d="M47.7092 25.5004C47.7092 25.5004 45.6102 26.5808 44.2675 26.9975L53.5741 25.13L53.6667 24.3892L47.7092 25.5004Z"
        fill="#C65245" />
</svg>
