<svg width="57" height="56" viewBox="0 0 57 56" fill="none" xmlns="http://www.w3.org/2000/svg">
    <path opacity="0.2"
        d="M18.196 11.5892C15.3056 13.3362 12.1436 16.4758 10.9802 19.8515C9.85884 23.1049 8.30159 29.7414 8.74359 32.2965C9.18556 34.8517 10.3898 39.8977 13.1678 42.652C15.9459 45.4062 31.9924 47.886 36.0873 46.6928C40.1822 45.4996 46.7328 40.5606 47.5536 38.2403C48.3745 35.92 51.1075 26.4901 48.6914 19.8794C47.5263 16.6918 43.067 11.9902 39.5414 10.2809C36.0157 8.57167 26.4822 8.89215 23.5379 9.4263C20.5937 9.96045 19.3898 10.8676 18.196 11.5892Z"
        fill="#FB8C00" />
    <path
        d="M14.0232 44.6087L33.5941 52.5002L37.6733 15.6895L27.1109 11.5859L13.6104 43.5889C13.4162 43.9774 13.6104 44.4388 14.0232 44.6087Z"
        fill="#A8D0BF" />
    <path
        d="M37.6733 15.6893L41.1455 14.6694L43.4037 45.7011C43.428 46.1139 43.2337 46.4781 42.8938 46.6967L33.5697 52.4999L37.6733 15.6893Z"
        fill="#4C8882" />
    <path
        d="M35.0752 38.9753L33.5697 52.5001L43.0152 46.5997C43.2823 46.4297 43.428 46.1383 43.4037 45.8227L42.2867 30.6953C40.9755 33.7791 38.7659 37.0085 35.0752 38.9753Z"
        fill="#3C7870" />
    <path
        d="M35.0752 38.9755C30.8503 41.2094 24.707 41.7436 15.7472 38.417L13.5618 43.6132C13.3919 44.0017 13.5861 44.4388 13.9746 44.5845L33.5941 52.5002L35.0752 38.9755Z"
        fill="#98BCAA" />
    <path opacity="0.5" d="M14.1447 42.2773L33.7155 49.9989L43.3067 44.5355" stroke="#F5FFFB"
        stroke-miterlimit="10" stroke-linecap="round" />
    <path d="M27.0865 11.5616L30.5102 10.6875L41.1455 14.6454L37.6733 15.6895L27.0865 11.5616Z"
        fill="#92C1AC" />
    <path d="M28.2037 11.7314L30.0734 11.1001L30.9961 5.36969L29.2721 4.66553L28.2037 11.7314Z"
        fill="#CF732E" />
    <path
        d="M30.4861 3.57284L29.1749 4.08275C28.9563 4.1556 28.8106 4.34985 28.7621 4.56838L28.9321 4.5441L37.9405 7.91923L39.2274 8.40486C39.4216 8.4777 39.5431 8.69623 39.5188 8.89049L38.4989 15.4465L40.5143 14.9123L41.5827 8.2106C41.6313 7.89494 41.4613 7.57929 41.1456 7.45788L31.1659 3.57284C30.8989 3.47572 30.6803 3.47572 30.4861 3.57284Z"
        fill="#CF732E" />
    <path
        d="M28.9805 4.47102C28.8834 4.44674 28.7863 4.47102 28.762 4.54386L28.7377 4.73812L28.7134 4.83524L27.6693 11.6098L28.2035 11.7069L29.1505 5.27231C29.1748 5.12662 29.3204 5.05377 29.4419 5.10234L38.8873 8.67171C38.9845 8.72028 39.0573 8.8174 39.033 8.93881L37.9889 15.5434L38.4017 15.422L39.4458 8.79312C39.4701 8.62315 39.373 8.45318 39.2273 8.40462L28.9805 4.47102Z"
        fill="#B45E25" />
    <path opacity="0.5" d="M26.4066 13.1885L37.4547 17.5349L40.8055 16.4422" stroke="#F5FFFB"
        stroke-miterlimit="10" stroke-linecap="round" />
    <path opacity="0.5" d="M26.1641 14.4995L37.2121 18.8702L41.17 17.559" stroke="#F5FFFB"
        stroke-miterlimit="10" stroke-linecap="round" />
    <path
        d="M26.8196 19.3801C26.7468 19.4286 26.6497 19.4044 26.6497 19.3315C26.504 18.6273 26.4797 17.0976 27.4024 17.389C28.2522 17.6318 27.4267 18.8944 26.8196 19.3801Z"
        fill="#3E5964" />
    <path
        d="M29.1504 20.4484C29.0776 20.497 28.9805 20.4727 28.9805 20.3999C28.8348 19.6957 28.8105 18.166 29.7332 18.4574C30.5588 18.7002 29.7575 19.9628 29.1504 20.4484Z"
        fill="#3E5964" />
    <path
        d="M31.6515 21.5412C31.5787 21.5898 31.4816 21.5655 31.4816 21.4926C31.3359 20.7885 31.3116 19.2587 32.2343 19.5501C33.0841 19.7929 32.2586 21.0556 31.6515 21.5412Z"
        fill="#3E5964" />
    <path
        d="M33.9827 22.6096C33.9099 22.6581 33.8127 22.6338 33.8127 22.561C33.6671 21.8568 33.6428 20.3271 34.5655 20.6185C35.4153 20.8613 34.5898 22.1239 33.9827 22.6096Z"
        fill="#3E5964" />
    <path
        d="M27.1595 23.1921C27.0866 23.2406 26.9895 23.2164 26.9895 23.1435C26.8438 22.4394 26.8195 20.9096 27.7422 21.201C28.5921 21.4438 27.7665 22.7065 27.1595 23.1921Z"
        fill="#3E5964" />
    <path
        d="M29.4907 24.2604C29.4178 24.309 29.3207 24.2847 29.3207 24.2119C29.175 23.5077 29.1507 21.978 30.0734 22.2694C30.9233 22.5122 30.0977 23.7748 29.4907 24.2604Z"
        fill="#3E5964" />
    <path
        d="M31.9914 25.3532C31.9185 25.4018 31.8214 25.3775 31.8214 25.3047C31.6757 24.6005 31.6514 23.0708 32.5741 23.3621C33.424 23.605 32.6227 24.8676 31.9914 25.3532Z"
        fill="#3E5964" />
    <path
        d="M34.3226 26.4216C34.2497 26.4701 34.1526 26.4459 34.1526 26.373C34.0069 25.6689 33.9826 24.1391 34.9053 24.4305C35.7552 24.6733 34.9296 25.9359 34.3226 26.4216Z"
        fill="#3E5964" />
    <path
        d="M24.7557 22.2936C24.6828 22.3422 24.5857 22.3179 24.5857 22.2451C24.44 21.5409 24.4157 20.0112 25.3384 20.3026C26.1883 20.5454 25.3627 21.808 24.7557 22.2936Z"
        fill="#3E5964" />
    <path
        d="M24.9743 25.7419C24.9015 25.7905 24.8043 25.7662 24.8043 25.6933C24.6586 24.9892 24.6344 23.4594 25.5571 23.7508C26.4069 23.9936 25.5813 25.2805 24.9743 25.7419Z"
        fill="#3E5964" />
    <path
        d="M27.3051 26.8103C27.2323 26.8588 27.1351 26.8345 27.1351 26.7617C26.9894 26.0575 26.9652 24.5278 27.8879 24.8192C28.7377 25.062 27.9121 26.3489 27.3051 26.8103Z"
        fill="#3E5964" />
    <path
        d="M29.8061 27.903C29.7332 27.9516 29.6361 27.9273 29.6361 27.8545C29.4904 27.1503 29.4661 25.6206 30.3888 25.9119C31.2387 26.1548 30.4374 27.4417 29.8061 27.903Z"
        fill="#3E5964" />
    <path
        d="M32.1373 28.9714C32.0644 29.0199 31.9673 28.9957 31.9673 28.9228C31.8216 28.2187 31.7973 26.6889 32.72 26.9803C33.5699 27.2231 32.7443 28.51 32.1373 28.9714Z"
        fill="#3E5964" />
    <path
        d="M25.314 29.5783C25.2412 29.6269 25.144 29.6026 25.144 29.5298C24.9984 28.8256 24.9741 27.2959 25.8968 27.5872C26.7466 27.8301 25.9453 29.0927 25.314 29.5783Z"
        fill="#3E5964" />
    <path
        d="M27.6452 30.6467C27.5724 30.6952 27.4752 30.671 27.4752 30.5981C27.3295 29.894 27.3053 28.3642 28.228 28.6556C29.0778 28.8984 28.2522 30.161 27.6452 30.6467Z"
        fill="#3E5964" />
    <path
        d="M30.1703 31.7394C30.0975 31.788 30.0004 31.7637 30.0004 31.6909C29.8547 30.9867 29.8304 29.457 30.7531 29.7484C31.5787 29.9912 30.7774 31.2538 30.1703 31.7394Z"
        fill="#3E5964" />
    <path
        d="M32.4771 32.8078C32.4043 32.8564 32.3071 32.8321 32.3071 32.7592C32.1614 32.0551 32.1372 30.5254 33.0599 30.8167C33.9097 31.0595 33.1084 32.3222 32.4771 32.8078Z"
        fill="#3E5964" />
    <path
        d="M22.9346 28.6799C22.8618 28.7284 22.7647 28.7042 22.7647 28.6313C22.619 27.9272 22.5947 26.3974 23.5174 26.6888C24.3429 26.9316 23.5417 28.1942 22.9346 28.6799Z"
        fill="#3E5964" />
    <path
        d="M23.1531 32.3952C23.0803 32.4438 22.9832 32.4195 22.9832 32.3466C22.8375 31.6425 22.8132 30.1128 23.7359 30.4041C24.5857 30.6469 23.7844 31.9096 23.1531 32.3952Z"
        fill="#3E5964" />
    <path
        d="M25.4839 33.4636C25.4111 33.5121 25.314 33.4879 25.314 33.415C25.1683 32.7108 25.144 31.1811 26.0667 31.4725C26.9165 31.7153 26.091 32.9779 25.4839 33.4636Z"
        fill="#3E5964" />
    <path
        d="M28.0095 34.5559C27.9366 34.6044 27.8395 34.5801 27.8395 34.5073C27.6938 33.8031 27.6695 32.2734 28.5922 32.5648C29.4178 32.8076 28.6165 34.0702 28.0095 34.5559Z"
        fill="#3E5964" />
    <path
        d="M30.3162 35.6242C30.2434 35.6728 30.1462 35.6485 30.1462 35.5757C30.0006 34.8715 29.9763 33.3418 30.899 33.6331C31.7488 33.8759 30.9475 35.1386 30.3162 35.6242Z"
        fill="#3E5964" />
    <path
        d="M23.5174 36.2072C23.4445 36.2558 23.3474 36.2315 23.3474 36.1587C23.2017 35.4545 23.1774 33.9248 24.1001 34.2161C24.9257 34.459 24.1244 35.7216 23.5174 36.2072Z"
        fill="#3E5964" />
    <path
        d="M25.8242 37.2756C25.7513 37.3241 25.6542 37.2999 25.6542 37.227C25.5085 36.5229 25.4842 34.9931 26.4069 35.2845C27.2568 35.5273 26.4555 36.79 25.8242 37.2756Z"
        fill="#3E5964" />
    <path
        d="M28.3493 38.3684C28.2765 38.4169 28.1793 38.3926 28.1793 38.3198C28.0336 37.6156 28.0094 36.0859 28.9321 36.3773C29.7819 36.6201 28.9563 37.8827 28.3493 38.3684Z"
        fill="#3E5964" />
    <path
        d="M30.6804 39.4367C30.6075 39.4853 30.5104 39.461 30.5104 39.3882C30.3647 38.684 30.3404 37.1543 31.2631 37.4456C32.0887 37.6884 31.2874 38.9511 30.6804 39.4367Z"
        fill="#3E5964" />
    <path
        d="M21.1135 35.3088C21.0406 35.3574 20.9435 35.3331 20.9435 35.2602C20.7978 34.5561 20.7735 33.0263 21.6962 33.3177C22.5461 33.5605 21.7205 34.8232 21.1135 35.3088Z"
        fill="#3E5964" />
    <path
        d="M20.9919 38.7082C20.919 38.7568 20.8219 38.7325 20.8219 38.6596C20.6762 37.9555 20.6519 36.4257 21.5746 36.7171C22.4245 36.9599 21.5989 38.2226 20.9919 38.7082Z"
        fill="#3E5964" />
    <path
        d="M23.3231 39.7766C23.2502 39.8251 23.1531 39.8008 23.1531 39.728C23.0074 39.0238 22.9831 37.4941 23.9058 37.7855C24.7557 38.0283 23.9301 39.2909 23.3231 39.7766Z"
        fill="#3E5964" />
    <path
        d="M25.8242 40.8693C25.7513 40.9179 25.6542 40.8936 25.6542 40.8208C25.5085 40.1166 25.4842 38.5869 26.4069 38.8783C27.2568 39.1211 26.4312 40.3837 25.8242 40.8693Z"
        fill="#3E5964" />
    <path
        d="M28.155 41.9377C28.0821 41.9863 27.985 41.962 27.985 41.8891C27.8393 41.185 27.815 39.6552 28.7377 39.9466C29.5876 40.1894 28.762 41.4521 28.155 41.9377Z"
        fill="#3E5964" />
    <path
        d="M21.3321 42.5202C21.2592 42.5688 21.1621 42.5445 21.1621 42.4716C21.0164 41.7675 20.9921 40.2378 21.9148 40.5291C22.7647 40.7719 21.9391 42.0589 21.3321 42.5202Z"
        fill="#3E5964" />
    <path
        d="M23.6629 43.5886C23.59 43.6371 23.4929 43.6129 23.4929 43.54C23.3472 42.8358 23.323 41.3061 24.2457 41.5975C25.0955 41.8403 24.2699 43.1272 23.6629 43.5886Z"
        fill="#3E5964" />
    <path
        d="M26.1883 44.6813C26.1154 44.7299 26.0183 44.7056 26.0183 44.6328C25.8726 43.9286 25.8483 42.3989 26.771 42.6903C27.5966 42.9331 26.7953 44.1957 26.1883 44.6813Z"
        fill="#3E5964" />
    <path
        d="M28.4948 45.7497C28.422 45.7983 28.3248 45.774 28.3248 45.7011C28.1791 44.997 28.1549 43.4672 29.0776 43.7586C29.9274 44.0014 29.1261 45.2641 28.4948 45.7497Z"
        fill="#3E5964" />
    <path
        d="M18.928 41.6218C18.8552 41.6703 18.7581 41.6461 18.7581 41.5732C18.6124 40.869 18.5881 39.3393 19.5108 39.6307C20.3606 39.8735 19.5593 41.1361 18.928 41.6218Z"
        fill="#3E5964" />
    <path
        d="M31.0932 43.2731C31.0203 43.3217 30.9232 43.2974 30.9232 43.2246C30.7775 42.5204 30.7533 40.9907 31.6759 41.2821C32.5258 41.5249 31.7002 42.7875 31.0932 43.2731Z"
        fill="#3E5964" />
    <path
        d="M18.4909 37.6154C18.4181 37.664 18.3209 37.6397 18.3209 37.5669C18.1752 36.8627 18.151 35.333 19.0737 35.6243C19.9235 35.8672 19.0979 37.1298 18.4909 37.6154Z"
        fill="#3E5964" />
    <path d="M30.5102 10.6875L30.1217 12.7514L27.0865 11.5616L30.5102 10.6875Z" fill="#80AF99" />
</svg>
