<svg width="57" height="56" viewBox="0 0 57 56" fill="none" xmlns="http://www.w3.org/2000/svg">
    <path opacity="0.2"
        d="M17.3276 10.7254C14.2962 12.5644 10.98 15.8693 9.75978 19.4226C8.58375 22.8472 6.95053 29.833 7.41409 32.5227C7.87762 35.2123 9.1406 40.5239 12.0542 43.4231C14.9677 46.3223 31.797 48.9326 36.0917 47.6766C40.3863 46.4206 47.2564 41.2217 48.1173 38.7792C48.9782 36.3368 51.8445 26.4107 49.3106 19.452C48.0887 16.0966 43.4118 11.1476 39.7142 9.34835C36.0165 7.54912 26.018 7.88648 22.9301 8.44874C19.8422 9.011 18.5796 9.9659 17.3276 10.7254Z"
        fill="#FB8C00" />
    <path
        d="M43.9968 17.1768C44.4136 19.608 36.9463 22.8728 27.3603 24.4704C17.9828 26.0681 9.99445 25.4777 9.26508 23.2201H9.23035C9.23035 23.2201 9.36927 50.1372 30.4167 46.5946C52.7493 42.8088 43.9968 17.1768 43.9968 17.1768Z"
        fill="#CF732E" />
    <path
        d="M30.4166 46.5945C26.2836 47.2891 22.984 46.8029 20.3097 45.5873C20.3792 46.4208 20.8307 47.6712 22.6367 48.2963C25.45 49.2688 35.036 49.3383 38.9954 45.7957C40.211 44.719 40.211 43.677 39.6206 42.7393C37.3977 44.5453 34.4108 45.8998 30.4166 46.5945Z"
        fill="#BA5E1E" />
    <path fill-rule="evenodd" clip-rule="evenodd"
        d="M44.6913 19.6774C44.6913 19.6774 48.9633 17.0031 52.888 20.4415C57.16 24.1925 54.8677 31.2431 50.5957 33.1186C47.4351 34.4731 45.0733 33.848 45.0733 33.848V33.709C46.2542 28.5687 45.4901 23.22 44.7608 20.0247L44.6913 19.6774ZM45.386 23.4284C46.2195 22.5948 47.4352 22.1433 48.8592 22.2475C51.7766 22.4212 52.6102 27.3531 49.9706 29.0202C48.5813 29.8885 46.671 30.1663 45.6986 29.819C45.8028 27.7004 45.6291 25.2344 45.386 23.4284Z"
        fill="#CF732E" />
    <path
        d="M31.4586 42.3573C24.026 45.0664 19.5109 44.2328 17.2533 43.7119C20.3097 46.2125 24.547 47.5671 30.3819 46.5946C48.3035 43.5729 46.2196 26.4502 44.6914 19.8164C44.0315 25.5124 44.7609 37.5296 31.4586 42.3573Z"
        fill="#BA5E1E" />
    <path
        d="M27.3656 24.4697C36.9735 22.8472 44.4335 19.5848 44.0279 17.1828C43.6223 14.7808 35.5047 14.1489 25.8967 15.7713C16.2888 17.3937 8.82881 20.6562 9.23442 23.0582C9.64003 25.4602 17.7576 26.0921 27.3656 24.4697Z"
        fill="#DF8147" />
    <path
        d="M27.1954 23.474C36.0847 21.9729 43.0216 19.1615 42.6894 17.1945C42.3573 15.2275 34.8819 14.8498 25.9926 16.3509C17.1034 17.852 10.1665 20.6634 10.4986 22.6304C10.8308 24.5974 18.3062 24.9751 27.1954 23.474Z"
        fill="#AB500C" />
    <path opacity="0.5" d="M39.6555 42.7393C39.6555 42.7393 37.3632 45.2399 31.1462 46.1082"
        stroke="#531B1D" stroke-miterlimit="10" stroke-linecap="round" stroke-linejoin="round" />
    <path
        d="M45.3858 32.1464C45.2816 32.9105 45.2469 32.9452 45.0732 33.7093V33.8482C45.0732 33.8482 46.9835 34.5776 50.5956 33.1189C53.9993 31.7296 56.1527 26.8324 54.555 22.6299C54.8676 27.5965 52.1933 33.1189 45.3858 32.1464Z"
        fill="#BA5E1E" />
    <path opacity="0.5"
        d="M29.861 23.9838C29.0275 24.1575 28.1939 24.2964 27.3603 24.4701C17.9828 26.0677 9.99445 25.4773 9.26508 23.2197H9.23035C9.23035 23.2197 9.26508 30.1661 12.0436 36.522C25.4848 34.4034 27.6729 27.3528 29.861 23.9838Z"
        fill="#DA7D42" />
    <path opacity="0.5" d="M26.7698 25.9638C27.8465 25.7554 28.9926 25.5123 30.1735 25.1997"
        stroke="#531B1D" stroke-miterlimit="10" stroke-linecap="round" stroke-linejoin="round" />
    <path opacity="0.5" d="M11.0018 26.1377C11.0018 26.1377 16.1421 27.527 24.3736 26.3461"
        stroke="#531B1D" stroke-miterlimit="10" stroke-linecap="round" stroke-linejoin="round" />
</svg>
