<svg width="24" height="24" viewBox="0 0 24 24" fill="none" xmlns="http://www.w3.org/2000/svg">
    <path fill-rule="evenodd" clip-rule="evenodd"
        d="M11.9998 18.0889C12.414 18.0889 12.7498 18.4247 12.7498 18.8389V21.9998C12.7498 22.4141 12.414 22.7498 11.9998 22.7498C11.5856 22.7498 11.2498 22.4141 11.2498 21.9998V18.8389C11.2498 18.4247 11.5856 18.0889 11.9998 18.0889Z"
        fill="#131313" />
    <path fill-rule="evenodd" clip-rule="evenodd"
        d="M11.9998 2.75C10.174 2.75 8.68768 4.23825 8.68768 6.08095V10.7682C8.68768 12.6106 10.1738 14.0981 11.9998 14.0981C13.8267 14.0981 15.3118 12.6108 15.3118 10.7682V6.08095C15.3118 4.23813 13.8264 2.75 11.9998 2.75ZM7.18768 6.08095C7.18768 3.41639 9.33907 1.25 11.9998 1.25C14.6616 1.25 16.8118 3.41651 16.8118 6.08095V10.7682C16.8118 13.4329 14.6614 15.5981 11.9998 15.5981C9.33932 15.5981 7.18768 13.433 7.18768 10.7682V6.08095Z"
        fill="#131313" />
    <path fill-rule="evenodd" clip-rule="evenodd"
        d="M4 10.0508C4.41421 10.0508 4.75 10.3866 4.75 10.8008C4.75 14.8288 7.99878 18.0885 11.9995 18.0885C16.0013 18.0885 19.25 14.8287 19.25 10.8008C19.25 10.3866 19.5858 10.0508 20 10.0508C20.4142 10.0508 20.75 10.3866 20.75 10.8008C20.75 15.6505 16.8364 19.5885 11.9995 19.5885C7.16355 19.5885 3.25 15.6504 3.25 10.8008C3.25 10.3866 3.58579 10.0508 4 10.0508Z"
        fill="#131313" />
</svg>
