<svg width="36" height="48" viewBox="0 0 36 48" fill="none" xmlns="http://www.w3.org/2000/svg">
    <g id="Watch" clip-path="url(#clip0_879_782)">
        <path id="Vector"
            d="M5.45496 8.13477C7.14058 7.36743 7.5557 6.75104 8.17209 5.09057C8.78847 3.4301 10.2099 1.55579 12.7635 0.901662C15.3171 0.260117 19.3299 0.222379 22.6886 1.15325C26.0473 2.07154 26.563 4.38613 27.1039 5.73212C27.6449 7.07811 29.3934 8.18509 29.9343 8.34862C30.4752 8.51215 30.1859 9.10338 29.5066 8.93985C28.8273 8.77631 27.0914 8.00898 26.0599 5.70696C25.0284 3.40495 23.8585 2.41118 20.7891 1.83253C17.7198 1.25388 12.1597 0.788448 10.2854 3.80748C9.25391 5.40506 9.12812 6.91457 6.9519 8.2354C5.22853 9.15369 5.065 8.6002 5.45496 8.13477Z"
            fill="#FDBA66" />
        <path id="Vector_2"
            d="M4.51161 9.27971C4.18455 8.68849 3.53043 8.09726 3.75686 7.36766C3.89523 6.9777 4.27261 6.73869 4.66257 6.73869C5.11542 6.72611 5.34185 7.00286 5.51796 7.36766C5.68149 7.7073 5.8576 8.16016 6.00855 8.4998"
            fill="#FDBA66" />
        <path id="Vector_3"
            d="M0.725219 16.2357C0.0459361 15.1665 -0.494974 12.3361 1.8322 10.8769C4.15937 9.40515 6.91424 7.87047 8.48665 7.26666C10.0591 6.66286 12.2101 6.44901 13.5939 8.91455C13.8454 9.41773 13.2668 10.0215 12.7385 10.3863C12.1975 10.7386 3.44235 15.3174 2.44858 15.8206C1.15292 16.4118 0.825853 16.5125 0.725219 16.2357Z"
            fill="#F44336" />
        <path id="Vector_4"
            d="M6.83875 13.1164C7.12807 13.6824 7.54319 14.2862 7.83251 14.8649C8.09668 15.4184 8.386 15.9593 8.6879 16.5128C9.12818 16.0977 9.69425 15.8209 9.80746 15.7203C9.59361 15.3806 8.43632 13.5692 7.88283 12.5503"
            fill="#FDBA66" />
        <g id="Group">
            <path id="Vector_5"
                d="M1.0522 16.1602C1.02704 16.1602 1.00188 16.1476 1.00188 16.1225C0.989304 16.0973 1.00188 16.0596 1.02704 16.0344C1.34152 15.8709 1.66859 15.6822 1.98307 15.5061C2.29755 15.33 2.61203 15.1413 2.9391 14.9778C3.40453 14.7388 3.88255 14.5123 4.3354 14.2985C4.71278 14.1224 5.10274 13.9337 5.48012 13.745C6.42357 13.2544 7.37959 12.7386 8.29788 12.2355C9.00232 11.8581 9.71935 11.4556 10.4364 11.0782C10.7383 10.9146 11.0905 10.7134 11.4427 10.5121C11.8956 10.2479 12.3736 9.98378 12.7006 9.80767C12.7258 9.79509 12.7635 9.80767 12.7887 9.83283C12.8139 9.85799 12.7887 9.89572 12.7635 9.92088C12.4365 10.097 11.9585 10.3612 11.5056 10.6253C11.1534 10.8266 10.7886 11.0279 10.4867 11.1914C9.76966 11.5688 9.04006 11.9713 8.3482 12.3487C7.42991 12.8519 6.47388 13.3676 5.53043 13.8582C5.14048 14.0469 4.75052 14.2356 4.37314 14.4117C3.9077 14.6255 3.42969 14.852 2.97683 15.091C2.64977 15.2545 2.33529 15.4432 2.02081 15.6193C1.70633 15.7954 1.39184 15.9715 1.06478 16.1476C1.07736 16.1602 1.06478 16.1602 1.0522 16.1602Z"
                fill="black" />
        </g>
        <path id="Vector_6"
            d="M30.8652 9.56878C31.1923 8.97755 31.8464 8.38632 31.62 7.65672C31.4816 7.26676 31.1042 7.02776 30.7143 7.02776C30.2614 7.01518 30.035 7.29192 29.8589 7.65672C29.6954 7.99636 29.5067 8.42406 29.3557 8.7637"
            fill="#FDBA66" />
        <path id="Vector_7"
            d="M34.6516 16.5126C35.3309 15.4433 35.8718 12.613 33.5446 11.1538C31.2175 9.682 28.4626 8.14733 26.8902 7.54352C25.3178 6.93971 23.1667 6.72586 21.783 9.19141C21.5314 9.69458 22.11 10.2984 22.6384 10.6632C23.1793 11.0154 31.9345 15.5943 32.9282 16.0974C34.2239 16.7013 34.551 16.8019 34.6516 16.5126Z"
            fill="#F44336" />
        <path id="Vector_8"
            d="M28.4877 13.3681C28.1984 13.9341 27.8336 14.5757 27.5569 15.1417C27.2927 15.6952 27.0034 16.2361 26.7015 16.7896C26.2612 16.3745 25.6951 16.0978 25.5819 15.9971C25.7958 15.6575 26.9531 13.8461 27.5065 12.8271"
            fill="#FDBA66" />
        <g id="Group_2">
            <path id="Vector_9"
                d="M17.4933 14.462C17.4556 14.462 17.4304 14.4368 17.4304 14.3991V13.6821C17.4304 13.1537 17.4179 12.638 17.4053 12.1222C17.3927 11.6065 17.3801 11.0907 17.3801 10.5624C17.3801 10.5247 17.4053 10.4995 17.443 10.4995C17.4808 10.4995 17.5059 10.5247 17.5059 10.5624C17.5059 11.0907 17.5185 11.6065 17.5311 12.1222C17.5437 12.638 17.5562 13.1537 17.5562 13.6821V14.3991C17.5562 14.4368 17.5311 14.462 17.4933 14.462Z"
                fill="black" />
        </g>
        <path id="Vector_10"
            d="M15.6065 9.20392C15.1662 9.24166 14.8266 9.36745 14.8769 9.99642C14.9272 10.6254 15.7197 10.638 16.248 10.638C16.789 10.638 19.0029 10.6128 19.569 10.5122C20.1351 10.4241 20.135 10.0216 20.1225 9.6442C20.1099 9.26682 19.9212 9.05297 19.2922 9.09071C18.6758 9.14103 16.1851 9.15361 15.6065 9.20392Z"
            fill="#F44336" />
        <path id="Vector_11"
            d="M7.31678 42.2876C6.47397 43.7594 5.22862 44.9922 4.53675 46.552C4.22227 47.1432 4.03358 48.3382 5.06508 47.7722C5.95822 47.3067 6.48655 46.3256 7.02746 45.596C7.56837 44.8538 8.20991 44.2122 8.56213 43.382"
            fill="#FDBA66" />
        <path id="Vector_12"
            d="M26.3744 43.7721C27.3304 45.2438 28.5254 46.9169 29.9972 47.9232C31.3306 48.2503 29.6073 45.7219 29.3683 45.3822C28.8022 44.4765 28.0726 43.5079 27.6072 42.5645"
            fill="#FDBA66" />
        <path id="Vector_13"
            d="M17.4808 46.4516C26.7833 46.4516 34.3245 38.9104 34.3245 29.6079C34.3245 20.3053 26.7833 12.7642 17.4808 12.7642C8.17826 12.7642 0.637085 20.3053 0.637085 29.6079C0.637085 38.9104 8.17826 46.4516 17.4808 46.4516Z"
            fill="#F44336" />
        <path id="Vector_14"
            d="M31.3538 30.1574C31.6618 22.5006 25.7045 16.0438 18.0477 15.7358C10.3908 15.4277 3.93405 21.3851 3.62601 29.0419C3.31796 36.6987 9.27531 43.1555 16.9321 43.4635C24.5889 43.7716 31.0457 37.8142 31.3538 30.1574Z"
            fill="#FEE8CC" />
        <path id="Vector_15"
            d="M17.4808 44.3002C9.37976 44.3002 2.78821 37.7086 2.78821 29.6076C2.78821 21.5065 9.37976 14.9023 17.4808 14.9023C25.5819 14.9023 32.186 21.4939 32.186 29.6076C32.186 37.7212 25.5945 44.3002 17.4808 44.3002ZM17.4808 15.0281C9.44266 15.0281 2.914 21.5694 2.914 29.595C2.914 37.6206 9.45524 44.1618 17.4808 44.1618C25.5064 44.1618 32.0477 37.6206 32.0477 29.595C32.0477 21.5694 25.519 15.0281 17.4808 15.0281Z"
            fill="black" />
        <path id="Vector_16"
            d="M18.1224 24.7268C17.9714 24.2488 17.4934 22.2612 17.4934 22.2612C17.4305 22.6512 17.0154 24.2362 16.8645 24.7268C16.6884 25.2677 16.6506 25.7331 17.4934 26.0224C18.3362 25.7457 18.2985 25.2803 18.1224 24.7268Z"
            fill="black" />
        <path id="Vector_17"
            d="M17.4934 26.0979C17.4808 26.0979 17.4682 26.0979 17.4556 26.0854C16.5625 25.7709 16.638 25.23 16.8141 24.7142C16.965 24.2488 17.3676 22.6512 17.4431 22.2613C17.4431 22.2361 17.4682 22.2109 17.506 22.2109C17.5311 22.2109 17.5563 22.2361 17.5688 22.2613C17.5688 22.2864 18.0469 24.2488 18.1978 24.7142C18.3613 25.2426 18.4494 25.7709 17.5437 26.0854C17.5185 26.0854 17.506 26.0979 17.4934 26.0979ZM17.4934 22.5506C17.355 23.1544 17.0531 24.3368 16.9273 24.7394C16.7638 25.2426 16.7009 25.6828 17.4934 25.9596C18.2859 25.6828 18.223 25.2426 18.0594 24.7394C17.9462 24.3746 17.6317 23.1166 17.4934 22.5506Z"
            fill="black" />
        <path id="Vector_18"
            d="M17.4934 28.6267C17.4557 28.6267 17.4305 28.6015 17.4305 28.5638V24.7397C17.4305 24.7019 17.4557 24.6768 17.4934 24.6768C17.5312 24.6768 17.5563 24.7019 17.5563 24.7397V28.5638C17.5563 28.6015 17.5312 28.6267 17.4934 28.6267Z"
            fill="black" />
        <path id="Vector_19"
            d="M20.613 28.1735C21.481 27.7207 24.5 26.0853 25.3806 25.5444C24.412 25.9092 21.2671 27.2804 20.3866 27.6955C19.8457 27.9471 16.009 29.8591 14.5624 30.6642C14.6127 30.7271 14.5875 30.79 14.6127 30.8277C14.6253 30.8655 14.6882 30.8906 14.7007 30.9661C16.2103 30.312 20.0721 28.4503 20.613 28.1735Z"
            fill="#262626" />
        <g id="Group_3">
            <path id="Vector_20"
                d="M20.7011 28.3372C22.3112 27.507 23.9214 26.6516 25.4686 25.7081C25.5567 25.6452 25.5818 25.5446 25.5315 25.444C25.4938 25.3685 25.3932 25.3307 25.3177 25.3559C21.5942 26.7774 17.9336 28.5511 14.4492 30.4883C14.3863 30.526 14.3359 30.6266 14.3611 30.7021C14.4114 30.8279 14.4617 30.9285 14.5246 31.0418C14.5875 31.1424 14.6882 31.155 14.7888 31.1046C16.7889 30.2744 18.7639 29.331 20.7011 28.3372C20.9149 28.224 20.7262 27.8969 20.5124 28.0101C18.5752 29.0039 16.5876 29.9348 14.5875 30.7902C14.6756 30.8153 14.7636 30.8405 14.8517 30.8531C14.8014 30.765 14.7636 30.6895 14.7259 30.6015C14.7008 30.677 14.663 30.7399 14.6379 30.8153C18.0972 28.8907 21.72 27.1296 25.4183 25.7207C25.3428 25.6955 25.2799 25.6578 25.2045 25.6327C25.2296 25.5446 25.2548 25.4565 25.2674 25.3685C23.7201 26.3119 22.11 27.1673 20.4998 27.9976C20.2985 28.1234 20.4872 28.4504 20.7011 28.3372Z"
                fill="#131313" />
        </g>
        <path id="Vector_21"
            d="M20.8521 29.8467C21.8333 29.8341 25.2675 29.6957 26.2864 29.5951C25.2675 29.4944 21.8333 29.3309 20.8521 29.3058C20.2483 29.2932 15.9714 29.2932 14.3109 29.3812C14.3235 29.4567 14.2857 29.507 14.2857 29.5448C14.2731 29.5825 14.3235 29.6328 14.3109 29.7083C15.9714 29.8089 20.2483 29.8592 20.8521 29.8467Z"
            fill="#FB8C00" />
        <g id="Group_4">
            <path id="Vector_22"
                d="M20.852 30.0354C22.6634 29.9977 24.4874 29.9474 26.2863 29.7838C26.3869 29.7713 26.475 29.7084 26.475 29.5952C26.475 29.4819 26.3869 29.419 26.2863 29.4065C22.3364 29.0291 18.2859 29.0039 14.3108 29.1926C14.1976 29.1926 14.1347 29.2807 14.1221 29.3813C14.1095 29.5071 14.1095 29.5826 14.1221 29.7084C14.1347 29.8216 14.1976 29.8971 14.3108 29.8971C16.487 30.0229 18.6758 30.0732 20.852 30.0354C21.091 30.0354 21.091 29.6581 20.852 29.6581C18.6758 29.6958 16.487 29.6455 14.3108 29.5197C14.3737 29.5826 14.4366 29.6455 14.4995 29.7084C14.4869 29.5952 14.4869 29.4945 14.4995 29.3813C14.4366 29.4442 14.3737 29.5071 14.3108 29.57C18.2733 29.3813 22.3238 29.4065 26.2863 29.7838C26.2234 29.7209 26.1605 29.6581 26.0976 29.5952C26.1605 29.5323 26.2234 29.4694 26.2863 29.4065C24.4874 29.57 22.6634 29.6203 20.852 29.6581C20.613 29.6706 20.613 30.048 20.852 30.0354Z"
                fill="#FB8C00" />
        </g>
        <path id="Vector_23"
            d="M18.613 29.5824C18.613 30.1988 18.1098 30.702 17.4935 30.702C16.8771 30.702 16.3739 30.1988 16.3739 29.5824C16.3739 28.9661 16.8771 28.4629 17.4935 28.4629C18.1098 28.4629 18.613 28.9661 18.613 29.5824Z"
            fill="#F44336" />
        <g id="Group_5">
            <path id="Vector_24"
                d="M17.4934 30.2494C17.1286 30.2494 16.8267 29.9475 16.8267 29.5827C16.8267 29.2179 17.1286 28.916 17.4934 28.916C17.8582 28.916 18.1601 29.2179 18.1601 29.5827C18.1601 29.9475 17.8582 30.2494 17.4934 30.2494ZM17.4934 29.0418C17.1915 29.0418 16.9525 29.2808 16.9525 29.5827C16.9525 29.8846 17.1915 30.1236 17.4934 30.1236C17.7953 30.1236 18.0343 29.8846 18.0343 29.5827C18.0343 29.2934 17.7953 29.0418 17.4934 29.0418Z"
                fill="black" />
        </g>
        <path id="Vector_25"
            d="M17.8834 17.2172C17.8834 17.4311 17.7199 17.5946 17.506 17.5946C17.2922 17.5946 17.1287 17.4311 17.1287 17.2172C17.1287 17.0034 17.2922 16.8398 17.506 16.8398C17.7073 16.8398 17.8834 17.0034 17.8834 17.2172Z"
            fill="black" />
        <path id="Vector_26"
            d="M11.644 18.6761C11.7447 18.8523 11.6818 19.0913 11.5057 19.1919C11.3296 19.2925 11.0906 19.2296 10.9899 19.0535C10.8893 18.8774 10.9522 18.6384 11.1283 18.5378C11.3044 18.4371 11.5434 18.5 11.644 18.6761Z"
            fill="black" />
        <path id="Vector_27"
            d="M6.97711 23.0666C7.15322 23.1672 7.21612 23.4062 7.11548 23.5823C7.01485 23.7584 6.77584 23.8213 6.59973 23.7207C6.42362 23.6201 6.36072 23.3811 6.46136 23.205C6.56199 23.0288 6.801 22.9659 6.97711 23.0666Z"
            fill="black" />
        <path id="Vector_28"
            d="M5.12799 29.2051C5.34184 29.2051 5.50537 29.3686 5.50537 29.5825C5.50537 29.7963 5.34184 29.9598 5.12799 29.9598C4.91414 29.9598 4.75061 29.7963 4.75061 29.5825C4.75061 29.3686 4.91414 29.2051 5.12799 29.2051Z"
            fill="black" />
        <path id="Vector_29"
            d="M6.58716 35.4318C6.76327 35.3312 7.00227 35.3941 7.10291 35.5702C7.20354 35.7463 7.14064 35.9853 6.96453 36.0859C6.78842 36.1866 6.54942 36.1237 6.44878 35.9476C6.34815 35.7715 6.41105 35.545 6.58716 35.4318Z"
            fill="black" />
        <path id="Vector_30"
            d="M10.9773 40.099C11.078 39.9229 11.317 39.86 11.4931 39.9606C11.6692 40.0613 11.7321 40.3003 11.6315 40.4764C11.5308 40.6525 11.2918 40.7154 11.1157 40.6148C10.9396 40.5141 10.8767 40.2877 10.9773 40.099Z"
            fill="black" />
        <path id="Vector_31"
            d="M17.1034 41.9482C17.1034 41.7343 17.2669 41.5708 17.4808 41.5708C17.6946 41.5708 17.8582 41.7343 17.8582 41.9482C17.8582 42.162 17.6946 42.3256 17.4808 42.3256C17.2795 42.3256 17.1034 42.162 17.1034 41.9482Z"
            fill="black" />
        <path id="Vector_32"
            d="M23.3427 40.4886C23.2421 40.3125 23.305 40.0735 23.4811 39.9728C23.6572 39.8722 23.8962 39.9351 23.9968 40.1112C24.0975 40.2873 24.0346 40.5263 23.8585 40.627C23.6823 40.7276 23.4433 40.6647 23.3427 40.4886Z"
            fill="black" />
        <path id="Vector_33"
            d="M28.0096 36.0986C27.8335 35.998 27.7706 35.759 27.8713 35.5829C27.9719 35.4068 28.2109 35.3439 28.387 35.4445C28.5631 35.5451 28.626 35.7842 28.5254 35.9603C28.4248 36.149 28.1983 36.2119 28.0096 36.0986Z"
            fill="black" />
        <path id="Vector_34"
            d="M29.8588 29.9725C29.645 29.9725 29.4814 29.809 29.4814 29.5952C29.4814 29.3813 29.645 29.2178 29.8588 29.2178C30.0727 29.2178 30.2362 29.3813 30.2362 29.5952C30.2362 29.809 30.0727 29.9725 29.8588 29.9725Z"
            fill="black" />
        <path id="Vector_35"
            d="M28.3997 23.7334C28.2236 23.834 27.9846 23.7711 27.884 23.595C27.7833 23.4189 27.8462 23.1799 28.0223 23.0793C28.1984 22.9786 28.4375 23.0415 28.5381 23.2176C28.6387 23.4063 28.5758 23.6328 28.3997 23.7334Z"
            fill="black" />
        <path id="Vector_36"
            d="M24.0095 19.0662C23.9089 19.2423 23.6699 19.3052 23.4938 19.2046C23.3177 19.104 23.2548 18.865 23.3554 18.6888C23.456 18.5127 23.695 18.4498 23.8711 18.5505C24.0598 18.6511 24.1227 18.8901 24.0095 19.0662Z"
            fill="black" />
        <path id="Vector_37"
            d="M34.3245 16.4496C34.3119 16.4496 34.2993 16.4496 34.2993 16.437C33.9723 16.2735 33.6578 16.0848 33.3433 15.9087C33.0288 15.7325 32.7143 15.5564 32.3873 15.3803C31.9218 15.1413 31.4438 14.9149 30.991 14.701C30.6136 14.5249 30.2236 14.3362 29.8463 14.1475C28.8902 13.657 27.9342 13.1412 27.0159 12.6255C26.3241 12.2481 25.607 11.8455 24.89 11.4682C24.5001 11.2543 24.0975 11.0656 23.6824 10.8643C23.3805 10.7134 23.066 10.5624 22.739 10.3989C22.7138 10.3863 22.7012 10.3486 22.7138 10.3109C22.7264 10.2857 22.7641 10.2731 22.8019 10.2857C23.1163 10.4492 23.4308 10.6002 23.7327 10.7511C24.1478 10.9524 24.5504 11.1411 24.9403 11.3675C25.6574 11.7449 26.3744 12.1349 27.0662 12.5248C27.9845 13.028 28.9406 13.5563 29.8966 14.0343C30.274 14.223 30.6639 14.4117 31.0413 14.5878C31.5067 14.8017 31.9847 15.0407 32.4502 15.2671C32.7772 15.4306 33.0917 15.6193 33.4062 15.7954C33.7207 15.9715 34.0352 16.1477 34.3622 16.3238C34.3874 16.3363 34.4 16.3741 34.3874 16.4118C34.3622 16.437 34.3497 16.4496 34.3245 16.4496Z"
            fill="black" />
    </g>
    <defs>
        <clipPath id="clip0_879_782">
            <rect width="35.3103" height="48" fill="white" />
        </clipPath>
    </defs>
</svg>
